<?xml version="1.0" encoding="UTF-8" standalone="no"?>
<svg
   xmlns:dc="http://purl.org/dc/elements/1.1/"
   xmlns:cc="http://creativecommons.org/ns#"
   xmlns:rdf="http://www.w3.org/1999/02/22-rdf-syntax-ns#"
   xmlns:svg="http://www.w3.org/2000/svg"
   xmlns="http://www.w3.org/2000/svg"
   xmlns:sodipodi="http://sodipodi.sourceforge.net/DTD/sodipodi-0.dtd"
   xmlns:inkscape="http://www.inkscape.org/namespaces/inkscape"
   id="svg4379"
   width="200"
   height="200"
   inkscape:version="1.0 (4035a4fb49, 2020-05-01)"
   sodipodi:docname="kde.svg"
   version="1.1"
   viewBox="0 0 200 200">
  <metadata
     id="metadata10">
    <rdf:RDF>
      <cc:Work
         rdf:about="">
        <dc:format>image/svg+xml</dc:format>
        <dc:type
           rdf:resource="http://purl.org/dc/dcmitype/StillImage" />
      </cc:Work>
    </rdf:RDF>
  </metadata>
  <defs
     id="defs8">
    <style
       id="current-color-scheme"
       type="text/css">
      .ColorScheme-Text {
        color:#31363b;
      }
      </style>
    <style
       type="text/css"
       id="style832" />
  </defs>
  <sodipodi:namedview
     id="namedview39"
     bordercolor="#666666"
     borderopacity="1"
     gridtolerance="10"
     guidetolerance="10"
     inkscape:current-layer="svg4379"
     inkscape:cx="16.644254"
     inkscape:cy="59.506202"
     inkscape:pageopacity="0"
     inkscape:pageshadow="2"
     inkscape:window-height="985"
     inkscape:window-maximized="1"
     inkscape:window-width="1920"
     inkscape:window-x="0"
     inkscape:window-y="0"
     inkscape:zoom="1.9975"
     objecttolerance="10"
     pagecolor="#dfe2e4"
     showgrid="true"
     inkscape:snap-bbox="true"
     inkscape:bbox-nodes="true"
     inkscape:snap-bbox-edge-midpoints="true"
     inkscape:document-rotation="0">
    <inkscape:grid
       id="grid839"
       type="xygrid" />
  </sodipodi:namedview>
  <path
     d="m 101.00683,24.25 c -2.258555,-0.01685 -4.506935,0.084 -6.740225,0.292968 -10.35496,0.816367 -15.40624,4.019503 -15.10547,3.441407 -16.93278,6.042675 -31.24838,19.045806 -37.87305,37.27539 -11.80021,32.467175 4.9176,68.371665 37.33008,80.195315 32.435925,11.82364 68.281815,-4.92149 80.089835,-37.38867 11.80802,-32.463273 -4.90977,-68.367765 -37.33789,-80.187504 l 0.004,-0.0039 C 114.63899,25.414181 107.78251,24.300534 101.00683,24.25 Z m 12.40235,8.019531 c 1.94912,0.480446 3.90634,0.781284 5.83203,1.480469 A 56.012909,56.012909 0 0 1 137.75293,45 c -8.54647,3.120944 -22.34766,9.71289 -22.34766,9.71289 -21.877835,9.218303 -23.357415,23.15625 -23.357415,23.15625 -2.26551,14.362586 9.136715,8.28125 9.136715,8.28125 11.7299,-5.714567 17.49414,-23.519531 17.49414,-23.519531 -3.65998,-0.699185 -6.54688,0.417969 -6.54688,0.417969 -4.68337,11.56194 -14.232415,16.3125 -14.232415,16.3125 -3.76154,1.988185 -4.63672,-1.527344 -4.63672,-1.527344 -0.63669,-2.636591 2.71875,-3.082031 2.71875,-3.082031 5.206775,-2.027246 8.533245,-7.496203 9.291015,-9.730469 0.74997,-2.238173 2.14453,-2.417969 2.14453,-2.417969 a 64.707803,64.707803 0 0 1 13.35547,-2.761718 l 0.28515,-0.02344 c 8.85503,-1.089792 22.41016,3.136719 22.41016,3.136719 3.04281,1.222597 5.9552,2.136753 8.54492,2.871093 4.9685,12.417367 5.75367,26.549485 0.83203,40.103511 -10.62057,29.21732 -42.89203,44.29051 -72.085925,33.65429 h -0.004 a 55.583242,55.583242 0 0 1 -9.96484,-4.84765 l 0.24218,0.13672 c 15.10473,1.1601 34.822895,-2.31506 48.119135,-14.75976 0,0 25.34287,-20.249658 7.00391,-53.482423 0,0 2.95685,13.393113 -0.8125,24.408203 0,0 -3.59257,14.98459 -19.56445,19.33203 -23.526205,6.40985 -50.330615,-10.05117 -61.541015,-18.035155 -0.84371,-8.19882 -0.0936,-16.666417 2.91797,-24.935547 4.45291,-12.249406 12.82667,-21.810857 23.05664,-28.228515 -2.55066,17.893663 -0.53111,34.373381 2.375,41.27539 3.90215,9.253455 10.67642,20.048897 23.90625,21.431637 13.229815,1.39056 20.517575,-10.988277 20.517575,-10.988277 6.79263,-10.311998 7.85546,-25.119158 7.75,-25.478516 -0.10546,-0.363264 -1.8086,-1.339844 -1.80859,-1.339844 -4.5662,18.483479 -12.09766,24.654297 -12.09766,24.654297 -11.874425,11.46429 -20.283195,3.515625 -20.283195,3.515625 -9.04253,-9.714374 -2.70704,-25.49414 -2.70704,-25.49414 3.5428,-10.74948 13.854085,-26.478904 25.544925,-34.478516 z"
     style="fill:#ffffff;fill-opacity:1;stroke-width:1.946;stroke-linecap:round"
     id="rect846" />
</svg>
