<?xml version="1.0" encoding="UTF-8" standalone="no"?>
<svg
   id="svg17"
   viewBox="0 0 32 32"
   version="1.1"
   sodipodi:docname="configure.svg"
   width="32"
   height="32"
   inkscape:version="1.1.1 (3bf5ae0d25, 2021-09-20)"
   xmlns:inkscape="http://www.inkscape.org/namespaces/inkscape"
   xmlns:sodipodi="http://sodipodi.sourceforge.net/DTD/sodipodi-0.dtd"
   xmlns="http://www.w3.org/2000/svg"
   xmlns:svg="http://www.w3.org/2000/svg"
   xmlns:rdf="http://www.w3.org/1999/02/22-rdf-syntax-ns#"
   xmlns:cc="http://creativecommons.org/ns#"
   xmlns:dc="http://purl.org/dc/elements/1.1/">
  <sodipodi:namedview
     id="namedview12"
     pagecolor="#ffffff"
     bordercolor="#999999"
     borderopacity="1"
     inkscape:pageshadow="0"
     inkscape:pageopacity="0"
     inkscape:pagecheckerboard="0"
     showgrid="true"
     inkscape:zoom="11.138889"
     inkscape:cx="-17.012469"
     inkscape:cy="12.613466"
     inkscape:window-width="1920"
     inkscape:window-height="962"
     inkscape:window-x="0"
     inkscape:window-y="40"
     inkscape:window-maximized="1"
     inkscape:current-layer="svg17"
     inkscape:snap-bbox="true"
     inkscape:bbox-nodes="true"
     inkscape:snap-nodes="false">
    <inkscape:grid
       type="xygrid"
       id="grid4016" />
  </sodipodi:namedview>
  <metadata
     id="metadata19">
    <rdf:RDF>
      <cc:Work
         rdf:about="">
        <dc:format>image/svg+xml</dc:format>
        <dc:type
           rdf:resource="http://purl.org/dc/dcmitype/StillImage" />
      </cc:Work>
    </rdf:RDF>
  </metadata>
  <defs
     id="defs5">
    <style
       type="text/css"
       id="current-color-scheme"> .ColorScheme-Text { color:#363636; } </style>
  </defs>
  <g
     id="22-22-configure">
    <path
       id="path7"
       fill="currentColor"
       class="ColorScheme-Text"
       d="m -11.800627,13.001074 c -0.443199,0 -0.799732,0.356552 -0.799732,0.799733 v 1.585729 c -0.429991,0.124583 -0.844536,0.298442 -1.234822,0.517677 l -1.123078,-1.126511 c -0.313386,-0.313386 -0.818277,-0.313386 -1.131707,0 l -1.131707,1.131707 c -0.313386,0.313385 -0.313386,0.818277 0,1.131707 l 1.119643,1.121317 c -0.216461,0.391914 -0.387565,0.807393 -0.509074,1.238256 h -1.589163 C -18.643466,19.400689 -19,19.757205 -19,20.200421 v 1.599466 c 0,0.443217 0.356542,0.799733 0.799733,0.799733 h 1.585728 c 0.124583,0.429999 0.298443,0.844536 0.517678,1.234822 l -1.124751,1.12475 c -0.313385,0.313386 -0.313385,0.818287 0,1.131708 l 1.131708,1.129946 c 0.313385,0.313385 0.818277,0.313385 1.131707,0 l 1.119643,-1.119644 c 0.391853,0.216893 0.807332,0.388886 1.238256,0.510801 v 1.587401 c 0,0.443182 0.356543,0.799733 0.799733,0.799733 h 1.599466 c 0.443199,0 0.801458,-0.356551 0.801458,-0.799733 v -1.585728 c 0.429991,-0.124583 0.8428105,-0.298443 1.2331491,-0.517678 l 1.1265119,1.124751 c 0.3133857,0.313385 0.8165604,0.313385 1.1299461,0 l 1.1317072,-1.129946 c 0.3133857,-0.313386 0.3133857,-0.818287 0,-1.131708 l -1.1196434,-1.119643 c 0.216981,-0.392258 0.3872566,-0.808627 0.5090745,-1.240017 h 1.5891629 C -3.3565336,22.599435 -3,22.242919 -3,21.799702 V 20.200236 C -3,19.75702 -3.3565424,19.400504 -3.7997327,19.400504 H -5.3871344 C -5.5117173,18.970513 -5.6838598,18.555968 -5.903095,18.165682 l 1.1247507,-1.124751 c 0.3133857,-0.313386 0.3133857,-0.818277 0,-1.131707 l -1.1317072,-1.131707 c -0.3133857,-0.313386 -0.8165605,-0.313386 -1.1299461,0 l -1.1213166,1.121316 C -8.5536253,15.682284 -8.968268,15.51118 -9.39957,15.389759 v -1.589163 c 0,-0.443182 -0.35826,-0.799733 -0.801459,-0.799733 z m 0.799733,4.638485 c 1.856152,-1.29e-4 3.3607798,1.504453 3.3606037,3.360604 1.294e-4,1.856151 -1.5044517,3.36078 -3.3606037,3.360603 -1.856151,1.31e-4 -3.360779,-1.504452 -3.360603,-3.360603 -1.31e-4,-1.856151 1.504452,-3.36078 3.360603,-3.360604 z"
       style="fill:#242424;fill-opacity:1;stroke-width:0.880569" />
    <path
       id="path9"
       fill="none"
       d="M -22,10 V 32 H 0 V 10 Z" />
  </g>
  <g
     id="configure">
    <path
       id="path12"
       fill="currentColor"
       class="ColorScheme-Text"
       d="m 14.799979,4.0009645 c -0.664788,0 -1.199964,0.5352332 -1.199964,1.1999633 V 7.5782847 C 12.955039,7.765161 12.333693,8.0255823 11.748227,8.3544269 L 10.062241,6.6665112 c -0.470071,-0.47007 -1.2272597,-0.47007 -1.6973683,0 l -1.697368,1.697368 c -0.47007,0.4700701 -0.47007,1.2272593 0,1.6973688 L 8.3478971,11.74164 C 8.0232096,12.329497 7.7672155,12.952792 7.5849399,13.599118 H 5.1999633 C 4.5351753,13.599118 4,14.134313 4,14.799082 v 2.400022 c 0,0.664809 0.5352139,1.199965 1.1999633,1.199965 h 2.3792859 c 0.1868764,0.644976 0.4472977,1.266321 0.7761422,1.851787 l -1.6879157,1.687917 c -0.47007,0.47007 -0.47007,1.225425 0,1.695438 l 1.6973681,1.697368 c 0.47007,0.47007 1.2272602,0.47007 1.6973672,0 l 1.680393,-1.680391 c 0.587771,0.325333 1.211055,0.581962 1.857479,0.764837 v 2.383047 c 0,0.664768 0.535214,1.199964 1.199963,1.199964 h 2.400023 c 0.664788,0 1.199964,-0.535233 1.199964,-1.199964 v -2.379287 c 0.644976,-0.186876 1.266322,-0.447297 1.851788,-0.776141 l 1.687916,1.687915 c 0.47007,0.47007 1.22533,0.47007 1.695439,0 l 1.697367,-1.697368 c 0.470072,-0.47007 0.470072,-1.225427 0,-1.695439 L 23.652151,20.25836 c 0.325469,-0.588369 0.582109,-1.212213 0.764838,-1.859312 h 2.383048 C 27.464825,18.399048 28,17.863854 28,17.199085 v -2.400024 c 0,-0.664806 -0.535214,-1.199962 -1.199963,-1.199962 H 24.420751 C 24.233874,12.954121 23.973453,12.332777 23.644609,11.74731 l 1.687915,-1.685985 c 0.47007,-0.4700715 0.47007,-1.22726 0,-1.6973686 l -1.697368,-1.697368 c -0.470071,-0.47007 -1.22533,-0.47007 -1.695439,0 L 20.259325,8.3469808 C 19.670869,8.0221583 19.047016,7.7661642 18.400014,7.5840236 V 5.2009761 c 0,-0.6647687 -0.535214,-1.1999634 -1.199964,-1.1999634 z m 1.199963,6.9570095 c 2.784193,-1.95e-4 5.04137,2.256887 5.041177,5.041178 1.94e-4,2.784191 -2.256888,5.041369 -5.041177,5.041176 -2.784193,1.96e-4 -5.04137,-2.256888 -5.041177,-5.041176 -1.95e-4,-2.784193 2.256888,-5.041371 5.041177,-5.041178 z"
       style="fill:#242424;fill-opacity:1;stroke-width:0.964523" />
    <path
       id="path14"
       fill="none"
       d="M 0,0 V 32 H 32 V 0 Z" />
  </g>
</svg>
