<?xml version="1.0" encoding="UTF-8" standalone="no"?>
<svg
   xmlns:dc="http://purl.org/dc/elements/1.1/"
   xmlns:cc="http://creativecommons.org/ns#"
   xmlns:rdf="http://www.w3.org/1999/02/22-rdf-syntax-ns#"
   xmlns:svg="http://www.w3.org/2000/svg"
   xmlns="http://www.w3.org/2000/svg"
   xmlns:sodipodi="http://sodipodi.sourceforge.net/DTD/sodipodi-0.dtd"
   xmlns:inkscape="http://www.inkscape.org/namespaces/inkscape"
   id="svg30"
   viewBox="0 0 22 22"
   version="1.1"
   sodipodi:docname="kdeconnect.svg"
   width="22"
   height="22"
   inkscape:version="1.0.1 (3bc2e813f5, 2020-09-07)">
  <sodipodi:namedview
     inkscape:document-rotation="0"
     pagecolor="#00c42d"
     bordercolor="#666666"
     borderopacity="1"
     objecttolerance="10"
     gridtolerance="10"
     guidetolerance="10"
     inkscape:pageopacity="0"
     inkscape:pageshadow="2"
     inkscape:window-width="1920"
     inkscape:window-height="998"
     id="namedview20"
     showgrid="true"
     inkscape:snap-bbox="true"
     inkscape:bbox-nodes="true"
     inkscape:snap-bbox-edge-midpoints="true"
     inkscape:zoom="5.656854"
     inkscape:cx="-43.415271"
     inkscape:cy="-18.04376"
     inkscape:window-x="0"
     inkscape:window-y="0"
     inkscape:window-maximized="1"
     inkscape:current-layer="svg30">
    <inkscape:grid
       type="xygrid"
       id="grid845" />
  </sodipodi:namedview>
  <metadata
     id="metadata34">
    <rdf:RDF>
      <cc:Work
         rdf:about="">
        <dc:format>image/svg+xml</dc:format>
        <dc:type
           rdf:resource="http://purl.org/dc/dcmitype/StillImage" />
        <dc:title />
      </cc:Work>
    </rdf:RDF>
  </metadata>
  <defs
     id="defs3">
    <style
       type="text/css"
       id="current-color-scheme">.ColorScheme-Text { color:#363636; }</style>
  </defs>
  <g
     fill="currentColor"
     class="ColorScheme-Text"
     transform="translate(-353,-529.36)"
     id="16-16-kdeconnect">
    <path
       id="path5"
       d="m 308,539.36 c -0.554,0 -1,0.446 -1,1 v 10 c 0,0.554 0.446,1 1,1 h 1 v -2 h -1 v -7 h 6 v 1 h 1 v -3 c 0,-0.554 -0.446,-1 -1,-1 z m 2,1 h 2 v 1 h -2 z m 2.5,3 -0.27734,1.1074 a 3,3 0 0 0 -0.72071,0.29688 l -0.97656,-0.58594 -0.70703,0.70703 0.58594,0.97656 a 3,3 0 0 0 -0.30078,0.72266 l -1.1035,0.27539 v 1 l 1.1074,0.27734 a 3,3 0 0 0 0.29688,0.72071 l -0.58594,0.97656 0.70703,0.70703 0.97656,-0.58594 a 3,3 0 0 0 0.72266,0.30078 l 0.27539,1.1035 h 1 l 0.27734,-1.1074 a 3,3 0 0 0 0.72071,-0.29688 l 0.97656,0.58594 0.70703,-0.70703 -0.58594,-0.97656 a 3,3 0 0 0 0.30078,-0.72266 l 1.1035,-0.27539 v -1 l -1.1074,-0.27734 a 3,3 0 0 0 -0.29688,-0.72071 l 0.58594,-0.97656 -0.70703,-0.70703 -0.97656,0.58594 a 3,3 0 0 0 -0.72266,-0.30078 L 313.5,543.36 Z m 0.5,2 a 2,2 0 0 1 0.19922,0.01 2,2 0 0 1 0.19726,0.0293 2,2 0 0 1 0.19532,0.0508 2,2 0 0 1 0.1875,0.0684 2,2 0 0 1 0.17968,0.0859 2,2 0 0 1 0.16993,0.10547 2,2 0 0 1 0.16015,0.12109 2,2 0 0 1 0.14649,0.13672 2,2 0 0 1 0.13086,0.14844 2,2 0 0 1 0.11718,0.16406 2,2 0 0 1 0.0996,0.17383 2,2 0 0 1 0.0801,0.18164 2,2 0 0 1 0.0645,0.18945 2,2 0 0 1 0.043,0.19531 2,2 0 0 1 0.0234,0.19922 2,2 0 0 1 0.006,0.14059 2,2 0 0 1 -0.01,0.19922 2,2 0 0 1 -0.0293,0.19726 2,2 0 0 1 -0.0508,0.19532 2,2 0 0 1 -0.0684,0.1875 2,2 0 0 1 -0.0859,0.17968 2,2 0 0 1 -0.10547,0.16993 2,2 0 0 1 -0.1211,0.16015 2,2 0 0 1 -0.13672,0.14649 2,2 0 0 1 -0.14843,0.13086 2,2 0 0 1 -0.16407,0.11718 2,2 0 0 1 -0.17382,0.0996 2,2 0 0 1 -0.18164,0.0801 2,2 0 0 1 -0.18946,0.0644 2,2 0 0 1 -0.19531,0.043 2,2 0 0 1 -0.19922,0.0234 2,2 0 0 1 -0.084,0.01 h -0.13672 a 2,2 0 0 1 -0.11914,-0.01 2,2 0 0 1 -0.19727,-0.0293 2,2 0 0 1 -0.19531,-0.0508 2,2 0 0 1 -0.1875,-0.0684 2,2 0 0 1 -0.17969,-0.0859 2,2 0 0 1 -0.16992,-0.10546 2,2 0 0 1 -0.16016,-0.1211 2,2 0 0 1 -0.0879,-0.082 l -0.0879,-0.0879 a 2,2 0 0 1 -0.10156,-0.11523 2,2 0 0 1 -0.11719,-0.16407 2,2 0 0 1 -0.0996,-0.17382 2,2 0 0 1 -0.0801,-0.18164 2,2 0 0 1 -0.0645,-0.18946 2,2 0 0 1 -0.043,-0.19531 2,2 0 0 1 -0.0234,-0.19922 2,2 0 0 1 -0.006,-0.14062 2,2 0 0 1 0.01,-0.19922 2,2 0 0 1 0.0293,-0.19727 2,2 0 0 1 0.0508,-0.19531 2,2 0 0 1 0.0684,-0.1875 2,2 0 0 1 0.0859,-0.17969 2,2 0 0 1 0.10547,-0.16992 2,2 0 0 1 0.1211,-0.16016 2,2 0 0 1 0.13672,-0.14648 2,2 0 0 1 0.14843,-0.13086 2,2 0 0 1 0.16407,-0.11719 2,2 0 0 1 0.17382,-0.0996 2,2 0 0 1 0.18164,-0.0801 2,2 0 0 1 0.18946,-0.0644 2,2 0 0 1 0.19531,-0.043 2,2 0 0 1 0.19922,-0.0234 2,2 0 0 1 0.14062,-0.01 z"
       fill="currentColor"
       class="ColorScheme-Text" />
    <rect
       id="rect7"
       fill="none"
       height="16"
       width="16"
       y="537.35999"
       x="303" />
  </g>
  <g
     fill="currentColor"
     class="ColorScheme-Text"
     transform="translate(-353,-529.36)"
     id="kdeconnect-22">
    <path
       id="path21"
       fill="currentColor"
       d="M 11,2 C 9.338,2 8,3.338 8,5 v 22 c 0,1.662 1.338,3 3,3 h 10 c 1.662,0 3,-1.338 3,-3 V 5 C 24,3.338 22.662,2 21,2 Z m 0,2 h 1.4922 l 0.49023,0.65234 C 13.09835,4.80615 13.13748,5 13.33009,5 h 5.3398 C 18.8625,5 18.90163,4.80615 19.01755,4.65234 L 19.50778,4 h 1.4922 c 0.55399,0 1,0.44601 1,1 v 22 c 0,0.55399 -0.44601,1 -1,1 h -10 c -0.55399,0 -1,-0.44601 -1,-1 V 5 c 0,-0.55399 0.44601,-1 1,-1 z"
       transform="translate(321,529.36)"
       class="ColorScheme-Text" />
    <rect
       id="rect23"
       fill="none"
       height="32"
       width="32"
       y="529.35999"
       x="321" />
    <rect
       id="rect25"
       opacity="0.5"
       ry="0.5"
       height="1"
       width="8"
       y="555.35999"
       x="333" />
    <path
       id="path27"
       fill="currentColor"
       d="m 336.5,541.36 -0.27734,1.1074 c -0.25213,0.0672 -0.49441,0.167 -0.72071,0.29688 l -0.97656,-0.58594 -0.70703,0.70703 0.58594,0.97656 c -0.13139,0.22672 -0.23251,0.46967 -0.30078,0.72266 l -1.1035,0.27539 v 1 l 1.1074,0.27734 c 0.0672,0.25213 0.167,0.49441 0.29688,0.72071 l -0.58594,0.97656 0.70703,0.70703 0.97656,-0.58594 c 0.22672,0.13139 0.46967,0.23251 0.72266,0.30078 l 0.27539,1.1035 h 1 l 0.27734,-1.1074 c 0.25213,-0.0672 0.49441,-0.167 0.72071,-0.29688 l 0.97656,0.58594 0.70703,-0.70703 -0.58594,-0.97656 c 0.13139,-0.22672 0.23251,-0.46967 0.30078,-0.72266 l 1.1035,-0.27539 v -1 l -1.1074,-0.27734 c -0.0672,-0.25213 -0.167,-0.49441 -0.29688,-0.72071 l 0.58594,-0.97656 -0.70703,-0.70703 -0.97656,0.58594 c -0.22672,-0.13139 -0.46967,-0.23251 -0.72266,-0.30078 L 337.5,541.36 Z m 0.5,2 c 0.0665,2e-5 0.13302,0.003 0.19922,0.01 0.0662,0.006 0.13203,0.0163 0.19726,0.0293 0.0659,0.0136 0.13111,0.0306 0.19532,0.0508 0.0636,0.0197 0.12618,0.0425 0.1875,0.0684 0.0613,0.0256 0.12125,0.0543 0.17968,0.0859 0.0584,0.0323 0.11508,0.0675 0.16993,0.10547 0.0554,0.0377 0.10883,0.0781 0.16015,0.12109 0.0511,0.0431 0.1,0.0887 0.14649,0.13672 0.046,0.0473 0.0897,0.0968 0.13086,0.14844 0.0418,0.0527 0.0809,0.10744 0.11718,0.16406 0.0361,0.0562 0.0693,0.11426 0.0996,0.17383 0.0297,0.0592 0.0564,0.1198 0.0801,0.18164 0.0247,0.062 0.0462,0.12526 0.0645,0.18945 0.0176,0.0643 0.0319,0.12954 0.043,0.19532 0.0111,0.066 0.0189,0.13246 0.0234,0.19921 0.004,0.0468 0.006,0.0937 0.006,0.14059 -2e-5,0.0665 -0.003,0.13302 -0.01,0.19922 -0.006,0.0662 -0.0163,0.13203 -0.0293,0.19726 -0.0136,0.0659 -0.0306,0.13111 -0.0508,0.19532 -0.0197,0.0636 -0.0425,0.12618 -0.0684,0.1875 -0.0256,0.0613 -0.0543,0.12125 -0.0859,0.17968 -0.0323,0.0584 -0.0675,0.11508 -0.10547,0.16993 -0.0377,0.0554 -0.0781,0.10883 -0.1211,0.16015 -0.0431,0.0511 -0.0887,0.1 -0.13672,0.14649 -0.0473,0.046 -0.0968,0.0897 -0.14843,0.13086 -0.0527,0.0418 -0.10744,0.0809 -0.16407,0.11718 -0.0562,0.0361 -0.11425,0.0693 -0.17382,0.0996 -0.0592,0.0297 -0.1198,0.0564 -0.18164,0.0801 -0.062,0.0246 -0.12527,0.0461 -0.18946,0.0644 -0.0643,0.0176 -0.12953,0.0319 -0.19531,0.043 -0.066,0.0111 -0.13246,0.0189 -0.19922,0.0234 -0.0279,0.004 -0.0559,0.007 -0.084,0.01 h -0.13672 c -0.0398,-0.002 -0.0795,-0.005 -0.11914,-0.01 -0.0662,-0.006 -0.13204,-0.0163 -0.19727,-0.0293 -0.0659,-0.0136 -0.1311,-0.0306 -0.19531,-0.0508 -0.0636,-0.0197 -0.12618,-0.0425 -0.1875,-0.0684 -0.0613,-0.0256 -0.12126,-0.0543 -0.17969,-0.0859 -0.0584,-0.0323 -0.11507,-0.0675 -0.16992,-0.10546 -0.0554,-0.0377 -0.10883,-0.0781 -0.16016,-0.1211 -0.0301,-0.0265 -0.0594,-0.0538 -0.0879,-0.082 l -0.0879,-0.0879 c -0.0353,-0.0371 -0.0692,-0.0755 -0.10156,-0.11523 -0.0418,-0.0527 -0.0809,-0.10744 -0.11719,-0.16407 -0.0361,-0.0562 -0.0693,-0.11425 -0.0996,-0.17382 -0.0297,-0.0592 -0.0564,-0.1198 -0.0801,-0.18164 -0.0247,-0.062 -0.0462,-0.12527 -0.0645,-0.18946 -0.0176,-0.0643 -0.0319,-0.12953 -0.043,-0.19531 -0.0111,-0.066 -0.0189,-0.13246 -0.0234,-0.19922 -0.004,-0.0468 -0.006,-0.0937 -0.006,-0.14062 2e-5,-0.0665 0.003,-0.13302 0.01,-0.19922 0.006,-0.0662 0.0163,-0.13204 0.0293,-0.19727 0.0136,-0.0659 0.0306,-0.1311 0.0508,-0.19531 0.0197,-0.0636 0.0425,-0.12618 0.0684,-0.1875 0.0256,-0.0613 0.0543,-0.12126 0.0859,-0.17969 0.0323,-0.0584 0.0675,-0.11507 0.10547,-0.16992 0.0377,-0.0554 0.0781,-0.10883 0.1211,-0.16016 0.0431,-0.0511 0.0887,-0.1 0.13672,-0.14648 0.0473,-0.046 0.0968,-0.0897 0.14843,-0.13086 0.0527,-0.0418 0.10744,-0.0809 0.16407,-0.11719 0.0562,-0.0361 0.11425,-0.0693 0.17382,-0.0996 0.0592,-0.0297 0.1198,-0.0564 0.18164,-0.0801 0.062,-0.0246 0.12527,-0.0462 0.18946,-0.0645 0.0643,-0.0176 0.12953,-0.0319 0.19531,-0.043 0.066,-0.0111 0.13246,-0.0189 0.19922,-0.0234 0.0467,-0.005 0.0936,-0.008 0.14062,-0.01 z"
       class="ColorScheme-Text" />
  </g>
  <g
     id="22-22-kdeconnect">
    <rect
       style="opacity:0.8;fill:#242424;fill-opacity:1;stroke-width:0.471428;stroke-linecap:round"
       id="rect882"
       width="22"
       height="22"
       x="0"
       y="-22"
       ry="6.4166665"
       transform="rotate(90)" />
    <path
       d="M 8.1425781,4 C 6.9554353,4 6,4.955435 6,6.142578 V 16.857422 C 6,18.044565 6.9554353,19 8.1425781,19 H 13.857422 C 15.044565,19 16,18.044565 16,16.857422 V 6.142578 C 16,4.955435 15.044565,4 13.857422,4 Z M 8,5 h 6 c 0.554,0 1,0.446 1,1 v 11 c 0,0.554 -0.446,1 -1,1 H 8 C 7.446,18 7,17.554 7,17 V 6 C 7,5.446 7.446,5 8,5 Z"
       style="fill:#ffffff;fill-opacity:1;stroke-width:2.18218;stroke-linecap:round"
       id="rect891" />
    <rect
       style="color:#363636;fill:#ffffff;fill-opacity:1;stroke-width:0.913594"
       id="rect922"
       ry="1"
       height="2"
       width="5.007925"
       y="4"
       x="8.4960375" />
    <rect
       style="color:#363636;fill:#ffffff;fill-opacity:1;stroke-width:0.816497"
       id="rect924"
       opacity="0.5"
       ry="0.49996999"
       height="0.99993998"
       width="4"
       y="16.000061"
       x="9" />
    <path
       d="m 10.625,8 -0.207031,0.830078 c -0.189096,0.0504 -0.371292,0.125247 -0.5410159,0.222656 L 9.1445312,8.613281 8.6132812,9.144531 9.0527344,9.876953 C 8.9541924,10.046992 8.8793271,10.228228 8.828125,10.417969 L 8,10.625 v 0.75 l 0.8300781,0.207031 c 0.0504,0.189096 0.1252469,0.371292 0.2226563,0.541016 l -0.4394532,0.732422 0.53125,0.53125 0.7324219,-0.439453 c 0.1700389,0.09854 0.3512749,0.173406 0.5410159,0.224609 L 10.625,14 h 0.75 l 0.208984,-0.830078 c 0.189096,-0.0504 0.369339,-0.125247 0.539063,-0.222656 l 0.732422,0.439453 0.53125,-0.53125 -0.439453,-0.732422 c 0.09854,-0.170039 0.173406,-0.351275 0.224609,-0.541016 L 14,11.375 v -0.75 l -0.830078,-0.208984 c -0.0504,-0.189096 -0.125247,-0.369339 -0.222656,-0.539063 l 0.439453,-0.732422 -0.53125,-0.53125 -0.732422,0.439453 C 11.953008,8.954194 11.771772,8.879328 11.582031,8.828125 L 11.375,8 Z M 11,9.5 c 0.04988,1.5e-5 0.100737,0.0026 0.150391,0.0078 0.04965,0.0045 0.09756,0.01173 0.146484,0.02148 0.04943,0.0102 0.09833,0.02391 0.146484,0.03906 0.0477,0.01477 0.09463,0.03135 0.140625,0.05078 0.04598,0.0192 0.09095,0.04075 0.134766,0.06445 0.0438,0.02423 0.08777,0.04965 0.128906,0.07813 0.04155,0.02828 0.08065,0.05955 0.119141,0.0918 0.03832,0.03232 0.07451,0.06554 0.109375,0.101562 0.0345,0.03547 0.06874,0.0726 0.09961,0.111328 0.03135,0.03952 0.06068,0.08058 0.08789,0.123047 0.02707,0.04215 0.05149,0.08619 0.07422,0.130859 0.02227,0.0444 0.04278,0.09034 0.06055,0.136719 0.01852,0.0465 0.03314,0.09443 0.04687,0.142578 0.0132,0.04822 0.02487,0.09715 0.0332,0.146485 0.0083,0.0495 0.0142,0.09837 0.01758,0.148437 0.003,0.0351 0.0039,0.07031 0.0039,0.105469 -1.5e-5,0.04988 -0.0025,0.100737 -0.0078,0.150391 -0.0045,0.04965 -0.01175,0.09756 -0.02149,0.146484 -0.0102,0.04942 -0.02391,0.09833 -0.03906,0.146484 -0.01478,0.0477 -0.03136,0.09463 -0.05078,0.140625 -0.0192,0.04598 -0.04075,0.09095 -0.06445,0.134766 -0.02423,0.0438 -0.04966,0.08777 -0.07813,0.128906 -0.02828,0.04155 -0.05954,0.08065 -0.0918,0.119141 -0.03232,0.03832 -0.06554,0.07451 -0.101562,0.109375 -0.03548,0.0345 -0.07261,0.06874 -0.111328,0.09961 -0.03952,0.03135 -0.08058,0.06068 -0.123047,0.08789 -0.04215,0.02708 -0.08618,0.0515 -0.130859,0.07422 -0.0444,0.02227 -0.09034,0.04278 -0.136719,0.06055 -0.0465,0.01845 -0.09443,0.03315 -0.142578,0.04687 -0.04822,0.0132 -0.09715,0.02487 -0.146485,0.0332 -0.0495,0.0083 -0.09836,0.01421 -0.148437,0.01758 -0.02093,0.003 -0.04142,0.0055 -0.0625,0.0078 h -0.103516 c -0.02985,-0.0015 -0.06011,-0.004 -0.08984,-0.0078 -0.04965,-0.0045 -0.09756,-0.01174 -0.146484,-0.02148 -0.04943,-0.0102 -0.09832,-0.02391 -0.146484,-0.03906 -0.0477,-0.01478 -0.09463,-0.03135 -0.140625,-0.05078 -0.04597,-0.0192 -0.09094,-0.04075 -0.134766,-0.06445 -0.0438,-0.02423 -0.08777,-0.05161 -0.128906,-0.08008 -0.04155,-0.02828 -0.08064,-0.05759 -0.119141,-0.08984 -0.02257,-0.01987 -0.045031,-0.04135 -0.066406,-0.0625 l -0.066406,-0.06445 c -0.026475,-0.02782 -0.051902,-0.0581 -0.076172,-0.08789 -0.03135,-0.03952 -0.060674,-0.08057 -0.087891,-0.123047 -0.027075,-0.04215 -0.051494,-0.08423 -0.074219,-0.128906 -0.022275,-0.0444 -0.042772,-0.09034 -0.060547,-0.136719 -0.018525,-0.0465 -0.03315,-0.09443 -0.046875,-0.142578 -0.0132,-0.04823 -0.024878,-0.09715 -0.033203,-0.146485 -0.00832,-0.0495 -0.014203,-0.09836 -0.017578,-0.148437 -0.003,-0.0351 -0.00391,-0.07027 -0.00391,-0.105469 1.5e-5,-0.04988 0.00256,-0.100736 0.00781,-0.15039 0.0045,-0.04965 0.011734,-0.09952 0.021484,-0.148438 0.0102,-0.04942 0.023912,-0.09832 0.039063,-0.146484 0.014775,-0.0477 0.031356,-0.09463 0.050781,-0.140625 0.0192,-0.04597 0.040753,-0.09094 0.064453,-0.134766 0.024225,-0.0438 0.049648,-0.08581 0.078125,-0.126953 0.028275,-0.04155 0.059548,-0.08064 0.091797,-0.119141 0.032325,-0.03832 0.065548,-0.07647 0.1015625,-0.111328 0.035475,-0.0345 0.072608,-0.06679 0.1113275,-0.09766 0.03952,-0.03135 0.08058,-0.06067 0.123047,-0.08789 0.04215,-0.02707 0.08619,-0.05149 0.130859,-0.07422 0.0444,-0.02228 0.09034,-0.04277 0.136719,-0.06055 0.0465,-0.01845 0.09443,-0.03511 0.142578,-0.04883 0.04822,-0.0132 0.09715,-0.02292 0.146485,-0.03125 0.0495,-0.0083 0.09836,-0.0142 0.148437,-0.01758 0.03503,-0.0037 0.0702,-0.0063 0.105469,-0.0078 z"
       style="fill:#ffffff;fill-opacity:1;stroke-width:2;stroke-linecap:round"
       id="rect946" />
  </g>
  <g
     id="kdeconnect">
    <rect
       style="opacity:0.8;fill:#242424;fill-opacity:1;stroke:none;stroke-width:2.66667"
       id="rect980"
       width="32"
       height="32"
       x="0"
       y="-33"
       ry="9" />
    <g
       id="g937"
       transform="translate(-20,-53.00001)"
       style="fill:#ffffff;fill-opacity:1">
      <rect
         x="33"
         y="42.999996"
         width="6"
         height="0.99993998"
         ry="0.49996999"
         opacity="0.5"
         id="rect869"
         style="color:#363636;fill:#ffffff;fill-opacity:1" />
      <rect
         x="33"
         y="25.999996"
         width="6"
         height="2"
         ry="1"
         id="rect873"
         style="color:#363636;fill:#ffffff;fill-opacity:1" />
      <path
         d="m 32,25.00001 c -1.662,0 -3,1.338 -3,3 v 16 c 0,1.662 1.338,3 3,3 h 8 c 1.662,0 3,-1.338 3,-3 v -16 c 0,-1.662 -1.338,-3 -3,-3 z m 0,2 h 8 c 0.55399,0 1,0.44601 1,1 v 16 c 0,0.55399 -0.44601,1 -1,1 h -8 c -0.55399,0 -1,-0.44601 -1,-1 v -16 c 0,-0.55399 0.44601,-1 1,-1 z"
         id="path875"
         style="color:#363636;fill:#ffffff;fill-opacity:1" />
    </g>
    <rect
       y="-33.000011"
       x="0"
       height="32"
       width="32"
       id="rect4196"
       style="fill:none;fill-rule:evenodd;stroke:none;stroke-width:1.45455px;stroke-linecap:butt;stroke-linejoin:miter;stroke-opacity:1" />
    <path
       id="rect1063"
       style="opacity:1;fill:#ffffff;fill-opacity:1;stroke-width:2"
       d="M 15.5 -21 L 15.222656 -19.892578 C 14.970526 -19.825378 14.728253 -19.725583 14.501953 -19.595703 L 13.525391 -20.181641 L 12.818359 -19.474609 L 13.404297 -18.498047 C 13.272907 -18.271327 13.171786 -18.028381 13.103516 -17.775391 L 12 -17.5 L 12 -16.5 L 13.107422 -16.222656 C 13.174622 -15.970526 13.274417 -15.728253 13.404297 -15.501953 L 12.818359 -14.525391 L 13.525391 -13.818359 L 14.501953 -14.404297 C 14.728673 -14.272907 14.971619 -14.171786 15.224609 -14.103516 L 15.5 -13 L 16.5 -13 L 16.777344 -14.107422 C 17.029474 -14.174622 17.271747 -14.274417 17.498047 -14.404297 L 18.474609 -13.818359 L 19.181641 -14.525391 L 18.595703 -15.501953 C 18.727093 -15.728673 18.828214 -15.971619 18.896484 -16.224609 L 20 -16.5 L 20 -17.5 L 18.892578 -17.777344 C 18.825378 -18.029474 18.725583 -18.271747 18.595703 -18.498047 L 19.181641 -19.474609 L 18.474609 -20.181641 L 17.498047 -19.595703 C 17.271327 -19.727093 17.028381 -19.828214 16.775391 -19.896484 L 16.5 -21 L 15.5 -21 z M 16 -19 C 16.0665 -18.99998 16.133019 -18.997234 16.199219 -18.990234 C 16.265419 -18.984234 16.331254 -18.973937 16.396484 -18.960938 C 16.462384 -18.947338 16.527587 -18.930356 16.591797 -18.910156 C 16.655397 -18.890456 16.717977 -18.867697 16.779297 -18.841797 C 16.840597 -18.816197 16.900554 -18.787459 16.958984 -18.755859 C 17.017384 -18.723559 17.074056 -18.688361 17.128906 -18.650391 C 17.184306 -18.612691 17.237742 -18.572287 17.289062 -18.529297 C 17.340162 -18.486197 17.389057 -18.440598 17.435547 -18.392578 C 17.481547 -18.345278 17.525246 -18.295781 17.566406 -18.244141 C 17.608206 -18.191441 17.647314 -18.136698 17.683594 -18.080078 C 17.719694 -18.023878 17.752903 -17.96582 17.783203 -17.90625 C 17.812903 -17.84705 17.839581 -17.786449 17.863281 -17.724609 C 17.887981 -17.662609 17.909434 -17.599346 17.927734 -17.535156 C 17.945334 -17.470856 17.959603 -17.405624 17.970703 -17.339844 C 17.981803 -17.273844 17.989641 -17.207375 17.994141 -17.140625 C 17.998141 -17.093825 18 -17.04689 18 -17 C 17.99998 -16.9335 17.997234 -16.866981 17.990234 -16.800781 C 17.984234 -16.734581 17.973937 -16.668746 17.960938 -16.603516 C 17.947338 -16.537616 17.930356 -16.472413 17.910156 -16.408203 C 17.890456 -16.344603 17.867697 -16.282023 17.841797 -16.220703 C 17.816197 -16.159403 17.787459 -16.099446 17.755859 -16.041016 C 17.723559 -15.982616 17.688361 -15.925944 17.650391 -15.871094 C 17.612691 -15.815694 17.572297 -15.762258 17.529297 -15.710938 C 17.486197 -15.659838 17.440598 -15.610943 17.392578 -15.564453 C 17.345278 -15.518453 17.295771 -15.474754 17.244141 -15.433594 C 17.191441 -15.391794 17.136708 -15.352686 17.080078 -15.316406 C 17.023878 -15.280306 16.96582 -15.247097 16.90625 -15.216797 C 16.84705 -15.187097 16.786449 -15.160419 16.724609 -15.136719 C 16.662609 -15.112119 16.599346 -15.090566 16.535156 -15.072266 C 16.470856 -15.054666 16.405624 -15.040397 16.339844 -15.029297 C 16.273844 -15.018197 16.207385 -15.010359 16.140625 -15.005859 C 16.112725 -15.001859 16.084741 -14.999094 16.056641 -14.996094 L 15.919922 -14.996094 C 15.880122 -14.998094 15.840421 -15.000859 15.800781 -15.005859 C 15.734581 -15.011859 15.668746 -15.022156 15.603516 -15.035156 C 15.537616 -15.048756 15.472413 -15.065737 15.408203 -15.085938 C 15.344603 -15.105638 15.282023 -15.128397 15.220703 -15.154297 C 15.159403 -15.179897 15.099446 -15.208634 15.041016 -15.240234 C 14.982616 -15.272534 14.925944 -15.307743 14.871094 -15.345703 C 14.815694 -15.383403 14.762268 -15.423797 14.710938 -15.466797 C 14.680838 -15.493297 14.651547 -15.520628 14.623047 -15.548828 L 14.535156 -15.636719 C 14.499856 -15.673819 14.465954 -15.712223 14.433594 -15.751953 C 14.391794 -15.804653 14.352696 -15.859386 14.316406 -15.916016 C 14.280306 -15.972216 14.247097 -16.030274 14.216797 -16.089844 C 14.187097 -16.149044 14.160419 -16.209644 14.136719 -16.271484 C 14.112019 -16.333484 14.090566 -16.396748 14.072266 -16.460938 C 14.054666 -16.525238 14.040397 -16.59047 14.029297 -16.65625 C 14.018197 -16.72225 14.010359 -16.788709 14.005859 -16.855469 C 14.001859 -16.902269 14 -16.949174 14 -16.996094 C 14.00002 -17.062594 14.002766 -17.129113 14.009766 -17.195312 C 14.015766 -17.261513 14.026063 -17.327348 14.039062 -17.392578 C 14.052662 -17.458478 14.069644 -17.523681 14.089844 -17.587891 C 14.109544 -17.651491 14.132303 -17.714071 14.158203 -17.775391 C 14.183803 -17.836691 14.212541 -17.896648 14.244141 -17.955078 C 14.276441 -18.013478 14.311639 -18.07015 14.349609 -18.125 C 14.387309 -18.1804 14.427703 -18.233826 14.470703 -18.285156 C 14.513803 -18.336256 14.559402 -18.385161 14.607422 -18.431641 C 14.654722 -18.477641 14.704229 -18.52134 14.755859 -18.5625 C 14.808559 -18.6043 14.863292 -18.643397 14.919922 -18.679688 C 14.976122 -18.715787 15.03418 -18.748997 15.09375 -18.779297 C 15.15295 -18.808997 15.213551 -18.835675 15.275391 -18.859375 C 15.337391 -18.883975 15.400654 -18.905528 15.464844 -18.923828 C 15.529144 -18.941428 15.594376 -18.955697 15.660156 -18.966797 C 15.726156 -18.977897 15.792615 -18.985734 15.859375 -18.990234 C 15.906075 -18.995234 15.95298 -18.998 16 -19 z " />
  </g>
</svg>
