<?xml version="1.0" encoding="UTF-8" standalone="no"?>
<svg
   xmlns:dc="http://purl.org/dc/elements/1.1/"
   xmlns:cc="http://creativecommons.org/ns#"
   xmlns:rdf="http://www.w3.org/1999/02/22-rdf-syntax-ns#"
   xmlns:svg="http://www.w3.org/2000/svg"
   xmlns="http://www.w3.org/2000/svg"
   xmlns:sodipodi="http://sodipodi.sourceforge.net/DTD/sodipodi-0.dtd"
   xmlns:inkscape="http://www.inkscape.org/namespaces/inkscape"
   width="22"
   height="22"
   version="1.1"
   id="svg21"
   sodipodi:docname="kdf.svg"
   inkscape:version="1.0.1 (3bc2e813f5, 2020-09-07)">
  <metadata
     id="metadata25">
    <rdf:RDF>
      <cc:Work
         rdf:about="">
        <dc:format>image/svg+xml</dc:format>
        <dc:type
           rdf:resource="http://purl.org/dc/dcmitype/StillImage" />
        <dc:title />
      </cc:Work>
    </rdf:RDF>
  </metadata>
  <sodipodi:namedview
     pagecolor="#329632"
     bordercolor="#666666"
     borderopacity="1"
     objecttolerance="10"
     gridtolerance="10"
     guidetolerance="10"
     inkscape:pageopacity="0"
     inkscape:pageshadow="2"
     inkscape:window-width="1920"
     inkscape:window-height="932"
     id="namedview23"
     showgrid="false"
     inkscape:zoom="8.6931821"
     inkscape:cx="-8.9378244"
     inkscape:cy="2.1661548"
     inkscape:window-x="0"
     inkscape:window-y="36"
     inkscape:window-maximized="1"
     inkscape:current-layer="svg21"
     inkscape:document-rotation="0" />
  <defs
     id="defs3">
    <style
       id="current-color-scheme"
       type="text/css">.ColorScheme-Text { color:#333333; } .ColorScheme-Highlight { color:#5294e2; } .ColorScheme-ButtonBackground { color:#333333; }</style>
  </defs>
  <rect
     class="ColorScheme-Text"
     x="-20.43"
     y="-19.39"
     width="16"
     height="16"
     ry="0"
     opacity="0"
     id="rect5" />
  <g
     transform="translate(21.997471,-33.976124)"
     id="kdf">
    <rect
       y="33.976124"
       x="-21.997471"
       height="22"
       width="22"
       id="rect817-1-0"
       style="clip-rule:evenodd;fill:#ffffff;fill-opacity:0;fill-rule:evenodd;stroke-width:0.546348;stroke-linejoin:round;stroke-miterlimit:1.41421" />
    <rect
       transform="rotate(90)"
       ry="6"
       y="2.9589844e-06"
       x="33.978615"
       height="21.994965"
       width="21.994965"
       id="rect990"
       style="opacity:0.8;fill:#242424;fill-opacity:1;stroke-width:0.47132;stroke-linecap:round" />
    <g
       transform="translate(-390.49277,-528.89676)"
       id="g1034">
      <path
         sodipodi:nodetypes="sccssssccssssccssssccs"
         id="path992"
         style="fill:#ffffff;fill-opacity:1;fill-rule:evenodd;paint-order:fill markers stroke"
         d="m 376.48199,566.89676 c -1.108,0 -1.8626,0.90056 -2,2 l -1,4.97862 v 4 c 0,1.108 0.892,2 2,2 h 7.01078 c 1.108,0 2,-0.892 2,-2 v -4 l -1,-4.97862 c -0.13743,-1.0994 -0.892,-2 -2,-2 z m 0,1 h 5.01078 c 0.554,0 0.93128,0.45028 1,1 l 1,4.97862 v 4 c 0,0.554 -0.446,1 -1,1 h -7.01078 c -0.554,0 -1,-0.446 -1,-1 v -4 l 1,-4.97862 c 0.0687,-0.54972 0.446,-1 1,-1 z"
         inkscape:connector-curvature="0" />
      <path
         sodipodi:nodetypes="ccssccsscc"
         id="path994"
         style="fill:#ffffff;fill-opacity:1;fill-rule:evenodd;paint-order:fill markers stroke"
         d="m 374.48199,573.87538 -0.1355,1 c -0.0744,0.54898 0.45608,1.00021 1.0226,1 l 7.24137,-0.003 c 0.56651,-2.1e-4 1.097,-0.45102 1.0226,-1 l -0.13549,-1 c 0,0.554 -0.32058,0.99979 -0.88709,1 l -7.24137,0.003 c -0.56651,2.1e-4 -0.88709,-0.446 -0.88709,-1 z"
         inkscape:connector-curvature="0" />
      <rect
         id="rect996"
         style="fill:#ffffff;fill-opacity:1;fill-rule:evenodd;paint-order:fill markers stroke"
         height="1"
         width="1"
         y="576.87543"
         x="381.49207" />
      <path
         sodipodi:nodetypes="ccsscc"
         inkscape:connector-curvature="0"
         id="path1002"
         d="m 375.50232,567.87538 h 6.98975 c 0,0 1.95173,6.50389 1.28581,7.16981 -0.66592,0.66592 -8.71187,0.68057 -9.37779,0.0146 -0.66593,-0.66593 1.10223,-7.18446 1.10223,-7.18446 z"
         style="fill:#ffffff;fill-opacity:1;stroke:none;stroke-width:0.665922;stroke-linecap:round;stroke-miterlimit:4;stroke-dasharray:none;stroke-opacity:1" />
    </g>
    <g
       id="g1077"
       transform="matrix(0.67299008,0,0,0.67299008,-4.1024991,-9.7231837)"
       style="fill:#242424;fill-opacity:1">
      <path
         style="fill:#242424;fill-opacity:1;stroke:none;stroke-width:0.6;stroke-linecap:round;stroke-miterlimit:4;stroke-dasharray:none;stroke-opacity:1"
         d="M -11,75 A 1.5,1.5 0 0 0 -12.5,76.5 1.5,1.5 0 0 0 -11,78 1.5,1.5 0 0 0 -9.5,76.5 1.5,1.5 0 0 0 -11,75 Z m 0,1 a 0.5,0.5 0 0 1 0.5,0.5 A 0.5,0.5 0 0 1 -11,77 0.5,0.5 0 0 1 -11.5,76.5 0.5,0.5 0 0 1 -11,76 Z"
         id="path1035"
         inkscape:connector-curvature="0" />
      <rect
         style="fill:#242424;fill-opacity:1;stroke:none;stroke-width:0.6;stroke-linecap:round;stroke-miterlimit:4;stroke-dasharray:none;stroke-opacity:1"
         id="rect1037"
         width="1.9999981"
         height="1"
         x="-11.999998"
         y="79"
         ry="0" />
      <rect
         style="fill:#242424;fill-opacity:1;stroke:none;stroke-width:0.6;stroke-linecap:round;stroke-miterlimit:4;stroke-dasharray:none;stroke-opacity:1"
         id="rect1039"
         width="1.9999981"
         height="1"
         x="59.750946"
         y="44.276279"
         ry="0"
         transform="rotate(60)" />
      <rect
         transform="rotate(120)"
         style="fill:#242424;fill-opacity:1;stroke:none;stroke-width:0.6;stroke-linecap:round;stroke-miterlimit:4;stroke-dasharray:none;stroke-opacity:1"
         id="rect1041"
         width="1.9999981"
         height="1"
         x="70.750946"
         y="-26.223721"
         ry="0" />
    </g>
    <g
       style="fill:#242424;fill-opacity:1"
       transform="matrix(0.67299008,0,0,0.67299008,-4.1024991,-9.7231837)"
       id="g1097">
      <path
         inkscape:connector-curvature="0"
         id="path1089"
         d="M -11,75 A 1.5,1.5 0 0 0 -12.5,76.5 1.5,1.5 0 0 0 -11,78 1.5,1.5 0 0 0 -9.5,76.5 1.5,1.5 0 0 0 -11,75 Z m 0,1 a 0.5,0.5 0 0 1 0.5,0.5 A 0.5,0.5 0 0 1 -11,77 0.5,0.5 0 0 1 -11.5,76.5 0.5,0.5 0 0 1 -11,76 Z"
         style="fill:#242424;fill-opacity:1;stroke:none;stroke-width:0.6;stroke-linecap:round;stroke-miterlimit:4;stroke-dasharray:none;stroke-opacity:1" />
      <rect
         ry="0"
         y="79"
         x="-11.999998"
         height="1"
         width="1.9999981"
         id="rect1091"
         style="fill:#242424;fill-opacity:1;stroke:none;stroke-width:0.6;stroke-linecap:round;stroke-miterlimit:4;stroke-dasharray:none;stroke-opacity:1" />
      <rect
         transform="rotate(60)"
         ry="0"
         y="44.276279"
         x="59.750946"
         height="1"
         width="1.9999981"
         id="rect1093"
         style="fill:#242424;fill-opacity:1;stroke:none;stroke-width:0.6;stroke-linecap:round;stroke-miterlimit:4;stroke-dasharray:none;stroke-opacity:1" />
      <rect
         ry="0"
         y="-26.223721"
         x="70.750946"
         height="1"
         width="1.9999981"
         id="rect1095"
         style="fill:#242424;fill-opacity:1;stroke:none;stroke-width:0.6;stroke-linecap:round;stroke-miterlimit:4;stroke-dasharray:none;stroke-opacity:1"
         transform="rotate(120)" />
    </g>
  </g>
  <g
     transform="translate(31.793562,-15.98716)"
     id="16-16-kdf">
    <rect
       style="opacity:0.8;fill:#242424;fill-opacity:1;stroke-width:0.342857;stroke-linecap:round"
       id="rect1101"
       width="16"
       height="16"
       x="21.987162"
       y="31.793562"
       ry="4.3646355"
       transform="rotate(90)" />
    <g
       id="g1162"
       transform="translate(1.7118281,-14.502148)">
      <g
         transform="translate(-420.49277,-528.89676)"
         id="g1111">
        <path
           sodipodi:nodetypes="sccssssccssssccssssccs"
           id="path1103"
           style="fill:#ffffff;fill-opacity:1;fill-rule:evenodd;paint-order:fill markers stroke"
           d="m 376.48199,566.89676 c -1.108,0 -1.8626,0.90056 -2,2 l -1,4.97862 v 4 c 0,1.108 0.892,2 2,2 h 7.01078 c 1.108,0 2,-0.892 2,-2 v -4 l -1,-4.97862 c -0.13743,-1.0994 -0.892,-2 -2,-2 z m 0,1 h 5.01078 c 0.554,0 0.93128,0.45028 1,1 l 1,4.97862 v 4 c 0,0.554 -0.446,1 -1,1 h -7.01078 c -0.554,0 -1,-0.446 -1,-1 v -4 l 1,-4.97862 c 0.0687,-0.54972 0.446,-1 1,-1 z"
           inkscape:connector-curvature="0" />
        <path
           sodipodi:nodetypes="ccssccsscc"
           id="path1105"
           style="fill:#ffffff;fill-opacity:1;fill-rule:evenodd;paint-order:fill markers stroke"
           d="m 374.48199,573.87538 -0.1355,1 c -0.0744,0.54898 0.45608,1.00021 1.0226,1 l 7.24137,-0.003 c 0.56651,-2.1e-4 1.097,-0.45102 1.0226,-1 l -0.13549,-1 c 0,0.554 -0.32058,0.99979 -0.88709,1 l -7.24137,0.003 c -0.56651,2.1e-4 -0.88709,-0.446 -0.88709,-1 z"
           inkscape:connector-curvature="0" />
        <rect
           id="rect1107"
           style="fill:#ffffff;fill-opacity:1;fill-rule:evenodd;paint-order:fill markers stroke"
           height="1"
           width="1"
           y="576.87543"
           x="381.49207" />
        <path
           sodipodi:nodetypes="ccsscc"
           inkscape:connector-curvature="0"
           id="path1109"
           d="m 375.50232,567.87538 h 6.98975 c 0,0 1.95173,6.50389 1.28581,7.16981 -0.66592,0.66592 -8.71187,0.68057 -9.37779,0.0146 -0.66593,-0.66593 1.10223,-7.18446 1.10223,-7.18446 z"
           style="fill:#ffffff;fill-opacity:1;stroke:none;stroke-width:0.665922;stroke-linecap:round;stroke-miterlimit:4;stroke-dasharray:none;stroke-opacity:1" />
      </g>
      <g
         style="fill:#242424;fill-opacity:1"
         transform="matrix(0.67299008,0,0,0.67299008,-34.102499,-9.7231837)"
         id="g1131">
        <path
           inkscape:connector-curvature="0"
           id="path1123"
           d="M -11,75 A 1.5,1.5 0 0 0 -12.5,76.5 1.5,1.5 0 0 0 -11,78 1.5,1.5 0 0 0 -9.5,76.5 1.5,1.5 0 0 0 -11,75 Z m 0,1 a 0.5,0.5 0 0 1 0.5,0.5 A 0.5,0.5 0 0 1 -11,77 0.5,0.5 0 0 1 -11.5,76.5 0.5,0.5 0 0 1 -11,76 Z"
           style="fill:#242424;fill-opacity:1;stroke:none;stroke-width:0.6;stroke-linecap:round;stroke-miterlimit:4;stroke-dasharray:none;stroke-opacity:1" />
        <rect
           ry="0"
           y="79"
           x="-11.999998"
           height="1"
           width="1.9999981"
           id="rect1125"
           style="fill:#242424;fill-opacity:1;stroke:none;stroke-width:0.6;stroke-linecap:round;stroke-miterlimit:4;stroke-dasharray:none;stroke-opacity:1" />
        <rect
           transform="rotate(60)"
           ry="0"
           y="44.276279"
           x="59.750946"
           height="1"
           width="1.9999981"
           id="rect1127"
           style="fill:#242424;fill-opacity:1;stroke:none;stroke-width:0.6;stroke-linecap:round;stroke-miterlimit:4;stroke-dasharray:none;stroke-opacity:1" />
        <rect
           ry="0"
           y="-26.223721"
           x="70.750946"
           height="1"
           width="1.9999981"
           id="rect1129"
           style="fill:#242424;fill-opacity:1;stroke:none;stroke-width:0.6;stroke-linecap:round;stroke-miterlimit:4;stroke-dasharray:none;stroke-opacity:1"
           transform="rotate(120)" />
      </g>
    </g>
  </g>
</svg>
