<?xml version="1.0" encoding="UTF-8" standalone="no"?>
<svg
   id="svg"
   width="22"
   height="22"
   version="1.1"
   sodipodi:docname="manjaro.svg"
   inkscape:version="1.1 (c4e8f9ed74, 2021-05-24)"
   xmlns:inkscape="http://www.inkscape.org/namespaces/inkscape"
   xmlns:sodipodi="http://sodipodi.sourceforge.net/DTD/sodipodi-0.dtd"
   xmlns="http://www.w3.org/2000/svg"
   xmlns:svg="http://www.w3.org/2000/svg"
   xmlns:rdf="http://www.w3.org/1999/02/22-rdf-syntax-ns#"
   xmlns:cc="http://creativecommons.org/ns#"
   xmlns:dc="http://purl.org/dc/elements/1.1/">
  <sodipodi:namedview
     pagecolor="#ffffff"
     bordercolor="#666666"
     borderopacity="1"
     objecttolerance="10"
     gridtolerance="10"
     guidetolerance="10"
     inkscape:pageopacity="0"
     inkscape:pageshadow="2"
     inkscape:window-width="1920"
     inkscape:window-height="933"
     id="namedview15"
     showgrid="true"
     inkscape:snap-bbox="true"
     inkscape:snap-bbox-edge-midpoints="true"
     inkscape:bbox-nodes="true"
     inkscape:snap-others="false"
     inkscape:zoom="3.073504"
     inkscape:cx="67.51252"
     inkscape:cy="-0.16268077"
     inkscape:window-x="0"
     inkscape:window-y="40"
     inkscape:window-maximized="1"
     inkscape:current-layer="svg"
     inkscape:pagecheckerboard="0">
    <inkscape:grid
       type="xygrid"
       id="grid866" />
  </sodipodi:namedview>
  <metadata
     id="metadata23">
    <rdf:RDF>
      <cc:Work
         rdf:about="">
        <dc:format>image/svg+xml</dc:format>
        <dc:type
           rdf:resource="http://purl.org/dc/dcmitype/StillImage" />
        <dc:title />
      </cc:Work>
    </rdf:RDF>
  </metadata>
  <defs
     id="defs5">
    <style
       id="current-color-scheme"
       type="text/css"> .ColorScheme-Text { color:#363636; } </style>
  </defs>
  <g
     id="22-22-manjaro-settings-manager">
    <rect
       transform="rotate(90)"
       ry="6"
       y="-21.997482"
       x="0.0025177002"
       height="21.994965"
       width="21.994965"
       id="rect887"
       style="opacity:0.8;fill:#242424;fill-opacity:1;stroke-width:0.47132;stroke-linecap:round" />
    <rect
       width="22"
       height="22"
       fill-opacity="0"
       id="rect7"
       x="0"
       y="0"
       style="color:#363636;fill:#363636" />
    <path
       d="M 6.625,4 C 5.17075,4 4,5.17075 4,6.625 v 8.75 C 4,16.82925 5.17075,18 6.625,18 H 8 V 8 h 5 V 4 Z M 14,4 v 14 h 1.375 C 16.82925,18 18,16.82925 18,15.375 V 6.625 C 18,5.17075 16.82925,4 15.375,4 Z M 9,9 v 9 h 4 V 9 Z"
       id="path9"
       style="color:#363636;fill:#ffffff;fill-opacity:1;stroke-width:0.875"
       sodipodi:nodetypes="ssssccccsccsssscccccc" />
  </g>
  <g
     id="manjaro-settings-manager">
    <rect
       style="opacity:0.8;fill:#242424;fill-opacity:1;stroke-width:0.685714;stroke-linecap:round"
       id="rect890"
       width="32"
       height="32"
       x="-39"
       y="-27.5"
       ry="9"
       transform="rotate(90)" />
    <path
       d="M 3.6428572,-32.999998 C 2.4557143,-32.999998 1.5,-32.044283 1.5,-30.857141 v 15.714286 c 0,1.187142 0.9557143,2.142857 2.1428572,2.142857 H 6.5 v -15 h 8 v -5 z m 12.8571428,0 v 20 h 2.857143 c 1.187142,0 2.142857,-0.955715 2.142857,-2.142857 v -15.714286 c 0,-1.187142 -0.955715,-2.142857 -2.142857,-2.142857 z m -8,7.142857 v 12.857143 h 6 v -12.857143 z"
       stroke-width="0.714287"
       id="path12"
       style="color:#363636;fill:#ffffff;fill-opacity:1"
       sodipodi:nodetypes="ssssccccsccsssscccccc" />
    <rect
       y="-39"
       width="32"
       height="32"
       ry="0.63999999"
       fill-opacity="0"
       id="rect14"
       x="-4.5"
       style="color:#363636;fill:#363636" />
  </g>
  <g
     id="16-16-manjaro-settings-manager"
     transform="translate(-299 -510.36)"
     class="ColorScheme-Text"
     fill="currentColor">
    <rect
       x="303"
       y="537.36"
       width="16"
       height="16"
       fill="none"
       id="rect17" />
    <path
       transform="translate(299 510.36)"
       d="m8 29c-1.108 0-2 0.892-2 2v8c0 1.108 0.892 2 2 2h1v-9h5v-3h-6zm7 0v12h1c1.108 0 2-0.892 2-2v-8c0-1.108-0.892-2-2-2h-1zm-5 4v8h4v-8h-4z"
       id="path19" />
  </g>
</svg>
