<?xml version="1.0" encoding="UTF-8" standalone="no"?>
<svg
   xmlns:dc="http://purl.org/dc/elements/1.1/"
   xmlns:cc="http://creativecommons.org/ns#"
   xmlns:rdf="http://www.w3.org/1999/02/22-rdf-syntax-ns#"
   xmlns:svg="http://www.w3.org/2000/svg"
   xmlns="http://www.w3.org/2000/svg"
   xmlns:sodipodi="http://sodipodi.sourceforge.net/DTD/sodipodi-0.dtd"
   xmlns:inkscape="http://www.inkscape.org/namespaces/inkscape"
   inkscape:version="1.0.1 (3bc2e813f5, 2020-09-07, custom)"
   sodipodi:docname="media.svg"
   id="svg53"
   viewBox="0 0 5.8208494 5.8208562"
   version="1.1"
   height="22"
   width="22">
  <sodipodi:namedview
     inkscape:current-layer="svg53"
     inkscape:window-maximized="1"
     inkscape:window-y="38"
     inkscape:window-x="0"
     inkscape:cy="28.93293"
     inkscape:cx="-15.495444"
     inkscape:zoom="5.354473"
     inkscape:guide-bbox="true"
     showguides="true"
     inkscape:snap-bbox-edge-midpoints="true"
     inkscape:bbox-nodes="true"
     inkscape:snap-bbox="true"
     showgrid="true"
     id="namedview36"
     inkscape:window-height="942"
     inkscape:window-width="1920"
     inkscape:pageshadow="2"
     inkscape:pageopacity="0"
     guidetolerance="10"
     gridtolerance="10"
     objecttolerance="10"
     borderopacity="1"
     bordercolor="#666666"
     pagecolor="#08c035"
     inkscape:document-rotation="0">
    <inkscape:grid
       id="grid861"
       type="xygrid" />
  </sodipodi:namedview>
  <metadata
     id="metadata57">
    <rdf:RDF>
      <cc:Work
         rdf:about="">
        <dc:format>image/svg+xml</dc:format>
        <dc:type
           rdf:resource="http://purl.org/dc/dcmitype/StillImage" />
        <dc:title></dc:title>
      </cc:Work>
    </rdf:RDF>
  </metadata>
  <defs
     id="defs3">
    <style
       id="current-color-scheme"
       type="text/css">.ColorScheme-Text { color:#363636; } </style>
  </defs>
  <g
     transform="matrix(0.26458,0,0,0.26458,-6.2806805,6.6146056)"
     id="media-record">
    <rect
       id="rect20"
       fill-opacity="0"
       height="22"
       width="22"
       y="4.3869e-05"
       x="73" />
    <path
       id="path22"
       fill="currentColor"
       d="m 83.99,2 a 9,9 0 0 0 -8.9902,9 9,9 0 0 0 9,9 9,9 0 0 0 9,-9 9,9 0 0 0 -9,-9 9,9 0 0 0 -0.0098,0 z m -0.08594,2 a 7,7 0 0 1 0.002,0 7,7 0 0 1 0.09371,0 7,7 0 0 1 7,7 7,7 0 0 1 -7,7 7,7 0 0 1 -7,-7 7,7 0 0 1 6.9043,-7 z m 0.03516,3 a 4,4 0 0 0 -3.9395,4 4,4 0 0 0 4,4 4,4 0 0 0 4,-4 4,4 0 0 0 -4,-4 4,4 0 0 0 -0.06055,0 z"
       class="ColorScheme-Text" />
  </g>
  <g
     transform="matrix(0.26458,0,0,0.26458,26.130532,12.699958)"
     id="media-seek-forward">
    <rect
       id="rect25"
       fill-opacity="0"
       height="22"
       width="22"
       y="-23"
       x="0.00021085" />
    <path
       id="path27"
       fill="currentColor"
       d="m 133.99,2 a 9,9 0 0 0 -8.9902,9 9,9 0 0 0 9,9 9,9 0 0 0 9,-9 9,9 0 0 0 -9,-9 9,9 0 0 0 -0.01,0 z m -0.0859,2 a 7,7 0 0 1 0.002,0 7,7 0 0 1 0.0937,0 7,7 0 0 1 7,7 7,7 0 0 1 -7,7 7,7 0 0 1 -7,-7 7,7 0 0 1 6.9043,-7 z m -3.3418,3.8027 c -0.16096,0.01995 -0.29457,0.089885 -0.40234,0.21094 -0.10776,0.12106 -0.16211,0.26348 -0.16211,0.42578 v 5.1211 c 0,0.1623 0.0544,0.30472 0.16211,0.42578 0.10776,0.12106 0.24138,0.19098 0.40234,0.21094 0.16097,0.01996 0.30705,-0.01563 0.44141,-0.10742 l 2.9941,-2.0645 v 1.5352 c 0,0.1623 0.0543,0.30472 0.16211,0.42578 0.10776,0.12106 0.24138,0.19098 0.40234,0.21094 0.16097,0.01996 0.30705,-0.01563 0.44141,-0.10742 l 3.7148,-2.5605 c 0.1184,-0.08115 0.20088,-0.19181 0.2461,-0.32617 0.0452,-0.13569 0.0452,-0.26992 0,-0.4043 -0.0452,-0.13436 -0.12707,-0.2437 -0.24414,-0.32617 l -3.7168,-2.5625 c -0.13392,-0.093122 -0.28088,-0.12782 -0.44141,-0.10742 -0.16096,0.01995 -0.29457,0.089885 -0.40234,0.21094 -0.10775,0.12106 -0.16211,0.26348 -0.16211,0.42578 v 1.5352 l -2.9941,-2.0645 c -0.13392,-0.093122 -0.28088,-0.12782 -0.44141,-0.10742 z"
       transform="translate(-123,-23)"
       class="ColorScheme-Text" />
  </g>
  <g
     transform="matrix(-0.26458,0,0,0.26458,25.402938,12.699958)"
     id="media-seek-backward">
    <rect
       id="rect30"
       fill-opacity="0"
       height="22"
       width="22"
       y="-23"
       x="0.00021085" />
    <path
       id="path32"
       fill="currentColor"
       d="m 109,2 a 9,9 0 0 0 -9,9 9,9 0 0 0 9,9 9,9 0 0 0 9,-9 9,9 0 0 0 -8.9902,-9 9,9 0 0 0 -0.01,0 z m 0,2 a 7,7 0 0 1 0.0937,0 7,7 0 0 1 6.9062,7 7,7 0 0 1 -7,7 7,7 0 0 1 -7,-7 7,7 0 0 1 7,-7 z m -0.5625,3.8027 c -0.16052,-0.020399 -0.30748,0.0143 -0.4414,0.10742 l -3.7168,2.5625 c -0.11708,0.08247 -0.1989,0.19181 -0.24414,0.32617 -0.0452,0.13438 -0.0452,0.2686 0,0.4043 0.0452,0.13436 0.12769,0.24502 0.24609,0.32617 l 3.7148,2.5605 c 0.13435,0.0918 0.28044,0.12738 0.4414,0.10742 0.16097,-0.01996 0.29459,-0.08988 0.40235,-0.21094 0.10775,-0.12106 0.16211,-0.26348 0.16211,-0.42578 v -1.5352 l 2.9941,2.0645 c 0.13435,0.0918 0.28044,0.12738 0.4414,0.10742 0.16097,-0.01996 0.29459,-0.08988 0.40235,-0.21094 0.10775,-0.12106 0.16211,-0.26348 0.16211,-0.42578 v -5.1211 c 0,-0.1623 -0.0544,-0.30472 -0.16211,-0.42578 -0.10777,-0.12105 -0.24138,-0.19099 -0.40235,-0.21094 -0.16052,-0.020399 -0.30748,0.0143 -0.4414,0.10742 l -2.9941,2.0645 v -1.5352 c 0,-0.1623 -0.0544,-0.30472 -0.16211,-0.42578 -0.10777,-0.12105 -0.24138,-0.19099 -0.40235,-0.21094 z"
       transform="matrix(-1,0,0,1,120,-23)"
       class="ColorScheme-Text" />
  </g>
  <g
     transform="matrix(0.26458,0,0,0.26458,-5.7510875,6.6146096)"
     id="media-skip-forward">
    <rect
       id="rect35"
       fill-opacity="0"
       height="22"
       width="22"
       y="3.0518e-05"
       x="170" />
    <path
       id="path37"
       fill="currentColor"
       d="m 180.99,2 a 9,9 0 0 0 -8.9902,9 9,9 0 0 0 9,9 9,9 0 0 0 9,-9 9,9 0 0 0 -9,-9 9,9 0 0 0 -0.01,0 z m -0.0859,2 a 7,7 0 0 1 0.002,0 7,7 0 0 1 0.0937,0 7,7 0 0 1 7,7 7,7 0 0 1 -7,7 7,7 0 0 1 -7,-7 7,7 0 0 1 6.9043,-7 z m -3.3418,3.8027 c -0.16097,0.01995 -0.29457,0.089885 -0.40234,0.21094 -0.1078,0.12106 -0.16215,0.26348 -0.16215,0.42578 v 5.1211 c 0,0.1623 0.0543,0.30472 0.16211,0.42578 0.10775,0.12106 0.24137,0.19098 0.40234,0.21094 0.16097,0.01996 0.30705,-0.01563 0.44141,-0.10742 l 3.7148,-2.5605 c 0.1184,-0.08115 0.20088,-0.19181 0.2461,-0.32617 0.0452,-0.13569 0.0452,-0.26992 0,-0.4043 -0.0452,-0.13436 -0.12706,-0.2437 -0.24414,-0.32617 l -3.7168,-2.5625 c -0.13392,-0.093122 -0.28089,-0.12782 -0.44141,-0.10742 z m 6.4355,0.19727 c -0.554,0 -1,0.446 -1,1 v 4 c 0,0.554 0.446,1 1,1 0.554,0 1,-0.446 1,-1 v -4 c 0,-0.554 -0.446,-1 -1,-1 z"
       class="ColorScheme-Text" />
  </g>
  <g
     transform="matrix(-0.26458,0,0,0.26458,83.478409,6.6146096)"
     id="media-skip-backward">
    <rect
       id="rect40"
       fill-opacity="0"
       height="22"
       width="22"
       y="3.0518e-05"
       x="170" />
    <path
       id="path42"
       fill="currentColor"
       d="m 158,2 a 9,9 0 0 0 -9,9 9,9 0 0 0 9,9 9,9 0 0 0 9,-9 9,9 0 0 0 -8.9902,-9 9,9 0 0 0 -0.01,0 z m 0,2 a 7,7 0 0 1 0.0937,0 7,7 0 0 1 6.9062,7 7,7 0 0 1 -7,7 7,7 0 0 1 -7,-7 7,7 0 0 1 7,-7 z m 3.4375,3.8027 c -0.16052,-0.020399 -0.30748,0.0143 -0.4414,0.10742 l -3.7168,2.5625 c -0.11708,0.08247 -0.19894,0.19181 -0.24414,0.32617 -0.0452,0.13438 -0.0452,0.2686 0,0.4043 0.0452,0.13436 0.12769,0.24502 0.24609,0.32617 l 3.7148,2.5605 c 0.13436,0.0918 0.28043,0.12738 0.4414,0.10742 0.16097,-0.01996 0.2946,-0.08988 0.40235,-0.21094 0.1078,-0.12106 0.16211,-0.26348 0.16211,-0.42578 v -5.1211 c 0,-0.1623 -0.0543,-0.30472 -0.16211,-0.42578 -0.10777,-0.12105 -0.24138,-0.19099 -0.40235,-0.21094 z m -6.4355,0.19727 c -0.554,0 -1,0.446 -1,1 v 4 c 0,0.554 0.446,1 1,1 0.554,0 1,-0.446 1,-1 v -4 c 0,-0.554 -0.446,-1 -1,-1 z"
       transform="matrix(-1,0,0,1,339,0)"
       class="ColorScheme-Text" />
  </g>
  <g
     transform="matrix(0,-0.26458,0.26458,0,45.775967,57.413978)"
     id="media-eject">
    <rect
       id="rect45"
       fill-opacity="0"
       height="22"
       width="22"
       y="3.0518e-05"
       x="170" />
    <path
       id="path47"
       fill="currentColor"
       d="m 208,2 a 9,9 0 0 0 -9,9 9,9 0 0 0 0,0.0098 9,9 0 0 0 9,8.9902 9,9 0 0 0 9,-9 9,9 0 0 0 -9,-9 z m -0.0937,2 A 7,7 0 0 1 208,4 a 7,7 0 0 1 7,7 7,7 0 0 1 -7,7 7,7 0 0 1 -7,-6.9062 7,7 0 0 1 0,-0.09375 7,7 0 0 1 6.9062,-7 z M 208,5.7559 c -0.0845,0 -0.16806,0.014769 -0.25195,0.042969 -0.16777,0.0564 -0.30328,0.15849 -0.40625,0.30469 l -3.1992,4.6406 c -0.11628,0.16722 -0.16024,0.35035 -0.13477,0.55078 0.0249,0.201 0.11252,0.36738 0.26367,0.50195 0.15116,0.13456 0.3286,0.20312 0.53125,0.20312 h 6.3945 c 0.20265,0 0.38008,-0.06846 0.53125,-0.20312 0.15116,-0.13454 0.2407,-0.30095 0.26562,-0.50195 0.0249,-0.20099 -0.0221,-0.38301 -0.13672,-0.55078 l -3.1973,-4.6387 c -0.10133,-0.14784 -0.23848,-0.25018 -0.40625,-0.30664 -0.0847,-0.0282 -0.1694,-0.042969 -0.25391,-0.042969 z M 205,13 c -0.55398,0 -1,0.446 -1,1 0,0.554 0.44602,1 1,1 h 6 c 0.55398,0 1,-0.446 1,-1 0,-0.554 -0.44602,-1 -1,-1 z"
       transform="rotate(90,194.5,-2.4991)"
       class="ColorScheme-Text" />
  </g>
  <g
     id="media-playback-pause"
     transform="matrix(0.26458,0,0,0.26458,-6.3472015,6.6146096)">
    <rect
       x="0.00021085"
       y="3.0110999e-05"
       width="22"
       height="22"
       fill-opacity="0"
       id="rect1029" />
    <path
       class="ColorScheme-Text"
       d="m 10.99,2 a 9,9 0 0 0 -8.9902,9 9,9 0 0 0 9,9 9,9 0 0 0 9,-9 9,9 0 0 0 -9,-9 9,9 0 0 0 -0.0098,0 z m -0.08398,2 a 7,7 0 0 1 0.09375,0 7,7 0 0 1 7,7 7,7 0 0 1 -7,7 7,7 0 0 1 -7,-7 7,7 0 0 1 6.9062,-7 z m -1.9062,4 c -0.554,0 -1,0.446 -1,1 v 4 c 0,0.554 0.446,1 1,1 0.554,0 1,-0.446 1,-1 V 9 c 0,-0.554 -0.446,-1 -1,-1 z m 4,0 c -0.554,0 -1,0.446 -1,1 v 4 c 0,0.554 0.446,1 1,1 0.554,0 1,-0.446 1,-1 V 9 c 0,-0.554 -0.446,-1 -1,-1 z"
       fill="currentColor"
       id="path1031" />
  </g>
  <g
     id="media-playback-start"
     transform="matrix(0.26458,0,0,0.26458,0.0026905,12.699958)">
    <rect
       x="0.00021085"
       y="-23"
       width="22"
       height="22"
       fill-opacity="0"
       id="rect1035" />
    <path
       class="ColorScheme-Text"
       transform="translate(-25.002,-23)"
       d="m 35.992,2 a 9,9 0 0 0 -8.9902,9 9,9 0 0 0 9,9 9,9 0 0 0 9,-9 9,9 0 0 0 -9,-9 9,9 0 0 0 -0.0098,0 z m -0.08594,2 a 7,7 0 0 1 0.002,0 7,7 0 0 1 0.09375,0 7,7 0 0 1 7,7 7,7 0 0 1 -7,7 7,7 0 0 1 -7,-7 7,7 0 0 1 6.9043,-7 z m -1.3477,3.8027 C 34.39739,7.82265 34.26379,7.892585 34.15602,8.01364 34.04826,8.1347 33.99391,8.27712 33.99391,8.43942 v 5.1211 c 0,0.1623 0.05436,0.30472 0.16211,0.42578 0.10776,0.12106 0.24138,0.19098 0.40234,0.21094 0.16097,0.01996 0.30705,-0.01563 0.44141,-0.10742 l 3.7148,-2.5605 c 0.1184,-0.08115 0.20087,-0.19181 0.24609,-0.32617 0.04524,-0.13569 0.04524,-0.26992 0,-0.4043 -0.04524,-0.13436 -0.12706,-0.2437 -0.24414,-0.32617 l -3.7168,-2.5625 C 34.8658,7.817058 34.71884,7.78236 34.55831,7.80276 Z"
       fill="currentColor"
       id="path1037" />
  </g>
  <g
     id="media-playback-stop"
     transform="matrix(0.26458,0,0,0.26458,-6.3472015,13.493698)">
    <rect
       x="48"
       y="-26"
       width="22"
       height="22"
       fill-opacity="0"
       id="rect1041" />
    <path
       class="ColorScheme-Text"
       transform="translate(0,-26)"
       d="m 58.99,2 a 9,9 0 0 0 -8.9902,9 9,9 0 0 0 9,9 9,9 0 0 0 9,-9 9,9 0 0 0 -9,-9 9,9 0 0 0 -0.0098,0 z m -0.08594,2 a 7,7 0 0 1 0.002,0 7,7 0 0 1 0.09371,0 7,7 0 0 1 7,7 7,7 0 0 1 -7,7 7,7 0 0 1 -7,-7 7,7 0 0 1 6.9043,-7 z m -1.9043,4 c -0.554,0 -1,0.446 -1,1 v 4 c 0,0.554 0.446,1 1,1 h 4 c 0.554,0 1,-0.446 1,-1 V 9 c 0,-0.554 -0.446,-1 -1,-1 z"
       fill="currentColor"
       id="path1043" />
  </g>
  <g
     id="media-playback-paused"
     transform="translate(-13.213097)">
    <rect
       style="opacity:0.00100002;fill:#242424;fill-opacity:1;stroke-width:0.124732;stroke-linecap:round"
       id="rect902"
       width="5.8208561"
       height="5.8208561"
       x="0.0013842004"
       y="-5.8208528"
       ry="1.6977496"
       transform="rotate(90)" />
    <rect
       style="opacity:0.8;fill:#242424;fill-opacity:1;stroke-width:0.119062;stroke-linecap:round"
       id="rect882"
       width="5.556272"
       height="5.556272"
       x="0.13229209"
       y="-5.6885605"
       ry="1.6205792"
       transform="rotate(90)" />
    <path
       d="M 2.8732173,1.0462863 A 1.8588579,1.8588579 0 0 0 1.0448979,2.905095 1.8588579,1.8588579 0 0 0 2.9037064,4.7639031 1.8588579,1.8588579 0 0 0 4.762515,2.905095 1.8588579,1.8588579 0 0 0 2.9037064,1.0462863 a 1.8588579,1.8588579 0 0 0 -0.030489,0 z m 0.030489,0.2780202 A 1.580739,1.580739 0 0 1 4.4844948,2.905095 1.580739,1.580739 0 0 1 2.9037064,4.4858831 1.580739,1.580739 0 0 1 1.3229182,2.905095 1.580739,1.580739 0 0 1 2.9037063,1.3243065 Z"
       style="fill:#ffffff;fill-opacity:1;stroke-width:0.67595;stroke-linecap:round"
       id="path900" />
    <rect
       ry="0.13229218"
       y="2.3692081"
       x="2.3812556"
       height="1.3229222"
       width="0.26458436"
       id="rect907"
       style="fill:#ffffff;fill-opacity:1;stroke-width:0.61776;stroke-linecap:round" />
    <rect
       style="fill:#ffffff;fill-opacity:1;stroke-width:0.61776;stroke-linecap:round"
       id="rect909"
       width="0.26458436"
       height="1.3229222"
       x="3.1750088"
       y="2.3692081"
       ry="0.13229218" />
  </g>
  <g
     id="media-playback-stopped">
    <rect
       style="opacity:0.00100002;fill:#242424;fill-opacity:1;stroke-width:0.124733;stroke-linecap:round"
       id="rect875"
       width="5.8208551"
       height="5.8208551"
       x="-2.8129882e-06"
       y="8.894043e-07"
       ry="1.616905" />
    <rect
       style="opacity:0.8;fill:#242424;fill-opacity:1;stroke-width:0.119063;stroke-linecap:round"
       id="rect934"
       width="5.556272"
       height="5.556272"
       x="0.13228868"
       y="0.13229209"
       ry="1.5434096" />
    <path
       id="path936"
       style="fill:#ffffff;fill-opacity:1;stroke-width:0.67595;stroke-linecap:round"
       d="M 2.889339,1.046288 A 1.8588579,1.8588579 0 0 0 1.06102,2.905097 1.8588579,1.8588579 0 0 0 2.919828,4.763905 1.8588579,1.8588579 0 0 0 4.778637,2.905097 1.8588579,1.8588579 0 0 0 2.919828,1.046288 a 1.8588579,1.8588579 0 0 0 -0.03049,0 z m 0.03049,0.27802 A 1.580739,1.580739 0 0 1 4.500618,2.905097 1.580739,1.580739 0 0 1 2.919829,4.485885 1.580739,1.580739 0 0 1 1.339041,2.905097 1.580739,1.580739 0 0 1 2.919829,1.324308 Z" />
    <rect
       style="fill:#ffffff;fill-opacity:1;stroke-width:1.08821;stroke-linecap:round"
       id="rect938"
       width="1.0395318"
       height="1.0448385"
       x="2.4000616"
       y="2.3961439"
       ry="0.25108466" />
  </g>
  <g
     id="media-playback-playing"
     transform="translate(-6.5984899)">
    <rect
       transform="rotate(90)"
       ry="1.6977496"
       y="-5.8208528"
       x="9.7369387e-08"
       height="5.8208561"
       width="5.8208561"
       id="rect886"
       style="opacity:0.00100002;fill:#242424;fill-opacity:1;stroke-width:0.124732;stroke-linecap:round" />
    <rect
       transform="rotate(90)"
       ry="1.6205792"
       y="-5.6885605"
       x="0.13229209"
       height="5.556272"
       width="5.556272"
       id="rect924"
       style="opacity:0.8;fill:#242424;fill-opacity:1;stroke-width:0.119062;stroke-linecap:round" />
    <path
       d="m 2.8732183,1.0449024 a 1.8588579,1.8588579 0 0 0 -1.8283192,1.858809 1.8588579,1.8588579 0 0 0 1.8588082,1.858808 1.8588579,1.8588579 0 0 0 1.858809,-1.858808 1.8588579,1.8588579 0 0 0 -1.858809,-1.858809 1.8588579,1.8588579 0 0 0 -0.03049,0 z m 0.03049,0.27802 a 1.580739,1.580739 0 0 1 1.580789,1.580789 1.580739,1.580739 0 0 1 -1.580789,1.580788 1.580739,1.580739 0 0 1 -1.5807879,-1.580788 1.580739,1.580739 0 0 1 1.5807879,-1.580789 z"
       style="fill:#ffffff;fill-opacity:1;stroke-width:0.67595;stroke-linecap:round"
       id="path926" />
    <path
       id="rect1058"
       style="fill:#ffffff;fill-opacity:1;stroke-width:0.529169;stroke-linecap:round"
       d="m 2.5213006,2.1194377 c -0.03989,0.005 -0.073036,0.022183 -0.099736,0.052194 -0.02671,0.03 -0.040308,0.065197 -0.040308,0.1054202 v 1.2691782 c 0,0.04022 0.013608,0.075934 0.040308,0.1059372 0.0267,0.03 0.059846,0.047243 0.099736,0.052193 0.03989,0.005 0.075741,-0.00405 0.1090376,-0.026872 L 3.5512163,3.0428991 c 0.02935,-0.02011 0.04978,-0.047315 0.06098,-0.080615 0.01121,-0.03363 0.01121,-0.066955 0,-0.1002526 -0.01121,-0.0333 -0.03145,-0.060693 -0.06046,-0.081133 L 2.6303382,2.1463094 c -0.03319,-0.02308 -0.069261,-0.031932 -0.1090376,-0.026872 z" />
  </g>
</svg>
