<?xml version="1.0" encoding="UTF-8" standalone="no"?>
<svg
   xmlns:dc="http://purl.org/dc/elements/1.1/"
   xmlns:cc="http://creativecommons.org/ns#"
   xmlns:rdf="http://www.w3.org/1999/02/22-rdf-syntax-ns#"
   xmlns:svg="http://www.w3.org/2000/svg"
   xmlns="http://www.w3.org/2000/svg"
   xmlns:sodipodi="http://sodipodi.sourceforge.net/DTD/sodipodi-0.dtd"
   xmlns:inkscape="http://www.inkscape.org/namespaces/inkscape"
   viewBox="0 0 22 22"
   version="1.1"
   id="svg"
   sodipodi:docname="video.svg"
   inkscape:version="1.0.2 (e86c870879, 2021-01-15)">
  <sodipodi:namedview
     pagecolor="#ffffff"
     bordercolor="#666666"
     borderopacity="1"
     objecttolerance="10"
     gridtolerance="10"
     guidetolerance="10"
     inkscape:pageopacity="0"
     inkscape:pageshadow="2"
     inkscape:window-width="1920"
     inkscape:window-height="998"
     id="namedview30"
     showgrid="true"
     inkscape:snap-bbox="true"
     inkscape:bbox-nodes="true"
     inkscape:snap-bbox-edge-midpoints="true"
     inkscape:snap-smooth-nodes="true"
     inkscape:zoom="5.6568542"
     inkscape:cx="-0.8748271"
     inkscape:cy="6.3013295"
     inkscape:window-x="0"
     inkscape:window-y="0"
     inkscape:window-maximized="1"
     inkscape:current-layer="svg">
    <inkscape:grid
       type="xygrid"
       id="grid855" />
  </sodipodi:namedview>
  <metadata
     id="metadata54">
    <rdf:RDF>
      <cc:Work
         rdf:about="">
        <dc:format>image/svg+xml</dc:format>
        <dc:type
           rdf:resource="http://purl.org/dc/dcmitype/StillImage" />
        <dc:title />
      </cc:Work>
    </rdf:RDF>
  </metadata>
  <defs
     id="defs3">
    <style
       type="text/css"
       id="current-color-scheme">.ColorScheme-Text { color:#363636; }</style>
  </defs>
  <g
     id="22-22-video-display-brightness"
     transform="translate(-40)">
    <rect
       style="opacity:0.8;fill:#242424;fill-opacity:1;stroke-width:0.471428;stroke-linecap:round"
       id="rect1027"
       width="22"
       height="22"
       x="0"
       y="-62"
       ry="6.4166665"
       transform="rotate(90)" />
    <path
       id="path857"
       style="fill:#ffffff;fill-opacity:1;stroke:none;stroke-width:2.5;stroke-linecap:round;stroke-miterlimit:4;stroke-dasharray:none;stroke-opacity:1;paint-order:stroke fill markers"
       d="m 51,6 a 5,5 0 0 0 -5,5 5,5 0 0 0 5,5 5,5 0 0 0 5,-5 5,5 0 0 0 -5,-5 z m -0.06055,1 A 4,4 0 0 1 51,7 a 4,4 0 0 1 4,4 4,4 0 0 1 -4,4 4,4 0 0 1 -4,-4 4,4 0 0 1 3.939453,-4 z" />
    <circle
       style="fill:#ffffff;fill-opacity:1;stroke-linecap:round;paint-order:stroke fill markers"
       id="path884"
       cx="51"
       cy="4"
       r="1" />
    <path
       style="fill:#ffffff;fill-opacity:1;stroke:none;stroke-width:2.05401;stroke-linecap:round;stroke-miterlimit:4;stroke-dasharray:none;stroke-opacity:1;paint-order:stroke fill markers"
       id="path889"
       sodipodi:type="arc"
       sodipodi:cx="51"
       sodipodi:cy="11.061537"
       sodipodi:rx="3"
       sodipodi:ry="3"
       sodipodi:start="1.5707963"
       sodipodi:end="4.712389"
       sodipodi:open="true"
       sodipodi:arc-type="arc"
       d="m 51,14.061537 a 3,3 0 0 1 -2.598076,-1.5 3,3 0 0 1 0,-3.0000002 3,3 0 0 1 2.598076,-1.5" />
    <circle
       style="fill:#ffffff;fill-opacity:1;stroke-linecap:round;paint-order:stroke fill markers"
       id="circle891"
       cx="51"
       cy="18"
       r="1" />
    <circle
       style="fill:#ffffff;fill-opacity:1;stroke-linecap:round;paint-order:stroke fill markers"
       id="circle918"
       cx="43.840622"
       cy="-35.284271"
       r="1"
       transform="rotate(45)" />
    <circle
       style="fill:#ffffff;fill-opacity:1;stroke-linecap:round;paint-order:stroke fill markers"
       id="circle920"
       cx="43.840622"
       cy="-21.284271"
       r="1"
       transform="rotate(45)" />
    <circle
       style="fill:#ffffff;fill-opacity:1;stroke-linecap:round;paint-order:stroke fill markers"
       id="circle922"
       cx="11.000001"
       cy="-58"
       r="1"
       transform="rotate(90)" />
    <circle
       style="fill:#ffffff;fill-opacity:1;stroke-linecap:round;paint-order:stroke fill markers"
       id="circle924"
       cx="11.000001"
       cy="-44"
       r="1"
       transform="rotate(90)" />
    <circle
       style="fill:#ffffff;fill-opacity:1;stroke-linecap:round;paint-order:stroke fill markers"
       id="circle926"
       cx="-28.284271"
       cy="-50.840622"
       r="1"
       transform="rotate(135)" />
    <circle
       style="fill:#ffffff;fill-opacity:1;stroke-linecap:round;paint-order:stroke fill markers"
       id="circle928"
       cx="-28.284271"
       cy="-36.840622"
       r="1"
       transform="rotate(135)" />
  </g>
  <g
     id="video-display-brightness">
    <rect
       id="rect26"
       opacity="0"
       height="32"
       width="32"
       y="-32"
       x="-5"
       style="color:#363636;fill:#363636" />
    <g
       id="g965"
       transform="translate(-47,4)">
      <path
         id="path930"
         style="fill:#323232;fill-opacity:1;stroke:none;stroke-width:3.33334;stroke-linecap:round;stroke-miterlimit:4;stroke-dasharray:none;stroke-opacity:1;paint-order:stroke fill markers"
         d="M 57.980469,-30 A 10,10 0 0 0 48,-20 a 10,10 0 0 0 10,10 10,10 0 0 0 10,-10 10,10 0 0 0 -10,-10 10,10 0 0 0 -0.01953,0 z M 58,-28 a 8,8 0 0 1 8,8 8,8 0 0 1 -8,8 8,8 0 0 1 -8,-8 8,8 0 0 1 8,-8 z" />
      <path
         style="fill:#323232;fill-opacity:1;stroke:none;stroke-width:2;stroke-linecap:round;stroke-miterlimit:4;stroke-dasharray:none;stroke-opacity:1;paint-order:stroke fill markers"
         id="circle937"
         sodipodi:type="arc"
         sodipodi:cx="58"
         sodipodi:cy="-20"
         sodipodi:rx="6"
         sodipodi:ry="6"
         sodipodi:start="1.5707963"
         sodipodi:end="4.712389"
         sodipodi:open="true"
         sodipodi:arc-type="arc"
         d="m 58,-14 a 6,6 0 0 1 -5.196152,-3 6,6 0 0 1 0,-6 A 6,6 0 0 1 58,-26" />
      <circle
         style="fill:#323232;fill-opacity:1;stroke:none;stroke-width:4;stroke-linecap:round;stroke-miterlimit:4;stroke-dasharray:none;stroke-opacity:1;paint-order:stroke fill markers"
         id="path939"
         cx="58"
         cy="-34"
         r="2" />
      <circle
         style="fill:#323232;fill-opacity:1;stroke:none;stroke-width:4;stroke-linecap:round;stroke-miterlimit:4;stroke-dasharray:none;stroke-opacity:1;paint-order:stroke fill markers"
         id="circle941"
         cx="58"
         cy="-6"
         r="2" />
      <circle
         style="fill:#323232;fill-opacity:1;stroke:none;stroke-width:4;stroke-linecap:round;stroke-miterlimit:4;stroke-dasharray:none;stroke-opacity:1;paint-order:stroke fill markers"
         id="circle943"
         cx="26.870058"
         cy="-69.154327"
         r="2"
         transform="rotate(45)" />
      <circle
         style="fill:#323232;fill-opacity:1;stroke:none;stroke-width:4;stroke-linecap:round;stroke-miterlimit:4;stroke-dasharray:none;stroke-opacity:1;paint-order:stroke fill markers"
         id="circle945"
         cx="26.870058"
         cy="-41.154327"
         r="2"
         transform="rotate(45)" />
      <circle
         style="fill:#323232;fill-opacity:1;stroke:none;stroke-width:4;stroke-linecap:round;stroke-miterlimit:4;stroke-dasharray:none;stroke-opacity:1;paint-order:stroke fill markers"
         id="circle947"
         cx="-19.999998"
         cy="-72"
         r="2"
         transform="rotate(90)" />
      <circle
         style="fill:#323232;fill-opacity:1;stroke:none;stroke-width:4;stroke-linecap:round;stroke-miterlimit:4;stroke-dasharray:none;stroke-opacity:1;paint-order:stroke fill markers"
         id="circle949"
         cx="-19.999998"
         cy="-44"
         r="2"
         transform="rotate(90)" />
      <circle
         style="fill:#323232;fill-opacity:1;stroke:none;stroke-width:4;stroke-linecap:round;stroke-miterlimit:4;stroke-dasharray:none;stroke-opacity:1;paint-order:stroke fill markers"
         id="circle951"
         cx="-55.154327"
         cy="-40.87006"
         r="2"
         transform="rotate(135)" />
      <circle
         style="fill:#323232;fill-opacity:1;stroke:none;stroke-width:4;stroke-linecap:round;stroke-miterlimit:4;stroke-dasharray:none;stroke-opacity:1;paint-order:stroke fill markers"
         id="circle953"
         cx="-55.154327"
         cy="-12.870059"
         r="2"
         transform="rotate(135)" />
    </g>
  </g>
</svg>
