<?xml version="1.0" encoding="UTF-8" standalone="no"?>
<svg
   xmlns:dc="http://purl.org/dc/elements/1.1/"
   xmlns:cc="http://creativecommons.org/ns#"
   xmlns:rdf="http://www.w3.org/1999/02/22-rdf-syntax-ns#"
   xmlns:svg="http://www.w3.org/2000/svg"
   xmlns="http://www.w3.org/2000/svg"
   xmlns:sodipodi="http://sodipodi.sourceforge.net/DTD/sodipodi-0.dtd"
   xmlns:inkscape="http://www.inkscape.org/namespaces/inkscape"
   inkscape:version="1.0rc1 (09960d6, 2020-04-09)"
   sodipodi:docname="keyboard.svg"
   viewBox="0 0 128 128"
   id="svg2"
   height="128"
   width="128"
   version="1.1">
  <sodipodi:namedview
     fit-margin-bottom="0"
     fit-margin-right="0"
     fit-margin-left="0"
     fit-margin-top="0"
     inkscape:current-layer="svg2"
     inkscape:cy="28.987245"
     inkscape:cx="-23.437069"
     inkscape:zoom="2.7110984"
     showgrid="false"
     id="namedview12"
     inkscape:window-height="480"
     inkscape:window-width="640"
     inkscape:pageshadow="2"
     inkscape:pageopacity="0"
     guidetolerance="10"
     gridtolerance="10"
     objecttolerance="10"
     borderopacity="1"
     bordercolor="#666666"
     pagecolor="#ffffff"
     inkscape:document-rotation="0" />
  <defs
     id="defs4">
    <style
       id="current-color-scheme"
       type="text/css">
      .ColorScheme-Text {
        color:#31363b;
      }
      .ColorScheme-Background {
        color:#eff0f1;
      }
      .ColorScheme-Highlight {
        color:#3daee9;
      }
      .ColorScheme-ViewText {
        color:#31363b;
      }
      .ColorScheme-ViewBackground {
        color:#fcfcfc;
      }
      .ColorScheme-ViewHover {
        color:#93cee9;
      }
      .ColorScheme-ViewFocus{
        color:#3daee9;
      }
      .ColorScheme-ButtonText {
        color:#31363b;
      }
      .ColorScheme-ButtonBackground {
        color:#eff0f1;
      }
      .ColorScheme-ButtonHover {
        color:#93cee9;
      }
      .ColorScheme-ButtonFocus{
        color:#3daee9;
      }
      </style>
  </defs>
  <metadata
     id="metadata7">
    <rdf:RDF>
      <cc:Work
         rdf:about="">
        <dc:format>image/svg+xml</dc:format>
        <dc:type
           rdf:resource="http://purl.org/dc/dcmitype/StillImage" />
        <dc:title></dc:title>
      </cc:Work>
    </rdf:RDF>
  </metadata>
  <g
     transform="matrix(5.8181818,0,0,5.8181818,89.06104,99.692989)"
     id="keyboard-layout">
    <rect
       style="fill:none;fill-rule:evenodd;stroke:none;stroke-width:1px;stroke-linecap:butt;stroke-linejoin:miter;stroke-opacity:1"
       id="rect4215"
       width="22"
       height="22"
       x="0"
       y="0" />
  </g>
  <g
     id="system-switch-user"
     transform="matrix(4,0,0,4,-328,0)">
    <rect
       y="7.4606987e-14"
       x="82"
       height="32"
       width="32"
       id="rect3192-3"
       style="fill:none;fill-opacity:1;stroke:none;stroke-width:0.6;stroke-linecap:round;stroke-miterlimit:4;stroke-dasharray:none;stroke-opacity:1" />
    <g
       transform="translate(-59.562592)"
       id="g1610">
      <circle
         r="15"
         cy="16"
         cx="157.56259"
         id="circle1456"
         style="opacity:0.3;fill:#ffffff;fill-opacity:1;stroke-width:2.71072;stroke-linecap:round" />
      <g
         id="g1604"
         transform="matrix(0.92038158,0,0,0.92038158,-58.010692,0.35361474)" />
    </g>
  </g>
  <path
     style="fill:#ffffff;fill-opacity:1;stroke-width:0.125426"
     inkscape:connector-curvature="0"
     d="M 96.108057,90.861173 H 35.903886 c -3.325026,0 -6.020417,-2.69539 -6.020417,-6.020417 V 48.71825 c 0,-3.325026 2.695391,-6.020415 6.020417,-6.020415 h 60.204171 c 3.325031,0 6.020423,2.695389 6.020423,6.020415 v 36.122506 c 0,3.325027 -2.695392,6.020417 -6.020423,6.020417 z M 45.937915,57.247175 V 52.23016 c 0,-0.831193 -0.67391,-1.505104 -1.505103,-1.505104 h -5.017016 c -0.831193,0 -1.505104,0.673911 -1.505104,1.505104 v 5.017015 c 0,0.831194 0.673911,1.505105 1.505104,1.505105 h 5.017016 c 0.831193,0 1.505103,-0.673911 1.505103,-1.505105 z m 12.040836,0 V 52.23016 c 0,-0.831193 -0.673911,-1.505104 -1.505105,-1.505104 h -5.017015 c -0.831194,0 -1.505105,0.673911 -1.505105,1.505104 v 5.017015 c 0,0.831194 0.673911,1.505105 1.505105,1.505105 h 5.017015 c 0.831194,0 1.505105,-0.673911 1.505105,-1.505105 z m 12.040835,0 V 52.23016 c 0,-0.831193 -0.67391,-1.505104 -1.505104,-1.505104 h -5.017016 c -0.831193,0 -1.505104,0.673911 -1.505104,1.505104 v 5.017015 c 0,0.831194 0.673911,1.505105 1.505104,1.505105 h 5.017016 c 0.831194,0 1.505104,-0.673911 1.505104,-1.505105 z m 12.040835,0 V 52.23016 c 0,-0.831193 -0.673911,-1.505104 -1.505105,-1.505104 h -5.017014 c -0.831194,0 -1.505105,0.673911 -1.505105,1.505104 v 5.017015 c 0,0.831194 0.673911,1.505105 1.505105,1.505105 h 5.017014 c 0.831194,0 1.505105,-0.673911 1.505105,-1.505105 z m 12.040832,0 V 52.23016 c 0,-0.831193 -0.673908,-1.505104 -1.505099,-1.505104 h -5.017018 c -0.831193,0 -1.505104,0.673911 -1.505104,1.505104 v 5.017015 c 0,0.831194 0.673911,1.505105 1.505104,1.505105 h 5.017018 c 0.831191,0 1.505099,-0.673911 1.505099,-1.505105 z M 51.958332,69.288011 v -5.017016 c 0,-0.831194 -0.673909,-1.505104 -1.505103,-1.505104 h -5.017015 c -0.831194,0 -1.505105,0.67391 -1.505105,1.505104 v 5.017016 c 0,0.831192 0.673911,1.505103 1.505105,1.505103 h 5.017015 c 0.831194,0 1.505103,-0.673911 1.505103,-1.505103 z m 12.040836,0 v -5.017016 c 0,-0.831194 -0.673911,-1.505104 -1.505103,-1.505104 h -5.017016 c -0.831194,0 -1.505104,0.67391 -1.505104,1.505104 v 5.017016 c 0,0.831192 0.67391,1.505103 1.505104,1.505103 h 5.017016 c 0.831192,0 1.505103,-0.673911 1.505103,-1.505103 z m 12.040834,0 v -5.017016 c 0,-0.831194 -0.67391,-1.505104 -1.505103,-1.505104 h -5.017014 c -0.831195,0 -1.505106,0.67391 -1.505106,1.505104 v 5.017016 c 0,0.831192 0.673911,1.505103 1.505106,1.505103 h 5.017014 c 0.831193,0 1.505103,-0.673911 1.505103,-1.505103 z m 12.040836,0 v -5.017016 c 0,-0.831194 -0.673911,-1.505104 -1.505105,-1.505104 h -5.017014 c -0.831195,0 -1.505104,0.67391 -1.505104,1.505104 v 5.017016 c 0,0.831192 0.673909,1.505103 1.505104,1.505103 h 5.017014 c 0.831194,0 1.505105,-0.673911 1.505105,-1.505103 z M 45.937915,81.328845 v -5.017014 c 0,-0.831195 -0.67391,-1.505105 -1.505103,-1.505105 h -5.017016 c -0.831193,0 -1.505104,0.67391 -1.505104,1.505105 v 5.017014 c 0,0.831194 0.673911,1.505105 1.505104,1.505105 h 5.017016 c 0.831193,0 1.505103,-0.673911 1.505103,-1.505105 z m 36.122506,0 v -5.017014 c 0,-0.831195 -0.673911,-1.505105 -1.505105,-1.505105 H 51.456631 c -0.831194,0 -1.505105,0.67391 -1.505105,1.505105 v 5.017014 c 0,0.831194 0.673911,1.505105 1.505105,1.505105 h 29.098685 c 0.831194,0 1.505105,-0.673911 1.505105,-1.505105 z m 12.040832,0 v -5.017014 c 0,-0.831195 -0.673908,-1.505105 -1.505099,-1.505105 h -5.017018 c -0.831193,0 -1.505104,0.67391 -1.505104,1.505105 v 5.017014 c 0,0.831194 0.673911,1.505105 1.505104,1.505105 h 5.017018 c 0.831191,0 1.505099,-0.673911 1.505099,-1.505105 z"
     class=""
     id="path2" />
</svg>
