<?xml version="1.0" encoding="UTF-8" standalone="no"?>
<svg
   xmlns:dc="http://purl.org/dc/elements/1.1/"
   xmlns:cc="http://creativecommons.org/ns#"
   xmlns:rdf="http://www.w3.org/1999/02/22-rdf-syntax-ns#"
   xmlns:svg="http://www.w3.org/2000/svg"
   xmlns="http://www.w3.org/2000/svg"
   xmlns:sodipodi="http://sodipodi.sourceforge.net/DTD/sodipodi-0.dtd"
   xmlns:inkscape="http://www.inkscape.org/namespaces/inkscape"
   id="svg30"
   viewBox="0 0 22 22"
   version="1.1"
   sodipodi:docname="kdeconnect.svg"
   width="22"
   height="22"
   inkscape:version="1.0 (4035a4fb49, 2020-05-01)">
  <sodipodi:namedview
     inkscape:document-rotation="0"
     pagecolor="#00c42d"
     bordercolor="#666666"
     borderopacity="1"
     objecttolerance="10"
     gridtolerance="10"
     guidetolerance="10"
     inkscape:pageopacity="0"
     inkscape:pageshadow="2"
     inkscape:window-width="1920"
     inkscape:window-height="985"
     id="namedview20"
     showgrid="true"
     inkscape:snap-bbox="true"
     inkscape:bbox-nodes="true"
     inkscape:snap-bbox-edge-midpoints="true"
     inkscape:zoom="8"
     inkscape:cx="-12.309995"
     inkscape:cy="11.488581"
     inkscape:window-x="0"
     inkscape:window-y="0"
     inkscape:window-maximized="1"
     inkscape:current-layer="svg30">
    <inkscape:grid
       type="xygrid"
       id="grid845" />
  </sodipodi:namedview>
  <metadata
     id="metadata34">
    <rdf:RDF>
      <cc:Work
         rdf:about="">
        <dc:format>image/svg+xml</dc:format>
        <dc:type
           rdf:resource="http://purl.org/dc/dcmitype/StillImage" />
        <dc:title />
      </cc:Work>
    </rdf:RDF>
  </metadata>
  <defs
     id="defs3">
    <style
       type="text/css"
       id="current-color-scheme">.ColorScheme-Text { color:#363636; }</style>
  </defs>
  <g
     fill="currentColor"
     class="ColorScheme-Text"
     transform="translate(-353,-529.36)"
     id="16-16-kdeconnect">
    <path
       id="path5"
       d="m 308,539.36 c -0.554,0 -1,0.446 -1,1 v 10 c 0,0.554 0.446,1 1,1 h 1 v -2 h -1 v -7 h 6 v 1 h 1 v -3 c 0,-0.554 -0.446,-1 -1,-1 z m 2,1 h 2 v 1 h -2 z m 2.5,3 -0.27734,1.1074 a 3,3 0 0 0 -0.72071,0.29688 l -0.97656,-0.58594 -0.70703,0.70703 0.58594,0.97656 a 3,3 0 0 0 -0.30078,0.72266 l -1.1035,0.27539 v 1 l 1.1074,0.27734 a 3,3 0 0 0 0.29688,0.72071 l -0.58594,0.97656 0.70703,0.70703 0.97656,-0.58594 a 3,3 0 0 0 0.72266,0.30078 l 0.27539,1.1035 h 1 l 0.27734,-1.1074 a 3,3 0 0 0 0.72071,-0.29688 l 0.97656,0.58594 0.70703,-0.70703 -0.58594,-0.97656 a 3,3 0 0 0 0.30078,-0.72266 l 1.1035,-0.27539 v -1 l -1.1074,-0.27734 a 3,3 0 0 0 -0.29688,-0.72071 l 0.58594,-0.97656 -0.70703,-0.70703 -0.97656,0.58594 a 3,3 0 0 0 -0.72266,-0.30078 L 313.5,543.36 Z m 0.5,2 a 2,2 0 0 1 0.19922,0.01 2,2 0 0 1 0.19726,0.0293 2,2 0 0 1 0.19532,0.0508 2,2 0 0 1 0.1875,0.0684 2,2 0 0 1 0.17968,0.0859 2,2 0 0 1 0.16993,0.10547 2,2 0 0 1 0.16015,0.12109 2,2 0 0 1 0.14649,0.13672 2,2 0 0 1 0.13086,0.14844 2,2 0 0 1 0.11718,0.16406 2,2 0 0 1 0.0996,0.17383 2,2 0 0 1 0.0801,0.18164 2,2 0 0 1 0.0645,0.18945 2,2 0 0 1 0.043,0.19531 2,2 0 0 1 0.0234,0.19922 2,2 0 0 1 0.006,0.14059 2,2 0 0 1 -0.01,0.19922 2,2 0 0 1 -0.0293,0.19726 2,2 0 0 1 -0.0508,0.19532 2,2 0 0 1 -0.0684,0.1875 2,2 0 0 1 -0.0859,0.17968 2,2 0 0 1 -0.10547,0.16993 2,2 0 0 1 -0.1211,0.16015 2,2 0 0 1 -0.13672,0.14649 2,2 0 0 1 -0.14843,0.13086 2,2 0 0 1 -0.16407,0.11718 2,2 0 0 1 -0.17382,0.0996 2,2 0 0 1 -0.18164,0.0801 2,2 0 0 1 -0.18946,0.0644 2,2 0 0 1 -0.19531,0.043 2,2 0 0 1 -0.19922,0.0234 2,2 0 0 1 -0.084,0.01 h -0.13672 a 2,2 0 0 1 -0.11914,-0.01 2,2 0 0 1 -0.19727,-0.0293 2,2 0 0 1 -0.19531,-0.0508 2,2 0 0 1 -0.1875,-0.0684 2,2 0 0 1 -0.17969,-0.0859 2,2 0 0 1 -0.16992,-0.10546 2,2 0 0 1 -0.16016,-0.1211 2,2 0 0 1 -0.0879,-0.082 l -0.0879,-0.0879 a 2,2 0 0 1 -0.10156,-0.11523 2,2 0 0 1 -0.11719,-0.16407 2,2 0 0 1 -0.0996,-0.17382 2,2 0 0 1 -0.0801,-0.18164 2,2 0 0 1 -0.0645,-0.18946 2,2 0 0 1 -0.043,-0.19531 2,2 0 0 1 -0.0234,-0.19922 2,2 0 0 1 -0.006,-0.14062 2,2 0 0 1 0.01,-0.19922 2,2 0 0 1 0.0293,-0.19727 2,2 0 0 1 0.0508,-0.19531 2,2 0 0 1 0.0684,-0.1875 2,2 0 0 1 0.0859,-0.17969 2,2 0 0 1 0.10547,-0.16992 2,2 0 0 1 0.1211,-0.16016 2,2 0 0 1 0.13672,-0.14648 2,2 0 0 1 0.14843,-0.13086 2,2 0 0 1 0.16407,-0.11719 2,2 0 0 1 0.17382,-0.0996 2,2 0 0 1 0.18164,-0.0801 2,2 0 0 1 0.18946,-0.0644 2,2 0 0 1 0.19531,-0.043 2,2 0 0 1 0.19922,-0.0234 2,2 0 0 1 0.14062,-0.01 z"
       fill="currentColor"
       class="ColorScheme-Text" />
    <rect
       id="rect7"
       fill="none"
       height="16"
       width="16"
       y="537.35999"
       x="303" />
  </g>
  <g
     fill="currentColor"
     class="ColorScheme-Text"
     transform="translate(-353,-529.36)"
     id="kdeconnect">
    <path
       id="path21"
       fill="currentColor"
       d="M 11,2 C 9.338,2 8,3.338 8,5 v 22 c 0,1.662 1.338,3 3,3 h 10 c 1.662,0 3,-1.338 3,-3 V 5 C 24,3.338 22.662,2 21,2 Z m 0,2 h 1.4922 l 0.49023,0.65234 C 13.09835,4.80615 13.13748,5 13.33009,5 h 5.3398 C 18.8625,5 18.90163,4.80615 19.01755,4.65234 L 19.50778,4 h 1.4922 c 0.55399,0 1,0.44601 1,1 v 22 c 0,0.55399 -0.44601,1 -1,1 h -10 c -0.55399,0 -1,-0.44601 -1,-1 V 5 c 0,-0.55399 0.44601,-1 1,-1 z"
       transform="translate(321,529.36)"
       class="ColorScheme-Text" />
    <rect
       id="rect23"
       fill="none"
       height="32"
       width="32"
       y="529.35999"
       x="321" />
    <rect
       id="rect25"
       opacity="0.5"
       ry="0.5"
       height="1"
       width="8"
       y="555.35999"
       x="333" />
    <path
       id="path27"
       fill="currentColor"
       d="m 336.5,541.36 -0.27734,1.1074 c -0.25213,0.0672 -0.49441,0.167 -0.72071,0.29688 l -0.97656,-0.58594 -0.70703,0.70703 0.58594,0.97656 c -0.13139,0.22672 -0.23251,0.46967 -0.30078,0.72266 l -1.1035,0.27539 v 1 l 1.1074,0.27734 c 0.0672,0.25213 0.167,0.49441 0.29688,0.72071 l -0.58594,0.97656 0.70703,0.70703 0.97656,-0.58594 c 0.22672,0.13139 0.46967,0.23251 0.72266,0.30078 l 0.27539,1.1035 h 1 l 0.27734,-1.1074 c 0.25213,-0.0672 0.49441,-0.167 0.72071,-0.29688 l 0.97656,0.58594 0.70703,-0.70703 -0.58594,-0.97656 c 0.13139,-0.22672 0.23251,-0.46967 0.30078,-0.72266 l 1.1035,-0.27539 v -1 l -1.1074,-0.27734 c -0.0672,-0.25213 -0.167,-0.49441 -0.29688,-0.72071 l 0.58594,-0.97656 -0.70703,-0.70703 -0.97656,0.58594 c -0.22672,-0.13139 -0.46967,-0.23251 -0.72266,-0.30078 L 337.5,541.36 Z m 0.5,2 c 0.0665,2e-5 0.13302,0.003 0.19922,0.01 0.0662,0.006 0.13203,0.0163 0.19726,0.0293 0.0659,0.0136 0.13111,0.0306 0.19532,0.0508 0.0636,0.0197 0.12618,0.0425 0.1875,0.0684 0.0613,0.0256 0.12125,0.0543 0.17968,0.0859 0.0584,0.0323 0.11508,0.0675 0.16993,0.10547 0.0554,0.0377 0.10883,0.0781 0.16015,0.12109 0.0511,0.0431 0.1,0.0887 0.14649,0.13672 0.046,0.0473 0.0897,0.0968 0.13086,0.14844 0.0418,0.0527 0.0809,0.10744 0.11718,0.16406 0.0361,0.0562 0.0693,0.11426 0.0996,0.17383 0.0297,0.0592 0.0564,0.1198 0.0801,0.18164 0.0247,0.062 0.0462,0.12526 0.0645,0.18945 0.0176,0.0643 0.0319,0.12954 0.043,0.19532 0.0111,0.066 0.0189,0.13246 0.0234,0.19921 0.004,0.0468 0.006,0.0937 0.006,0.14059 -2e-5,0.0665 -0.003,0.13302 -0.01,0.19922 -0.006,0.0662 -0.0163,0.13203 -0.0293,0.19726 -0.0136,0.0659 -0.0306,0.13111 -0.0508,0.19532 -0.0197,0.0636 -0.0425,0.12618 -0.0684,0.1875 -0.0256,0.0613 -0.0543,0.12125 -0.0859,0.17968 -0.0323,0.0584 -0.0675,0.11508 -0.10547,0.16993 -0.0377,0.0554 -0.0781,0.10883 -0.1211,0.16015 -0.0431,0.0511 -0.0887,0.1 -0.13672,0.14649 -0.0473,0.046 -0.0968,0.0897 -0.14843,0.13086 -0.0527,0.0418 -0.10744,0.0809 -0.16407,0.11718 -0.0562,0.0361 -0.11425,0.0693 -0.17382,0.0996 -0.0592,0.0297 -0.1198,0.0564 -0.18164,0.0801 -0.062,0.0246 -0.12527,0.0461 -0.18946,0.0644 -0.0643,0.0176 -0.12953,0.0319 -0.19531,0.043 -0.066,0.0111 -0.13246,0.0189 -0.19922,0.0234 -0.0279,0.004 -0.0559,0.007 -0.084,0.01 h -0.13672 c -0.0398,-0.002 -0.0795,-0.005 -0.11914,-0.01 -0.0662,-0.006 -0.13204,-0.0163 -0.19727,-0.0293 -0.0659,-0.0136 -0.1311,-0.0306 -0.19531,-0.0508 -0.0636,-0.0197 -0.12618,-0.0425 -0.1875,-0.0684 -0.0613,-0.0256 -0.12126,-0.0543 -0.17969,-0.0859 -0.0584,-0.0323 -0.11507,-0.0675 -0.16992,-0.10546 -0.0554,-0.0377 -0.10883,-0.0781 -0.16016,-0.1211 -0.0301,-0.0265 -0.0594,-0.0538 -0.0879,-0.082 l -0.0879,-0.0879 c -0.0353,-0.0371 -0.0692,-0.0755 -0.10156,-0.11523 -0.0418,-0.0527 -0.0809,-0.10744 -0.11719,-0.16407 -0.0361,-0.0562 -0.0693,-0.11425 -0.0996,-0.17382 -0.0297,-0.0592 -0.0564,-0.1198 -0.0801,-0.18164 -0.0247,-0.062 -0.0462,-0.12527 -0.0645,-0.18946 -0.0176,-0.0643 -0.0319,-0.12953 -0.043,-0.19531 -0.0111,-0.066 -0.0189,-0.13246 -0.0234,-0.19922 -0.004,-0.0468 -0.006,-0.0937 -0.006,-0.14062 2e-5,-0.0665 0.003,-0.13302 0.01,-0.19922 0.006,-0.0662 0.0163,-0.13204 0.0293,-0.19727 0.0136,-0.0659 0.0306,-0.1311 0.0508,-0.19531 0.0197,-0.0636 0.0425,-0.12618 0.0684,-0.1875 0.0256,-0.0613 0.0543,-0.12126 0.0859,-0.17969 0.0323,-0.0584 0.0675,-0.11507 0.10547,-0.16992 0.0377,-0.0554 0.0781,-0.10883 0.1211,-0.16016 0.0431,-0.0511 0.0887,-0.1 0.13672,-0.14648 0.0473,-0.046 0.0968,-0.0897 0.14843,-0.13086 0.0527,-0.0418 0.10744,-0.0809 0.16407,-0.11719 0.0562,-0.0361 0.11425,-0.0693 0.17382,-0.0996 0.0592,-0.0297 0.1198,-0.0564 0.18164,-0.0801 0.062,-0.0246 0.12527,-0.0462 0.18946,-0.0645 0.0643,-0.0176 0.12953,-0.0319 0.19531,-0.043 0.066,-0.0111 0.13246,-0.0189 0.19922,-0.0234 0.0467,-0.005 0.0936,-0.008 0.14062,-0.01 z"
       class="ColorScheme-Text" />
  </g>
  <g
     id="g937">
    <rect
       x="33"
       y="42.999996"
       width="6"
       height="0.99993998"
       ry="0.49996999"
       opacity="0.5"
       id="rect869"
       style="color:#363636;fill:#363636" />
    <path
       class="ColorScheme-Text"
       d="m 35.5,32.00001 -0.27734,1.1074 c -0.25213,0.0672 -0.49441,0.167 -0.72071,0.29688 l -0.97656,-0.58594 -0.70703,0.70703 0.58594,0.97656 c -0.13139,0.22672 -0.23251,0.46967 -0.30078,0.72266 l -1.1035,0.27539 v 1 l 1.1074,0.27734 c 0.0672,0.25213 0.167,0.49441 0.29688,0.72071 l -0.58594,0.97656 0.70703,0.70703 0.97656,-0.58594 c 0.22672,0.13139 0.46967,0.23251 0.72266,0.30078 L 35.5,39.99997 h 1 l 0.27734,-1.1074 c 0.25213,-0.0672 0.49441,-0.167 0.72071,-0.29688 l 0.97656,0.58594 0.70703,-0.70703 -0.58594,-0.97656 c 0.13139,-0.22672 0.23251,-0.46967 0.30078,-0.72266 l 1.1035,-0.27539 v -1 l -1.1074,-0.27734 c -0.0672,-0.25213 -0.167,-0.49441 -0.29688,-0.72071 l 0.58594,-0.97656 -0.70703,-0.70703 -0.97656,0.58594 C 37.27133,33.2729 37.02838,33.17178 36.77539,33.10351 L 36.5,32.00001 Z m 0.5,2 c 0.0665,2e-5 0.13302,0.003 0.19922,0.01 0.0662,0.006 0.13203,0.0163 0.19726,0.0293 0.0659,0.0136 0.13111,0.0306 0.19532,0.0508 0.0636,0.0197 0.12618,0.0425 0.1875,0.0684 0.0613,0.0256 0.12125,0.0543 0.17968,0.0859 0.0584,0.0323 0.11508,0.0675 0.16993,0.10547 0.0554,0.0377 0.10883,0.0781 0.16015,0.12109 0.0511,0.0431 0.1,0.0887 0.14649,0.13672 0.046,0.0473 0.0897,0.0968 0.13086,0.14844 0.0418,0.0527 0.0809,0.10744 0.11718,0.16406 0.0361,0.0562 0.0693,0.11426 0.0996,0.17383 0.0297,0.0592 0.0564,0.1198 0.0801,0.18164 0.0247,0.062 0.0462,0.12526 0.0645,0.18945 0.0176,0.0643 0.0319,0.12954 0.043,0.19532 0.0111,0.066 0.0189,0.13246 0.0234,0.19921 0.004,0.0468 0.006,0.0937 0.006,0.14059 -2e-5,0.0665 -0.003,0.13302 -0.01,0.19922 -0.006,0.0662 -0.0163,0.13203 -0.0293,0.19726 -0.0136,0.0659 -0.0306,0.13111 -0.0508,0.19532 -0.0197,0.0636 -0.0425,0.12618 -0.0684,0.1875 -0.0256,0.0613 -0.0543,0.12125 -0.0859,0.17968 -0.0323,0.0584 -0.0675,0.11508 -0.10547,0.16993 -0.0377,0.0554 -0.0781,0.10883 -0.1211,0.16015 -0.0431,0.0511 -0.0887,0.1 -0.13672,0.14649 -0.0473,0.046 -0.0968,0.0897 -0.14843,0.13086 -0.0527,0.0418 -0.10744,0.0809 -0.16407,0.11718 -0.0562,0.0361 -0.11425,0.0693 -0.17382,0.0996 -0.0592,0.0297 -0.1198,0.0564 -0.18164,0.0801 -0.062,0.0246 -0.12527,0.0461 -0.18946,0.0644 -0.0643,0.0176 -0.12953,0.0319 -0.19531,0.043 -0.066,0.0111 -0.13246,0.0189 -0.19922,0.0234 -0.0279,0.004 -0.0559,0.007 -0.084,0.01 h -0.13672 c -0.0398,-0.002 -0.0795,-0.005 -0.11914,-0.01 -0.0662,-0.006 -0.13204,-0.0163 -0.19727,-0.0293 -0.0659,-0.0136 -0.1311,-0.0306 -0.19531,-0.0508 -0.0636,-0.0197 -0.12618,-0.0425 -0.1875,-0.0684 -0.0613,-0.0256 -0.12126,-0.0543 -0.17969,-0.0859 -0.0584,-0.0323 -0.11507,-0.0675 -0.16992,-0.10546 -0.0554,-0.0377 -0.10883,-0.0781 -0.16016,-0.1211 -0.0301,-0.0265 -0.0594,-0.0538 -0.0879,-0.082 l -0.0879,-0.0879 c -0.0353,-0.0371 -0.0692,-0.0755 -0.10156,-0.11523 -0.0418,-0.0527 -0.0809,-0.10744 -0.11719,-0.16407 -0.0361,-0.0562 -0.0693,-0.11425 -0.0996,-0.17382 -0.0297,-0.0592 -0.0564,-0.1198 -0.0801,-0.18164 -0.0247,-0.062 -0.0462,-0.12527 -0.0645,-0.18946 -0.0176,-0.0643 -0.0319,-0.12953 -0.043,-0.19531 -0.0111,-0.066 -0.0189,-0.13246 -0.0234,-0.19922 -0.004,-0.0468 -0.006,-0.0937 -0.006,-0.14062 2e-5,-0.0665 0.003,-0.13302 0.01,-0.19922 0.006,-0.0662 0.0163,-0.13204 0.0293,-0.19727 0.0136,-0.0659 0.0306,-0.1311 0.0508,-0.19531 0.0197,-0.0636 0.0425,-0.12618 0.0684,-0.1875 0.0256,-0.0613 0.0543,-0.12126 0.0859,-0.17969 0.0323,-0.0584 0.0675,-0.11507 0.10547,-0.16992 0.0377,-0.0554 0.0781,-0.10883 0.1211,-0.16016 0.0431,-0.0511 0.0887,-0.1 0.13672,-0.14648 0.0473,-0.046 0.0968,-0.0897 0.14843,-0.13086 0.0527,-0.0418 0.10744,-0.0809 0.16407,-0.11719 0.0562,-0.0361 0.11425,-0.0693 0.17382,-0.0996 0.0592,-0.0297 0.1198,-0.0564 0.18164,-0.0801 0.062,-0.0246 0.12527,-0.0462 0.18946,-0.0645 0.0643,-0.0176 0.12953,-0.0319 0.19531,-0.043 0.066,-0.0111 0.13246,-0.0189 0.19922,-0.0234 0.0467,-0.005 0.0936,-0.008 0.14062,-0.01 z"
       fill="currentColor"
       id="path871" />
    <rect
       x="33"
       y="25.999996"
       width="6"
       height="2"
       ry="1"
       id="rect873"
       style="color:#363636;fill:#363636" />
    <path
       d="m 32,25.00001 c -1.662,0 -3,1.338 -3,3 v 16 c 0,1.662 1.338,3 3,3 h 8 c 1.662,0 3,-1.338 3,-3 v -16 c 0,-1.662 -1.338,-3 -3,-3 z m 0,2 h 8 c 0.55399,0 1,0.44601 1,1 v 16 c 0,0.55399 -0.44601,1 -1,1 h -8 c -0.55399,0 -1,-0.44601 -1,-1 v -16 c 0,-0.55399 0.44601,-1 1,-1 z"
       id="path875"
       style="color:#363636;fill:#363636" />
  </g>
  <g
     id="22-22-kdeconnect">
    <rect
       style="opacity:0.8;fill:#242424;fill-opacity:1;stroke-width:0.471428;stroke-linecap:round"
       id="rect882"
       width="22"
       height="22"
       x="0"
       y="-22"
       ry="6.4166665"
       transform="rotate(90)" />
    <path
       d="M 8.1425781,4 C 6.9554353,4 6,4.955435 6,6.142578 V 16.857422 C 6,18.044565 6.9554353,19 8.1425781,19 H 13.857422 C 15.044565,19 16,18.044565 16,16.857422 V 6.142578 C 16,4.955435 15.044565,4 13.857422,4 Z M 8,5 h 6 c 0.554,0 1,0.446 1,1 v 11 c 0,0.554 -0.446,1 -1,1 H 8 C 7.446,18 7,17.554 7,17 V 6 C 7,5.446 7.446,5 8,5 Z"
       style="fill:#ffffff;fill-opacity:1;stroke-width:2.18218;stroke-linecap:round"
       id="rect891" />
    <rect
       style="color:#363636;fill:#ffffff;fill-opacity:1;stroke-width:0.913594"
       id="rect922"
       ry="1"
       height="2"
       width="5.007925"
       y="4"
       x="8.4960375" />
    <rect
       style="color:#363636;fill:#ffffff;fill-opacity:1;stroke-width:0.816497"
       id="rect924"
       opacity="0.5"
       ry="0.49996999"
       height="0.99993998"
       width="4"
       y="16.000061"
       x="9" />
    <path
       d="m 10.625,8 -0.207031,0.830078 c -0.189096,0.0504 -0.371292,0.125247 -0.5410159,0.222656 L 9.1445312,8.613281 8.6132812,9.144531 9.0527344,9.876953 C 8.9541924,10.046992 8.8793271,10.228228 8.828125,10.417969 L 8,10.625 v 0.75 l 0.8300781,0.207031 c 0.0504,0.189096 0.1252469,0.371292 0.2226563,0.541016 l -0.4394532,0.732422 0.53125,0.53125 0.7324219,-0.439453 c 0.1700389,0.09854 0.3512749,0.173406 0.5410159,0.224609 L 10.625,14 h 0.75 l 0.208984,-0.830078 c 0.189096,-0.0504 0.369339,-0.125247 0.539063,-0.222656 l 0.732422,0.439453 0.53125,-0.53125 -0.439453,-0.732422 c 0.09854,-0.170039 0.173406,-0.351275 0.224609,-0.541016 L 14,11.375 v -0.75 l -0.830078,-0.208984 c -0.0504,-0.189096 -0.125247,-0.369339 -0.222656,-0.539063 l 0.439453,-0.732422 -0.53125,-0.53125 -0.732422,0.439453 C 11.953008,8.954194 11.771772,8.879328 11.582031,8.828125 L 11.375,8 Z M 11,9.5 c 0.04988,1.5e-5 0.100737,0.0026 0.150391,0.0078 0.04965,0.0045 0.09756,0.01173 0.146484,0.02148 0.04943,0.0102 0.09833,0.02391 0.146484,0.03906 0.0477,0.01477 0.09463,0.03135 0.140625,0.05078 0.04598,0.0192 0.09095,0.04075 0.134766,0.06445 0.0438,0.02423 0.08777,0.04965 0.128906,0.07813 0.04155,0.02828 0.08065,0.05955 0.119141,0.0918 0.03832,0.03232 0.07451,0.06554 0.109375,0.101562 0.0345,0.03547 0.06874,0.0726 0.09961,0.111328 0.03135,0.03952 0.06068,0.08058 0.08789,0.123047 0.02707,0.04215 0.05149,0.08619 0.07422,0.130859 0.02227,0.0444 0.04278,0.09034 0.06055,0.136719 0.01852,0.0465 0.03314,0.09443 0.04687,0.142578 0.0132,0.04822 0.02487,0.09715 0.0332,0.146485 0.0083,0.0495 0.0142,0.09837 0.01758,0.148437 0.003,0.0351 0.0039,0.07031 0.0039,0.105469 -1.5e-5,0.04988 -0.0025,0.100737 -0.0078,0.150391 -0.0045,0.04965 -0.01175,0.09756 -0.02149,0.146484 -0.0102,0.04942 -0.02391,0.09833 -0.03906,0.146484 -0.01478,0.0477 -0.03136,0.09463 -0.05078,0.140625 -0.0192,0.04598 -0.04075,0.09095 -0.06445,0.134766 -0.02423,0.0438 -0.04966,0.08777 -0.07813,0.128906 -0.02828,0.04155 -0.05954,0.08065 -0.0918,0.119141 -0.03232,0.03832 -0.06554,0.07451 -0.101562,0.109375 -0.03548,0.0345 -0.07261,0.06874 -0.111328,0.09961 -0.03952,0.03135 -0.08058,0.06068 -0.123047,0.08789 -0.04215,0.02708 -0.08618,0.0515 -0.130859,0.07422 -0.0444,0.02227 -0.09034,0.04278 -0.136719,0.06055 -0.0465,0.01845 -0.09443,0.03315 -0.142578,0.04687 -0.04822,0.0132 -0.09715,0.02487 -0.146485,0.0332 -0.0495,0.0083 -0.09836,0.01421 -0.148437,0.01758 -0.02093,0.003 -0.04142,0.0055 -0.0625,0.0078 h -0.103516 c -0.02985,-0.0015 -0.06011,-0.004 -0.08984,-0.0078 -0.04965,-0.0045 -0.09756,-0.01174 -0.146484,-0.02148 -0.04943,-0.0102 -0.09832,-0.02391 -0.146484,-0.03906 -0.0477,-0.01478 -0.09463,-0.03135 -0.140625,-0.05078 -0.04597,-0.0192 -0.09094,-0.04075 -0.134766,-0.06445 -0.0438,-0.02423 -0.08777,-0.05161 -0.128906,-0.08008 -0.04155,-0.02828 -0.08064,-0.05759 -0.119141,-0.08984 -0.02257,-0.01987 -0.045031,-0.04135 -0.066406,-0.0625 l -0.066406,-0.06445 c -0.026475,-0.02782 -0.051902,-0.0581 -0.076172,-0.08789 -0.03135,-0.03952 -0.060674,-0.08057 -0.087891,-0.123047 -0.027075,-0.04215 -0.051494,-0.08423 -0.074219,-0.128906 -0.022275,-0.0444 -0.042772,-0.09034 -0.060547,-0.136719 -0.018525,-0.0465 -0.03315,-0.09443 -0.046875,-0.142578 -0.0132,-0.04823 -0.024878,-0.09715 -0.033203,-0.146485 -0.00832,-0.0495 -0.014203,-0.09836 -0.017578,-0.148437 -0.003,-0.0351 -0.00391,-0.07027 -0.00391,-0.105469 1.5e-5,-0.04988 0.00256,-0.100736 0.00781,-0.15039 0.0045,-0.04965 0.011734,-0.09952 0.021484,-0.148438 0.0102,-0.04942 0.023912,-0.09832 0.039063,-0.146484 0.014775,-0.0477 0.031356,-0.09463 0.050781,-0.140625 0.0192,-0.04597 0.040753,-0.09094 0.064453,-0.134766 0.024225,-0.0438 0.049648,-0.08581 0.078125,-0.126953 0.028275,-0.04155 0.059548,-0.08064 0.091797,-0.119141 0.032325,-0.03832 0.065548,-0.07647 0.1015625,-0.111328 0.035475,-0.0345 0.072608,-0.06679 0.1113275,-0.09766 0.03952,-0.03135 0.08058,-0.06067 0.123047,-0.08789 0.04215,-0.02707 0.08619,-0.05149 0.130859,-0.07422 0.0444,-0.02228 0.09034,-0.04277 0.136719,-0.06055 0.0465,-0.01845 0.09443,-0.03511 0.142578,-0.04883 0.04822,-0.0132 0.09715,-0.02292 0.146485,-0.03125 0.0495,-0.0083 0.09836,-0.0142 0.148437,-0.01758 0.03503,-0.0037 0.0702,-0.0063 0.105469,-0.0078 z"
       style="fill:#ffffff;fill-opacity:1;stroke-width:2;stroke-linecap:round"
       id="rect946" />
  </g>
</svg>
