<?xml version="1.0" encoding="UTF-8" standalone="no"?>
<svg
   xmlns:dc="http://purl.org/dc/elements/1.1/"
   xmlns:cc="http://creativecommons.org/ns#"
   xmlns:rdf="http://www.w3.org/1999/02/22-rdf-syntax-ns#"
   xmlns:svg="http://www.w3.org/2000/svg"
   xmlns="http://www.w3.org/2000/svg"
   xmlns:sodipodi="http://sodipodi.sourceforge.net/DTD/sodipodi-0.dtd"
   xmlns:inkscape="http://www.inkscape.org/namespaces/inkscape"
   id="svg17"
   viewBox="0 0 22 22"
   version="1.1"
   sodipodi:docname="keyboard.svg"
   width="22"
   height="22"
   inkscape:version="1.0 (4035a4fb49, 2020-05-01)">
  <sodipodi:namedview
     inkscape:document-rotation="0"
     pagecolor="#00bc3a"
     bordercolor="#666666"
     borderopacity="1"
     objecttolerance="10"
     gridtolerance="10"
     guidetolerance="10"
     inkscape:pageopacity="0"
     inkscape:pageshadow="2"
     inkscape:window-width="1920"
     inkscape:window-height="985"
     id="namedview12"
     showgrid="true"
     inkscape:snap-bbox="true"
     inkscape:bbox-nodes="true"
     inkscape:zoom="15.07185"
     inkscape:cx="14.299233"
     inkscape:cy="6.2126326"
     inkscape:window-x="0"
     inkscape:window-y="0"
     inkscape:window-maximized="1"
     inkscape:current-layer="svg17">
    <inkscape:grid
       type="xygrid"
       id="grid837" />
  </sodipodi:namedview>
  <metadata
     id="metadata19">
    <rdf:RDF>
      <cc:Work
         rdf:about="">
        <dc:format>image/svg+xml</dc:format>
        <dc:type
           rdf:resource="http://purl.org/dc/dcmitype/StillImage" />
        <dc:title />
      </cc:Work>
    </rdf:RDF>
  </metadata>
  <defs
     id="defs5">
    <style
       type="text/css"
       id="current-color-scheme"> .ColorScheme-Text { color:#363636; } </style>
  </defs>
  <g
     fill="currentColor"
     class="ColorScheme-Text"
     transform="translate(-16,-9.9999998)"
     id="keyboard-layout">
    <rect
       id="rect12"
       fill="none"
       height="32"
       width="32"
       y="-5.6171998e-06"
       x="38" />
    <path
       id="path14"
       d="m 43,7 c -1.662,0 -3,1.338 -3,3 v 12 c 0,1.662 1.338,3 3,3 h 22 c 1.662,0 3,-1.338 3,-3 V 10 C 68,8.338 66.662,7 65,7 Z m 0,2 h 22 c 0.554,0 1,0.446 1,1 v 12 c 0,0.554 -0.446,1 -1,1 H 43 c -0.554,0 -1,-0.446 -1,-1 V 10 c 0,-0.554 0.446,-1 1,-1 z m 0.5,2 c -0.277,0 -0.5,0.223 -0.5,0.5 0,0.277 0.223,0.5 0.5,0.5 h 21 C 64.777,12 65,11.777 65,11.5 65,11.223 64.777,11 64.5,11 Z m 0.5,2 c -0.554,0 -1,0.446 -1,1 0,0.554 0.446,1 1,1 h 0.86328 c 0.554,0 1,-0.446 1,-1 0,-0.554 -0.446,-1 -1,-1 z m 4,0 c -0.554,0 -1,0.446 -1,1 0,0.554 0.446,1 1,1 0.554,0 1,-0.446 1,-1 0,-0.554 -0.446,-1 -1,-1 z m 3,0 c -0.554,0 -1,0.446 -1,1 0,0.554 0.446,1 1,1 0.554,0 1,-0.446 1,-1 0,-0.554 -0.446,-1 -1,-1 z m 3,0 c -0.554,0 -1,0.446 -1,1 0,0.554 0.446,1 1,1 0.554,0 1,-0.446 1,-1 0,-0.554 -0.446,-1 -1,-1 z m 3,0 c -0.554,0 -1,0.446 -1,1 0,0.554 0.446,1 1,1 0.554,0 1,-0.446 1,-1 0,-0.554 -0.446,-1 -1,-1 z m 3,0 c -0.554,0 -1,0.446 -1,1 0,0.554 0.446,1 1,1 0.554,0 1,-0.446 1,-1 0,-0.554 -0.446,-1 -1,-1 z m 3,0 c -0.554,0 -1,0.446 -1,1 0,0.554 0.446,1 1,1 h 0.86328 c 0.554,0 1,-0.446 1,-1 0,-0.554 -0.446,-1 -1,-1 z m -19,3 c -0.554,0 -1,0.446 -1,1 0,0.554 0.446,1 1,1 0.554,0 1,-0.446 1,-1 0,-0.554 -0.446,-1 -1,-1 z m 3,0 c -0.554,0 -1,0.446 -1,1 0,0.554 0.446,1 1,1 0.554,0 1,-0.446 1,-1 0,-0.554 -0.446,-1 -1,-1 z m 3,0 c -0.554,0 -1,0.446 -1,1 0,0.554 0.446,1 1,1 0.554,0 1,-0.446 1,-1 0,-0.554 -0.446,-1 -1,-1 z m 3,0 c -0.554,0 -1,0.446 -1,1 0,0.554 0.446,1 1,1 0.554,0 1,-0.446 1,-1 0,-0.554 -0.446,-1 -1,-1 z m 3,0 c -0.554,0 -1,0.446 -1,1 0,0.554 0.446,1 1,1 0.554,0 1,-0.446 1,-1 0,-0.554 -0.446,-1 -1,-1 z m 3,0 c -0.554,0 -1,0.446 -1,1 0,0.554 0.446,1 1,1 0.554,0 1,-0.446 1,-1 0,-0.554 -0.446,-1 -1,-1 z m 3,0 c -0.554,0 -1,0.446 -1,1 0,0.554 0.446,1 1,1 h 2 c 0.554,0 1,-0.446 1,-1 0,-0.554 -0.446,-1 -1,-1 z m -18,3 c -0.554,0 -1,0.446 -1,1 0,0.554 0.446,1 1,1 h 0.86328 c 0.554,0 1,-0.446 1,-1 0,-0.554 -0.446,-1 -1,-1 z m 4,0 c -0.554,0 -1,0.446 -1,1 0,0.554 0.446,1 1,1 0.554,0 1,-0.446 1,-1 0,-0.554 -0.446,-1 -1,-1 z m 3.1367,0 c -0.554,0 -1,0.446 -1,1 0,0.554 0.446,1 1,1 H 57 c 0.554,0 1,-0.446 1,-1 0,-0.554 -0.446,-1 -1,-1 z M 60,19 c -0.554,0 -1,0.446 -1,1 0,0.554 0.446,1 1,1 0.554,0 1,-0.446 1,-1 0,-0.554 -0.446,-1 -1,-1 z m 3,0 c -0.554,0 -1,0.446 -1,1 0,0.554 0.446,1 1,1 h 0.86328 c 0.554,0 1,-0.446 1,-1 0,-0.554 -0.446,-1 -1,-1 z" />
  </g>
  <g
     id="22-22-keyboard-layout"
     transform="translate(28,57)">
    <rect
       transform="rotate(90)"
       ry="6.4166665"
       y="6"
       x="-57"
       height="22"
       width="22"
       id="rect1010"
       style="opacity:0.8;fill:#242424;fill-opacity:1;stroke-width:0.471427;stroke-linecap:round" />
    <g
       id="g1046"
       transform="translate(26,-6)">
      <path
         d="m -49,-45 c -1.108,0 -2,0.892 -2,2 v 7 c 0,1.108 0.892,2 2,2 h 12 c 1.108,0 2,-0.892 2,-2 v -7 c 0,-1.108 -0.892,-2 -2,-2 z m 0,1 h 12 c 0.554,0 1,0.446 1,1 v 7 c 0,0.554 -0.446,1 -1,1 h -12 c -0.554,0 -1,-0.446 -1,-1 v -7 c 0,-0.554 0.446,-1 1,-1 z"
         style="fill:#ffffff;stroke-width:0.3;stroke-linecap:round;fill-opacity:1"
         id="path1012"
         sodipodi:nodetypes="ssssssssssssssssss" />
      <rect
         style="fill:#ffffff;fill-opacity:1;stroke:none;stroke-width:2;stroke-linecap:round"
         id="rect1014"
         width="2"
         height="1"
         x="-49"
         y="-42"
         ry="0.5" />
      <rect
         ry="0.5"
         y="-42"
         x="-46"
         height="1"
         width="1"
         id="rect1016"
         style="fill:#ffffff;fill-opacity:1;stroke:none;stroke-width:1.41421;stroke-linecap:round" />
      <rect
         style="fill:#ffffff;fill-opacity:1;stroke:none;stroke-width:1.41421;stroke-linecap:round"
         id="rect1018"
         width="1"
         height="1"
         x="-44"
         y="-42"
         ry="0.5" />
      <rect
         ry="0.5"
         y="-42"
         x="-42"
         height="1"
         width="1"
         id="rect1020"
         style="fill:#ffffff;fill-opacity:1;stroke:none;stroke-width:1.41421;stroke-linecap:round" />
      <rect
         style="fill:#ffffff;fill-opacity:1;stroke:none;stroke-width:1.41421;stroke-linecap:round"
         id="rect1022"
         width="1"
         height="1"
         x="-40"
         y="-42"
         ry="0.5" />
      <rect
         ry="0.5"
         y="-42"
         x="-38"
         height="1"
         width="1"
         id="rect1024"
         style="fill:#ffffff;fill-opacity:1;stroke:none;stroke-width:1.41421;stroke-linecap:round" />
      <rect
         ry="0.5"
         y="-40"
         x="-49"
         height="1"
         width="1"
         id="rect1026"
         style="fill:#ffffff;fill-opacity:1;stroke:none;stroke-width:1.41421;stroke-linecap:round" />
      <rect
         style="fill:#ffffff;fill-opacity:1;stroke:none;stroke-width:1.41421;stroke-linecap:round"
         id="rect1028"
         width="1"
         height="1"
         x="-47"
         y="-40"
         ry="0.5" />
      <rect
         ry="0.5"
         y="-40"
         x="-45"
         height="1"
         width="1"
         id="rect1030"
         style="fill:#ffffff;fill-opacity:1;stroke:none;stroke-width:1.41421;stroke-linecap:round" />
      <rect
         style="fill:#ffffff;fill-opacity:1;stroke:none;stroke-width:1.41421;stroke-linecap:round"
         id="rect1032"
         width="1"
         height="1"
         x="-43"
         y="-40"
         ry="0.5" />
      <rect
         ry="0.5"
         y="-40"
         x="-41"
         height="1"
         width="1"
         id="rect1034"
         style="fill:#ffffff;fill-opacity:1;stroke:none;stroke-width:1.41421;stroke-linecap:round" />
      <rect
         style="fill:#ffffff;fill-opacity:1;stroke:none;stroke-width:1.99999;stroke-linecap:round"
         id="rect1036"
         width="2"
         height="1"
         x="-39"
         y="-40"
         ry="0.5" />
      <rect
         ry="0.5"
         y="-38"
         x="-49"
         height="1"
         width="2"
         id="rect1038"
         style="fill:#ffffff;fill-opacity:1;stroke:none;stroke-width:2;stroke-linecap:round" />
      <rect
         style="fill:#ffffff;fill-opacity:1;stroke:none;stroke-width:1.41421;stroke-linecap:round"
         id="rect1040"
         width="1"
         height="1"
         x="-46"
         y="-38"
         ry="0.5" />
      <rect
         ry="0.5"
         y="-38"
         x="-44"
         height="1"
         width="4"
         id="rect1042"
         style="fill:#ffffff;fill-opacity:1;stroke:none;stroke-width:2.82842;stroke-linecap:round" />
      <rect
         style="fill:#ffffff;fill-opacity:1;stroke:none;stroke-width:1.99999;stroke-linecap:round"
         id="rect1044"
         width="2"
         height="1"
         x="-39"
         y="-38"
         ry="0.5" />
    </g>
  </g>
</svg>
