<?xml version="1.0" encoding="UTF-8" standalone="no"?>
<svg
   xmlns:dc="http://purl.org/dc/elements/1.1/"
   xmlns:cc="http://creativecommons.org/ns#"
   xmlns:rdf="http://www.w3.org/1999/02/22-rdf-syntax-ns#"
   xmlns:svg="http://www.w3.org/2000/svg"
   xmlns="http://www.w3.org/2000/svg"
   xmlns:xlink="http://www.w3.org/1999/xlink"
   xmlns:sodipodi="http://sodipodi.sourceforge.net/DTD/sodipodi-0.dtd"
   xmlns:inkscape="http://www.inkscape.org/namespaces/inkscape"
   inkscape:version="1.0 (4035a4fb49, 2020-05-01)"
   sodipodi:docname="start.svg"
   version="1.1"
   viewBox="0 0 54 32"
   id="svg22">
  <sodipodi:namedview
     inkscape:snap-bbox-edge-midpoints="true"
     inkscape:snap-nodes="false"
     inkscape:bbox-nodes="true"
     inkscape:snap-bbox="true"
     inkscape:document-rotation="0"
     inkscape:current-layer="svg22"
     inkscape:window-maximized="1"
     inkscape:window-y="36"
     inkscape:window-x="0"
     inkscape:cy="26.169258"
     inkscape:cx="7.621993"
     inkscape:zoom="11.313709"
     showgrid="true"
     id="namedview15"
     inkscape:window-height="932"
     inkscape:window-width="1920"
     inkscape:pageshadow="2"
     inkscape:pageopacity="0"
     guidetolerance="10"
     gridtolerance="10"
     objecttolerance="10"
     borderopacity="1"
     bordercolor="#666666"
     pagecolor="#ffffff">
    <inkscape:grid
       id="grid912"
       type="xygrid" />
  </sodipodi:namedview>
  <metadata
     id="metadata24">
    <rdf:RDF>
      <cc:Work
         rdf:about="">
        <dc:format>image/svg+xml</dc:format>
        <dc:type
           rdf:resource="http://purl.org/dc/dcmitype/StillImage" />
        <dc:title></dc:title>
      </cc:Work>
    </rdf:RDF>
  </metadata>
  <defs
     id="defs5">
    <style
       id="current-color-scheme"
       type="text/css"> .ColorScheme-Text { color:#363636; } </style>
    <filter
       id="dde-launcher-256px-a"
       width="126.3%"
       height="126.3%"
       x="-13.1%"
       y="-13.1%"
       filterUnits="objectBoundingBox">
      <feOffset
         dy="6"
         in="SourceAlpha"
         result="shadowOffsetOuter1"
         id="feOffset839" />
      <feGaussianBlur
         in="shadowOffsetOuter1"
         result="shadowBlurOuter1"
         stdDeviation="5"
         id="feGaussianBlur841" />
      <feColorMatrix
         in="shadowBlurOuter1"
         result="shadowMatrixOuter1"
         values="0 0 0 0 0   0 0 0 0 0   0 0 0 0 0  0 0 0 0.2 0"
         id="feColorMatrix843" />
      <feMerge
         id="feMerge849">
        <feMergeNode
           in="shadowMatrixOuter1"
           id="feMergeNode845" />
        <feMergeNode
           in="SourceGraphic"
           id="feMergeNode847" />
      </feMerge>
    </filter>
    <radialGradient
       gradientUnits="userSpaceOnUse"
       id="dde-launcher-256px-b"
       cx="85.842639"
       cy="24.55108"
       r="196.21747"
       fx="85.842639"
       fy="24.55108">
      <stop
         offset="0%"
         stop-color="#00ABFF"
         id="stop852" />
      <stop
         offset="100%"
         stop-color="#4021FF"
         id="stop854" />
    </radialGradient>
    <linearGradient
       gradientUnits="userSpaceOnUse"
       id="dde-launcher-256px-c"
       x1="118.49783"
       x2="118.49783"
       y1="10"
       y2="227">
      <stop
         offset="0%"
         stop-color="#FFF"
         id="stop857" />
      <stop
         offset="100%"
         stop-color="#04ACF7"
         id="stop859" />
    </linearGradient>
    <radialGradient
       r="196.21747"
       fy="24.55108"
       fx="85.842639"
       cy="24.55108"
       cx="85.842639"
       gradientUnits="userSpaceOnUse"
       id="radialGradient908"
       xlink:href="#dde-launcher-256px-b"
       inkscape:collect="always" />
    <linearGradient
       y2="227"
       x2="118.49783"
       y1="10"
       x1="118.49783"
       gradientUnits="userSpaceOnUse"
       id="linearGradient910"
       xlink:href="#dde-launcher-256px-c"
       inkscape:collect="always" />
    <radialGradient
       r="196.21747"
       fy="24.55108"
       fx="85.842639"
       cy="24.55108"
       cx="85.842639"
       gradientUnits="userSpaceOnUse"
       id="radialGradient924"
       xlink:href="#dde-launcher-256px-b"
       inkscape:collect="always" />
    <linearGradient
       y2="227"
       x2="118.49783"
       y1="10"
       x1="118.49783"
       gradientUnits="userSpaceOnUse"
       id="linearGradient926"
       xlink:href="#dde-launcher-256px-c"
       inkscape:collect="always" />
    <radialGradient
       r="196.21747"
       fy="24.55108"
       fx="85.842639"
       cy="24.55108"
       cx="85.842639"
       gradientUnits="userSpaceOnUse"
       id="radialGradient934"
       xlink:href="#dde-launcher-256px-b"
       inkscape:collect="always" />
    <linearGradient
       y2="227"
       x2="118.49783"
       y1="10"
       x1="118.49783"
       gradientUnits="userSpaceOnUse"
       id="linearGradient936"
       xlink:href="#dde-launcher-256px-c"
       inkscape:collect="always" />
  </defs>
  <g
     fill="none"
     fill-rule="evenodd"
     filter="url(#dde-launcher-256px-a)"
     transform="matrix(0.10135524,0,0,0.10063043,26.8899,5.0521141)"
     id="start-here-kde">
    <path
       style="fill:url(#radialGradient908)"
       fill="url(#dde-launcher-256px-b)"
       d="M 0,118 C 0,52.830286 52.830286,0 118,0 183.16971,0 236,52.830286 236,118 236,183.16971 183.16971,236 118,236 52.830286,236 0,183.16971 0,118 Z"
       id="path864" />
    <path
       style="fill:url(#linearGradient910)"
       fill="url(#dde-launcher-256px-c)"
       fill-rule="nonzero"
       d="M 165.61265,31.491567 C 151.60518,23.890561 135.55664,19.573529 118.5,19.573529 c -4.10342,0 -8.1485,0.249857 -12.12085,0.735185 -14.719298,20.279028 -22.349363,53.360885 -21.742382,73.604266 0,0 -0.967501,29.99699 19.548602,40.63678 0,0 18.43745,8.10241 31.00229,-18.09711 0,0 8.63569,-14.78561 5.12057,-48.201607 0,0 3.36302,0.593488 3.74326,1.126768 0.38024,0.528979 7.42737,25.726447 2.47579,46.945819 0,0 -4.55866,24.93513 -26.97174,30.63778 C 97.150913,152.66407 79.689414,138.8676 67.834353,125.87106 59.00561,116.19272 45.898461,90.201636 39.443216,59.024082 26.968813,75.579092 19.573529,96.177262 19.573529,118.50225 c 0,15.41589 3.52627,30.00817 9.816225,43.01425 21.839317,6.45202 77.335236,19.02291 112.640186,-6.85169 23.36968,-17.1307 20.35858,-44.56427 20.35858,-44.56427 -0.38691,-20.867667 -13.09156,-41.595638 -13.09156,-41.595638 49.40139,44.690868 20.20297,94.341078 20.20297,94.341078 -13.59363,27.76487 -41.5375,45.52241 -65.98248,53.45331 4.88595,0.74229 9.8893,1.12718 14.98255,1.12718 54.63577,0 98.92647,-44.28969 98.92647,-98.92422 0,-23.108451 -7.92344,-44.366758 -21.20167,-61.206052 -4.83449,0.333177 -10.4511,0.528279 -16.27858,0.337029 0,0 -26.28348,1.227395 -41.0217,8.578522 0,0 -10.99054,4.900751 -21.97656,13.209952 0,0 -2.3316,1.165584 -2.21885,5.448223 0.0992,4.269393 -2.2369,15.651496 -10.02092,22.322706 0,0 -5.556149,2.85656 -2.77807,6.94493 0,0 3.7522,5.44823 9.03776,-0.27373 0,0 13.6288,-14.022332 14.46313,-36.618768 0,0 4.31143,-3.682186 11.12132,-4.768299 0,0 1.25374,33.899067 -15.56805,50.919247 0,0 -16.00099,17.42636 -21.14223,-8.44165 0,0 -6.259688,-24.645044 26.00838,-53.912683 0,0 21.75106,-21.722248 34.53652,-31.894618 1.76689,0.736454 3.50931,1.51846 5.22571,2.344512 z M 118.5,227 C 58.576914,227 10,178.42409 10,118.50224 10,58.579603 58.577702,10 118.5,10 178.4223,10 227,58.579603 227,118.50224 227,178.42409 178.42309,227 118.5,227 Z"
       id="path866" />
  </g>
  <g
     id="22-22-start-here-kde"
     transform="matrix(0.06975332,0,0,0.06925451,3.3652606,13.481043)"
     filter="url(#dde-launcher-256px-a)"
     fill-rule="evenodd"
     fill="none">
    <path
       id="path918"
       d="M 0,118 C 0,52.830286 52.830286,0 118,0 183.16971,0 236,52.830286 236,118 236,183.16971 183.16971,236 118,236 52.830286,236 0,183.16971 0,118 Z"
       fill="url(#dde-launcher-256px-b)"
       style="fill:url(#radialGradient924)" />
    <path
       id="path920"
       d="M 165.61265,31.491567 C 151.60518,23.890561 135.55664,19.573529 118.5,19.573529 c -4.10342,0 -8.1485,0.249857 -12.12085,0.735185 -14.719298,20.279028 -22.349363,53.360885 -21.742382,73.604266 0,0 -0.967501,29.99699 19.548602,40.63678 0,0 18.43745,8.10241 31.00229,-18.09711 0,0 8.63569,-14.78561 5.12057,-48.201607 0,0 3.36302,0.593488 3.74326,1.126768 0.38024,0.528979 7.42737,25.726447 2.47579,46.945819 0,0 -4.55866,24.93513 -26.97174,30.63778 C 97.150913,152.66407 79.689414,138.8676 67.834353,125.87106 59.00561,116.19272 45.898461,90.201636 39.443216,59.024082 26.968813,75.579092 19.573529,96.177262 19.573529,118.50225 c 0,15.41589 3.52627,30.00817 9.816225,43.01425 21.839317,6.45202 77.335236,19.02291 112.640186,-6.85169 23.36968,-17.1307 20.35858,-44.56427 20.35858,-44.56427 -0.38691,-20.867667 -13.09156,-41.595638 -13.09156,-41.595638 49.40139,44.690868 20.20297,94.341078 20.20297,94.341078 -13.59363,27.76487 -41.5375,45.52241 -65.98248,53.45331 4.88595,0.74229 9.8893,1.12718 14.98255,1.12718 54.63577,0 98.92647,-44.28969 98.92647,-98.92422 0,-23.108451 -7.92344,-44.366758 -21.20167,-61.206052 -4.83449,0.333177 -10.4511,0.528279 -16.27858,0.337029 0,0 -26.28348,1.227395 -41.0217,8.578522 0,0 -10.99054,4.900751 -21.97656,13.209952 0,0 -2.3316,1.165584 -2.21885,5.448223 0.0992,4.269393 -2.2369,15.651496 -10.02092,22.322706 0,0 -5.556149,2.85656 -2.77807,6.94493 0,0 3.7522,5.44823 9.03776,-0.27373 0,0 13.6288,-14.022332 14.46313,-36.618768 0,0 4.31143,-3.682186 11.12132,-4.768299 0,0 1.25374,33.899067 -15.56805,50.919247 0,0 -16.00099,17.42636 -21.14223,-8.44165 0,0 -6.259688,-24.645044 26.00838,-53.912683 0,0 21.75106,-21.722248 34.53652,-31.894618 1.76689,0.736454 3.50931,1.51846 5.22571,2.344512 z M 118.5,227 C 58.576914,227 10,178.42409 10,118.50224 10,58.579603 58.577702,10 118.5,10 178.4223,10 227,58.579603 227,118.50224 227,178.42409 178.42309,227 118.5,227 Z"
       fill-rule="nonzero"
       fill="url(#dde-launcher-256px-c)"
       style="fill:url(#linearGradient926)" />
  </g>
  <g
     fill="none"
     fill-rule="evenodd"
     filter="url(#dde-launcher-256px-a)"
     transform="matrix(0.05072969,0,0,0.05036692,-13.552538,18.538022)"
     id="16-16-start-here-kde">
    <path
       style="fill:url(#radialGradient934)"
       fill="url(#dde-launcher-256px-b)"
       d="M 0,118 C 0,52.830286 52.830286,0 118,0 183.16971,0 236,52.830286 236,118 236,183.16971 183.16971,236 118,236 52.830286,236 0,183.16971 0,118 Z"
       id="path928" />
    <path
       style="fill:url(#linearGradient936)"
       fill="url(#dde-launcher-256px-c)"
       fill-rule="nonzero"
       d="M 165.61265,31.491567 C 151.60518,23.890561 135.55664,19.573529 118.5,19.573529 c -4.10342,0 -8.1485,0.249857 -12.12085,0.735185 -14.719298,20.279028 -22.349363,53.360885 -21.742382,73.604266 0,0 -0.967501,29.99699 19.548602,40.63678 0,0 18.43745,8.10241 31.00229,-18.09711 0,0 8.63569,-14.78561 5.12057,-48.201607 0,0 3.36302,0.593488 3.74326,1.126768 0.38024,0.528979 7.42737,25.726447 2.47579,46.945819 0,0 -4.55866,24.93513 -26.97174,30.63778 C 97.150913,152.66407 79.689414,138.8676 67.834353,125.87106 59.00561,116.19272 45.898461,90.201636 39.443216,59.024082 26.968813,75.579092 19.573529,96.177262 19.573529,118.50225 c 0,15.41589 3.52627,30.00817 9.816225,43.01425 21.839317,6.45202 77.335236,19.02291 112.640186,-6.85169 23.36968,-17.1307 20.35858,-44.56427 20.35858,-44.56427 -0.38691,-20.867667 -13.09156,-41.595638 -13.09156,-41.595638 49.40139,44.690868 20.20297,94.341078 20.20297,94.341078 -13.59363,27.76487 -41.5375,45.52241 -65.98248,53.45331 4.88595,0.74229 9.8893,1.12718 14.98255,1.12718 54.63577,0 98.92647,-44.28969 98.92647,-98.92422 0,-23.108451 -7.92344,-44.366758 -21.20167,-61.206052 -4.83449,0.333177 -10.4511,0.528279 -16.27858,0.337029 0,0 -26.28348,1.227395 -41.0217,8.578522 0,0 -10.99054,4.900751 -21.97656,13.209952 0,0 -2.3316,1.165584 -2.21885,5.448223 0.0992,4.269393 -2.2369,15.651496 -10.02092,22.322706 0,0 -5.556149,2.85656 -2.77807,6.94493 0,0 3.7522,5.44823 9.03776,-0.27373 0,0 13.6288,-14.022332 14.46313,-36.618768 0,0 4.31143,-3.682186 11.12132,-4.768299 0,0 1.25374,33.899067 -15.56805,50.919247 0,0 -16.00099,17.42636 -21.14223,-8.44165 0,0 -6.259688,-24.645044 26.00838,-53.912683 0,0 21.75106,-21.722248 34.53652,-31.894618 1.76689,0.736454 3.50931,1.51846 5.22571,2.344512 z M 118.5,227 C 58.576914,227 10,178.42409 10,118.50224 10,58.579603 58.577702,10 118.5,10 178.4223,10 227,58.579603 227,118.50224 227,178.42409 178.42309,227 118.5,227 Z"
       id="path930" />
  </g>
</svg>
