<?xml version="1.0" encoding="UTF-8" standalone="no"?>
<svg
   width="32"
   height="32"
   viewBox="0 0 8.4666665 8.4666669"
   version="1.1"
   id="svg847"
   inkscape:version="1.1.1 (3bf5ae0d25, 2021-09-20)"
   sodipodi:docname="activities.svg"
   xmlns:inkscape="http://www.inkscape.org/namespaces/inkscape"
   xmlns:sodipodi="http://sodipodi.sourceforge.net/DTD/sodipodi-0.dtd"
   xmlns="http://www.w3.org/2000/svg"
   xmlns:svg="http://www.w3.org/2000/svg"
   xmlns:rdf="http://www.w3.org/1999/02/22-rdf-syntax-ns#"
   xmlns:cc="http://creativecommons.org/ns#"
   xmlns:dc="http://purl.org/dc/elements/1.1/">
  <defs
     id="defs841" />
  <sodipodi:namedview
     id="base"
     pagecolor="#c8c8c8"
     bordercolor="#000000"
     borderopacity="1"
     inkscape:pageopacity="0"
     inkscape:pageshadow="2"
     inkscape:zoom="15.839192"
     inkscape:cx="15.94147"
     inkscape:cy="12.690041"
     inkscape:document-units="px"
     inkscape:current-layer="layer1"
     inkscape:document-rotation="0"
     showgrid="true"
     units="px"
     inkscape:window-width="1920"
     inkscape:window-height="963"
     inkscape:window-x="0"
     inkscape:window-y="40"
     inkscape:window-maximized="1"
     inkscape:snap-bbox="true"
     inkscape:bbox-nodes="true"
     inkscape:showpageshadow="false"
     inkscape:lockguides="false"
     inkscape:pagecheckerboard="0"
     inkscape:snap-smooth-nodes="true">
    <inkscape:grid
       type="xygrid"
       id="grid1410"
       originx="-8.4666677"
       originy="-2.6458333" />
  </sodipodi:namedview>
  <metadata
     id="metadata844">
    <rdf:RDF>
      <cc:Work
         rdf:about="">
        <dc:format>image/svg+xml</dc:format>
        <dc:type
           rdf:resource="http://purl.org/dc/dcmitype/StillImage" />
      </cc:Work>
    </rdf:RDF>
    <style
       id="current-color-scheme" />
  </metadata>
  <g
     inkscape:label="Layer 1"
     inkscape:groupmode="layer"
     id="layer1"
     transform="translate(-8.4666681,-2.6458333)">
    <g
       id="22-22-activities">
      <rect
         style="opacity:0.003;fill:#000000;stroke-width:0.363802"
         id="rect1430-3-7-5"
         width="5.8208323"
         height="5.8208323"
         x="17.462502"
         y="2.6458333" />
      <rect
         style="opacity:0.8;fill:#ffffff;fill-opacity:1;stroke-width:0.124703;stroke-linecap:round"
         id="rect990"
         width="5.8195009"
         height="5.8195009"
         x="2.6458333"
         y="-23.282"
         ry="1.5875"
         transform="rotate(90)" />
      <g
         id="g2420"
         transform="translate(2.6458332)">
        <path
           id="rect864"
           style="opacity:1;fill:#242424;fill-opacity:1;fill-rule:evenodd;stroke:none;stroke-width:0.264583;stroke-linecap:round;stroke-linejoin:round"
           d="m 17.197918,3.7041666 c -0.293158,0 -0.529166,0.2360084 -0.529166,0.5291667 l -1e-6,1.8520833 c 0,0.2931583 0.236008,0.5291667 0.529166,0.5291667 l 1.852083,1e-7 c 0.293159,0 0.529167,-0.2360084 0.529167,-0.5291667 l 10e-7,-1.8520833 c 0,-0.2931584 -0.236008,-0.5291667 -0.529167,-0.5291667 z m 0,0.2645833 1.852083,10e-8 c 0.14658,0 0.264584,0.1180043 0.264584,0.2645834 l -1e-6,1.8520833 c 0,0.1465792 -0.118004,0.2645834 -0.264584,0.2645834 L 17.197917,6.35 c -0.146579,0 -0.264583,-0.1180042 -0.264583,-0.2645834 l 1e-6,-1.8520833 c 0,-0.146579 0.118004,-0.2645834 0.264583,-0.2645834 z"
           sodipodi:nodetypes="ssssssssssssssssss" />
        <path
           id="path1542"
           style="opacity:1;fill:#242424;fill-opacity:1;fill-rule:evenodd;stroke:none;stroke-width:0.264583;stroke-linecap:round;stroke-linejoin:round"
           d="m 16.404167,4.4979166 c -0.293158,0 -0.529167,0.2360083 -0.529166,0.5291667 l 0,1.8520833 c 0,0.2931583 0.236008,0.5291667 0.529166,0.5291667 l 1.852083,1e-7 c 0.293159,0 0.529167,-0.2360084 0.529167,-0.5291667 l -10e-7,-1.8520833 c 0,-0.2931584 -0.236008,-0.5291667 -0.529167,-0.5291667 z m 0,0.2645833 1.852082,1e-7 c 0.14658,0 0.264584,0.1180043 0.264584,0.2645834 l 1e-6,1.8520833 c 0,0.1465792 -0.118004,0.2645834 -0.264584,0.2645834 l -1.852083,-1e-7 c -0.146579,0 -0.264583,-0.1180042 -0.264583,-0.2645834 l 0,-1.8520833 c 0,-0.1465791 0.118004,-0.2645834 0.264583,-0.2645834 z"
           sodipodi:nodetypes="ssssssssssssssssss" />
      </g>
    </g>
    <g
       id="activities">
      <rect
         y="2.6458335"
         x="8.4666681"
         height="8.4666662"
         width="8.4666662"
         id="rect1430"
         style="opacity:0.003;fill:#000000;stroke-width:0.529167" />
      <rect
         style="opacity:0.8;fill:#ffffff;fill-opacity:1;stroke-width:0.175759;stroke-linecap:round"
         id="rect878"
         width="8.2020836"
         height="8.2020836"
         x="2.7781248"
         y="-16.801043"
         ry="2.3068359"
         transform="rotate(90)" />
      <g
         id="g2253"
         transform="translate(8.4666672,2.6458333)">
        <path
           id="rect1966"
           style="opacity:1;fill:#242424;fill-opacity:1;fill-rule:evenodd;stroke:none;stroke-width:0.999999;stroke-linecap:round;stroke-linejoin:round"
           d="m -19.000006,-4.9999998 c -1.662,0 -3,1.3379999 -3,3 V 9.0000005 c 0,1.6619995 1.338,2.9999995 3,2.9999995 h 11.0000002 c 1.6620001,0 3,-1.338 3,-2.9999995 V -1.9999998 c 0,-1.6620001 -1.3379999,-3 -3,-3 z m 0,1 h 11.0000002 c 1.1079996,0 2,0.8920004 2,2 V 9.0000005 C -6.0000058,10.108 -6.8920062,11 -8.0000058,11 H -19.000006 c -1.108,0 -2,-0.892 -2,-1.9999995 V -1.9999998 c 0,-1.1079996 0.892,-2 2,-2 z"
           transform="matrix(0.26458333,0,0,0.26458333,8.4666681,2.6458333)"
           sodipodi:nodetypes="ssssssssssssssssss" />
        <path
           id="path2249"
           style="opacity:1;fill:#242424;fill-opacity:1;fill-rule:evenodd;stroke:none;stroke-width:0.264583;stroke-linecap:round;stroke-linejoin:round"
           d="m 2.1166666,2.6458334 c -0.4397375,0 -0.79375,0.3540125 -0.79375,0.79375 l 0,2.9104167 c 0,0.4397375 0.3540125,0.79375 0.79375,0.79375 h 2.9104166 c 0.4397375,0 0.79375,-0.3540125 0.79375,-0.79375 l 0,-2.9104167 c 0,-0.4397375 -0.3540125,-0.79375 -0.79375,-0.79375 z m 0,0.2645833 h 2.9104166 c 0.2931582,0 0.5291667,0.2360085 0.5291667,0.5291667 l 0,2.9104167 c 0,0.2931583 -0.2360085,0.5291667 -0.5291667,0.5291667 H 2.1166666 c -0.2931583,0 -0.5291667,-0.2360084 -0.5291667,-0.5291667 l 0,-2.9104167 c 0,-0.2931582 0.2360084,-0.5291667 0.5291667,-0.5291667 z"
           sodipodi:nodetypes="ssssssssssssssssss" />
      </g>
    </g>
  </g>
</svg>
