<?xml version="1.0" encoding="UTF-8" standalone="no"?>
<svg
   id="svg17"
   viewBox="0 0 32 32"
   version="1.1"
   sodipodi:docname="akonadi.svg"
   width="32"
   height="32"
   inkscape:version="1.1.1 (3bf5ae0d25, 2021-09-20)"
   xmlns:inkscape="http://www.inkscape.org/namespaces/inkscape"
   xmlns:sodipodi="http://sodipodi.sourceforge.net/DTD/sodipodi-0.dtd"
   xmlns="http://www.w3.org/2000/svg"
   xmlns:svg="http://www.w3.org/2000/svg"
   xmlns:rdf="http://www.w3.org/1999/02/22-rdf-syntax-ns#"
   xmlns:cc="http://creativecommons.org/ns#"
   xmlns:dc="http://purl.org/dc/elements/1.1/">
  <sodipodi:namedview
     id="namedview12"
     pagecolor="#c8c8c8"
     bordercolor="#999999"
     borderopacity="1"
     inkscape:pageshadow="0"
     inkscape:pageopacity="0"
     inkscape:pagecheckerboard="0"
     showgrid="true"
     inkscape:snap-smooth-nodes="true"
     inkscape:zoom="15.752768"
     inkscape:cx="-5.808503"
     inkscape:cy="15.298899"
     inkscape:window-width="1920"
     inkscape:window-height="963"
     inkscape:window-x="0"
     inkscape:window-y="40"
     inkscape:window-maximized="1"
     inkscape:current-layer="svg17">
    <inkscape:grid
       type="xygrid"
       id="grid829" />
  </sodipodi:namedview>
  <metadata
     id="metadata19">
    <rdf:RDF>
      <cc:Work
         rdf:about="">
        <dc:format>image/svg+xml</dc:format>
        <dc:type
           rdf:resource="http://purl.org/dc/dcmitype/StillImage" />
      </cc:Work>
    </rdf:RDF>
  </metadata>
  <defs
     id="defs5">
    <style
       type="text/css"
       id="current-color-scheme"> .ColorScheme-Text { color:#363636; } </style>
  </defs>
  <g
     id="akonadi">
    <rect
       style="opacity:0.8;fill:#ffffff;fill-opacity:1;stroke-width:0.664286;stroke-linecap:round"
       id="rect878"
       width="31"
       height="31"
       x="0.5"
       y="-31.5"
       ry="8.71875"
       transform="rotate(90)" />
    <path
       id="path14"
       fill="none"
       d="M 0,0 V 32 H 32 V 0 Z" />
    <path
       id="rect881"
       style="opacity:1;fill:#242424;fill-rule:evenodd;stroke-linecap:round;stroke-linejoin:round;fill-opacity:1"
       d="M 16 6 C 9.372583 6 5 7.3431458 5 9 L 5 24 C 5 25.656854 9.372583 27 16 27 C 22.627417 27 27 25.656854 27 24 L 27 19 L 27 14 L 27 9 C 27 7.3431458 22.627417 6 16 6 z M 16 7 C 22.075132 7 26 7.8954305 26 9 C 26 10.10457 22.075132 11 16 11 C 9.9248678 11 6 10.10457 6 9 C 6 7.8954305 9.9248678 7 16 7 z M 26 10.191406 L 26 14 C 26 15.104569 22.075132 16 16 16 C 9.9248678 16 6 15.104569 6 14 L 6 10.195312 C 7.9031554 11.290584 11.223402 11.999366 16 12 C 20.780314 11.9987 24.10158 11.288203 26 10.191406 z M 26 15.191406 L 26 19 C 26 20.104569 22.075132 21 16 21 C 9.9248678 21 6 20.104569 6 19 L 6 15.195312 C 7.9031554 16.290584 11.223402 16.999366 16 17 C 20.780314 16.9987 24.10158 16.288203 26 15.191406 z M 26 20.191406 L 26 24 C 26 25.104569 22.075132 26 16 26 C 9.9248678 26 6 25.104569 6 24 L 6 20.195312 C 7.9031554 21.290584 11.223402 21.999366 16 22 C 20.780314 21.9987 24.10158 21.288203 26 20.191406 z " />
  </g>
  <g
     id="22-22-akonadi">
    <rect
       style="opacity:0.8;fill:#ffffff;fill-opacity:1;stroke-width:0.471318;stroke-linecap:round"
       id="rect990"
       width="21.994965"
       height="21.994965"
       x="10.002518"
       y="0.0025177002"
       ry="6"
       transform="rotate(90)" />
    <path
       id="path9"
       fill="none"
       d="M -22,10 V 32 H 0 V 10 Z" />
    <path
       id="rect1094"
       style="opacity:1;fill:#242424;fill-rule:evenodd;stroke-linecap:round;stroke-linejoin:round;fill-opacity:1"
       d="M -11 15 C -15.4183 15 -18 15.858321 -18 16.962891 L -18 19.957031 L -18 19.962891 L -18 22.957031 L -18 22.962891 L -18 25.962891 C -18.000019 27.067491 -15.4183 28 -11 28 C -6.5817 28 -4 27.071367 -4 25.966797 L -4 22.966797 L -4 19.966797 L -4 16.966797 C -3.999981 15.862197 -6.5817 15 -11 15 z M -11 16 C -7.134 16 -5 16.414517 -5 16.966797 C -5 17.519077 -7.134 18 -11 18 C -14.866 18 -17 17.515171 -17 16.962891 C -17 16.410611 -14.866 16 -11 16 z M -17 17.929688 C -15.5926 18.566878 -13.9115 18.9997 -11 19 C -8.0852 18.9989 -6.4033 18.568377 -5 17.929688 L -5 19 L -5 19.966797 C -5 20.519077 -7.134 21 -11 21 C -14.866 21 -17 20.515171 -17 19.962891 L -17 19 L -17 17.929688 z M -17 20.929688 C -14.9551 21.728337 -13.744606 21.932101 -11.566406 21.994141 C -11.377936 21.997741 -11.18902 21.9997 -11 22 C -10.73324 22.000065 -10.466632 21.996834 -10.201172 21.990234 C -8.1685719 21.881704 -6.9012125 21.766624 -5.0078125 20.933594 L -5 20.929688 L -5 22 L -5 22.966797 C -5 23.519077 -7.134 24 -11 24 C -14.866 24 -17 23.515171 -17 22.962891 L -17 22 L -17 20.929688 z M -17 23.929688 C -16.8708 23.988048 -16.730005 24.044769 -16.578125 24.099609 C -14.643925 24.742669 -13.592506 24.936391 -11.566406 24.994141 C -11.377936 24.997741 -11.18902 24.9997 -11 25 C -10.73324 25.000065 -10.466632 24.996834 -10.201172 24.990234 C -8.1685719 24.881704 -6.9011125 24.766674 -5.0078125 23.933594 L -5 23.929688 L -5 25.966797 C -5 26.519077 -7.134 27 -11 27 C -14.866 27 -17 26.515171 -17 25.962891 L -17 23.929688 z " />
  </g>
</svg>
