<?xml version="1.0" encoding="UTF-8" standalone="no"?>
<svg
   id="svg17"
   viewBox="0 0 32 32"
   version="1.1"
   sodipodi:docname="akregator.svg"
   width="32"
   height="32"
   inkscape:version="1.1.1 (3bf5ae0d25, 2021-09-20)"
   xmlns:inkscape="http://www.inkscape.org/namespaces/inkscape"
   xmlns:sodipodi="http://sodipodi.sourceforge.net/DTD/sodipodi-0.dtd"
   xmlns="http://www.w3.org/2000/svg"
   xmlns:svg="http://www.w3.org/2000/svg"
   xmlns:rdf="http://www.w3.org/1999/02/22-rdf-syntax-ns#"
   xmlns:cc="http://creativecommons.org/ns#"
   xmlns:dc="http://purl.org/dc/elements/1.1/">
  <sodipodi:namedview
     id="namedview12"
     pagecolor="#c8c8c8"
     bordercolor="#999999"
     borderopacity="1"
     inkscape:pageshadow="0"
     inkscape:pageopacity="0"
     inkscape:pagecheckerboard="0"
     showgrid="true"
     inkscape:zoom="15.752768"
     inkscape:cx="-1.8726868"
     inkscape:cy="13.26751"
     inkscape:window-width="1920"
     inkscape:window-height="963"
     inkscape:window-x="0"
     inkscape:window-y="40"
     inkscape:window-maximized="1"
     inkscape:current-layer="svg17">
    <inkscape:grid
       type="xygrid"
       id="grid829" />
  </sodipodi:namedview>
  <metadata
     id="metadata19">
    <rdf:RDF>
      <cc:Work
         rdf:about="">
        <dc:format>image/svg+xml</dc:format>
        <dc:type
           rdf:resource="http://purl.org/dc/dcmitype/StillImage" />
      </cc:Work>
    </rdf:RDF>
  </metadata>
  <defs
     id="defs5">
    <style
       type="text/css"
       id="current-color-scheme"> .ColorScheme-Text { color:#363636; } </style>
  </defs>
  <g
     id="akregator">
    <rect
       style="opacity:0.8;fill:#ffffff;fill-opacity:1;stroke-width:0.664286;stroke-linecap:round"
       id="rect878"
       width="31"
       height="31"
       x="0.5"
       y="-31.5"
       ry="8.71875"
       transform="rotate(90)" />
    <path
       id="path14"
       fill="none"
       d="M 0,0 V 32 H 32 V 0 Z" />
    <path
       id="rect1299"
       style="fill:#242424;fill-opacity:1;fill-rule:evenodd;stroke-linecap:round;stroke-linejoin:round"
       d="M 7 7 L 7 10 A 15 15 0 0 1 22 25 L 25 25 A 18 18 0 0 0 7 7 z M 7 13 L 7 16 A 9 9 0 0 1 16 25 L 19 25 A 12 12 0 0 0 7 13 z M 9.625 19.75 A 2.625 2.625 0 0 0 7 22.375 A 2.625 2.625 0 0 0 9.625 25 A 2.625 2.625 0 0 0 12.25 22.375 A 2.625 2.625 0 0 0 9.625 19.75 z " />
  </g>
  <g
     id="22-22-akregator">
    <rect
       style="opacity:0.8;fill:#ffffff;fill-opacity:1;stroke-width:0.471318;stroke-linecap:round"
       id="rect990"
       width="21.994965"
       height="21.994965"
       x="10"
       y="5"
       ry="6"
       transform="rotate(90)" />
    <path
       id="path7"
       fill="none"
       d="M -27,10 V 32 H -5 V 10 Z" />
    <path
       id="rect4132"
       style="fill:#242424;fill-opacity:1;fill-rule:evenodd;stroke-linecap:round;stroke-linejoin:round"
       d="M -22 15 L -22 17.25 A 9.75 9.75 0 0 1 -12.25 27 L -10 27 A 12 12 0 0 0 -22 15 z M -22 19.5 L -22 21.75 A 5.25 5.25 0 0 1 -16.75 27 L -14.5 27 A 7.5 7.5 0 0 0 -22 19.5 z M -20.5 24 A 1.5 1.5 0 0 0 -22 25.5 A 1.5 1.5 0 0 0 -20.5 27 A 1.5 1.5 0 0 0 -19 25.5 A 1.5 1.5 0 0 0 -20.5 24 z " />
  </g>
</svg>
