<?xml version="1.0" encoding="UTF-8" standalone="no"?>
<svg
   id="svg17"
   viewBox="0 0 32 32"
   version="1.1"
   sodipodi:docname="amarok.svg"
   width="32"
   height="32"
   inkscape:version="1.1.1 (3bf5ae0d25, 2021-09-20)"
   xmlns:inkscape="http://www.inkscape.org/namespaces/inkscape"
   xmlns:sodipodi="http://sodipodi.sourceforge.net/DTD/sodipodi-0.dtd"
   xmlns="http://www.w3.org/2000/svg"
   xmlns:svg="http://www.w3.org/2000/svg"
   xmlns:rdf="http://www.w3.org/1999/02/22-rdf-syntax-ns#"
   xmlns:cc="http://creativecommons.org/ns#"
   xmlns:dc="http://purl.org/dc/elements/1.1/">
  <sodipodi:namedview
     id="namedview12"
     pagecolor="#c8c8c8"
     bordercolor="#999999"
     borderopacity="1"
     inkscape:pageshadow="0"
     inkscape:pageopacity="0"
     inkscape:pagecheckerboard="0"
     showgrid="true"
     inkscape:snap-bbox="true"
     inkscape:object-paths="true"
     inkscape:zoom="15.752768"
     inkscape:cx="-1.047435"
     inkscape:cy="16.949402"
     inkscape:window-width="1920"
     inkscape:window-height="963"
     inkscape:window-x="0"
     inkscape:window-y="40"
     inkscape:window-maximized="1"
     inkscape:current-layer="svg17">
    <inkscape:grid
       type="xygrid"
       id="grid829" />
  </sodipodi:namedview>
  <metadata
     id="metadata19">
    <rdf:RDF>
      <cc:Work
         rdf:about="">
        <dc:format>image/svg+xml</dc:format>
        <dc:type
           rdf:resource="http://purl.org/dc/dcmitype/StillImage" />
      </cc:Work>
    </rdf:RDF>
  </metadata>
  <defs
     id="defs5">
    <style
       type="text/css"
       id="current-color-scheme"> .ColorScheme-Text { color:#363636; } </style>
  </defs>
  <g
     id="22-22-amarok">
    <rect
       style="opacity:0.8;fill:#ffffff;fill-opacity:1;stroke-width:0.471318;stroke-linecap:round"
       id="rect990"
       width="21.994965"
       height="21.994965"
       x="10.005035"
       y="0"
       ry="6"
       transform="rotate(90)" />
    <path
       id="path9"
       fill="none"
       d="M -22,10 V 32 H 0 V 10 Z" />
    <path
       id="rect1294"
       style="fill:#242424;fill-opacity:1;fill-rule:evenodd;stroke-linecap:round;stroke-linejoin:round"
       d="M -11 13 C -15.4183 13 -19 16.5817 -19 21 C -19 25.4183 -15.4183 29 -11 29 C -6.5817 29 -3 25.4183 -3 21 C -3 19.7211 -3.3004044 18.511553 -3.8339844 17.439453 C -3.8402844 17.428183 -3.8578912 17.411281 -3.8632812 17.400391 C -3.8628113 17.400161 -3.8584219 17.398437 -3.8574219 17.398438 C -3.6723819 17.179877 -3.5761719 16.93016 -3.5761719 16.6875 C -3.5761719 16.51227 -3.6443681 16.331792 -3.7050781 16.195312 C -3.7047881 16.195573 -3.6992187 16.199219 -3.6992188 16.199219 C -3.6992188 16.199219 -3.7004206 16.075391 -3.7753906 15.900391 C -3.8503906 15.725391 -3.9492188 15.599609 -3.9492188 15.599609 C -3.9492188 15.599609 -4.1867187 15.637109 -4.3242188 15.662109 C -4.4539187 15.685709 -4.7974106 15.875838 -4.8378906 15.898438 C -6.5506906 14.221037 -8.2493 12.9581 -11 13 z M -10.800781 13.400391 C -8.6453812 13.403691 -6.5986125 14.346512 -5.1953125 15.982422 C -5.9670525 16.173142 -7.1822219 16.616356 -7.6074219 16.722656 C -8.1024019 16.846396 -8.3332831 16.958033 -9.1269531 16.882812 C -10.031643 16.797113 -10.437881 16.789975 -10.675781 16.796875 C -11.032121 16.765375 -11.212891 16.6875 -11.212891 16.6875 L -11.181641 17.039062 C -11.418551 17.219693 -11.89523 17.481767 -12.875 17.748047 C -13.5114 17.818747 -14.041175 17.624021 -14.359375 17.800781 C -14.677575 17.977561 -15.686619 18.419229 -16.199219 18.542969 C -16.711879 18.666719 -17.091211 18.89929 -17.400391 19 C -17.888781 19.1591 -16.432821 21.494081 -15.800781 21.800781 C -15.800781 21.800781 -16.018352 22.026687 -16.201172 22.216797 C -16.640862 22.517207 -16.988281 22.537109 -16.988281 22.537109 L -16.964844 22.777344 C -17.174534 22.888744 -17.370704 22.965387 -17.552734 23.029297 C -17.846154 22.218187 -17.99746 21.3625 -18 20.5 C -17.9961 19.1252 -17.614294 17.777969 -16.896484 16.605469 C -15.515784 14.599069 -13.236281 13.400591 -10.800781 13.400391 z M -4.1503906 17.566406 C -3.6586306 18.573806 -3.4021806 19.679781 -3.4003906 20.800781 C -3.4018906 23.285681 -4.6506094 25.603956 -6.7246094 26.972656 C -7.3686094 27.348596 -8.0651156 27.626395 -8.7910156 27.796875 C -8.7604556 27.562355 -8.7299813 27.322284 -8.7070312 27.083984 C -8.5333713 26.828814 -8.3007812 26.824219 -8.3007812 26.824219 C -8.3007812 26.824219 -8.6000025 25.974562 -8.5703125 24.951172 C -8.5331125 24.708432 -8.470555 24.479249 -8.390625 24.261719 L -8.0878906 24.261719 C -8.0878906 24.261719 -8.1256881 23.844312 -7.9550781 23.419922 C -7.3930081 22.565672 -6.6261281 21.995441 -6.2988281 21.744141 C -5.9900481 21.507041 -4.566125 21.142966 -4.265625 21.072266 C -3.965105 21.001566 -3.6817425 20.524233 -3.6640625 20.382812 C -3.6463625 20.241392 -3.7539062 19.976562 -3.7539062 19.976562 L -4.1796875 19.880859 C -4.0738475 19.955859 -4.1345 20.03111 -4.3125 20.0625 C -4.3695 20.0726 -4.4485494 20.077315 -4.5371094 20.078125 C -4.5371094 20.078125 -4.6298188 19.714574 -4.7304688 19.683594 C -4.8165688 19.657094 -5.0428325 19.941473 -5.0390625 20.039062 C -5.1353625 20.022762 -5.2269912 20.001409 -5.3007812 19.974609 C -5.5758113 19.874589 -5.875 19.8125 -5.875 19.8125 C -5.875 19.8125 -5.5753906 19.137119 -5.1503906 18.474609 C -4.8794706 18.052289 -4.4424306 17.744356 -4.1503906 17.566406 z M -9.6347656 17.722656 C -9.1488156 17.718656 -8.7871094 17.863281 -8.7871094 17.863281 C -8.7871094 17.863281 -8.7398787 18.318566 -10.105469 19.134766 C -10.524119 19.384976 -11.625 19.550781 -11.625 19.550781 C -11.625 19.550781 -11.648599 18.975453 -11.230469 18.476562 C -10.731179 17.880762 -10.120666 17.727116 -9.6347656 17.722656 z M -15.90625 18.990234 C -15.86115 18.989234 -15.825811 18.993 -15.800781 19 C -15.600781 19.0625 -15.163301 19.857799 -15.400391 20.199219 L -15 20.599609 C -14.2 19.799609 -13.006181 20.356841 -12.800781 20.900391 C -12.516051 21.653681 -12.575269 21.564098 -13.755859 21.736328 C -14.256159 21.809328 -15.276787 21.627989 -15.679688 21.318359 C -16.082587 21.008729 -17.11875 19.36875 -17.03125 19.28125 C -16.95465 19.20465 -16.22206 18.998744 -15.90625 18.990234 z M -4.3984375 19.589844 C -4.4659375 19.613944 -4.5273438 19.898437 -4.5273438 19.898438 C -4.5273438 19.898438 -4.4751481 19.926405 -4.2050781 19.890625 C -4.1323781 19.872525 -4.3309175 19.565764 -4.3984375 19.589844 z " />
  </g>
  <g
     id="amarok">
    <rect
       style="opacity:0.8;fill:#ffffff;fill-opacity:1;stroke-width:0.664286;stroke-linecap:round"
       id="rect878"
       width="31"
       height="31"
       x="0.5"
       y="-31.5"
       ry="8.71875"
       transform="rotate(90)" />
    <path
       id="path14"
       fill="none"
       d="M 0,0 V 32 H 32 V 0 Z" />
    <path
       id="rect1399"
       style="fill:#242424;fill-opacity:1;fill-rule:evenodd;stroke-linecap:round;stroke-linejoin:round"
       d="M 16 5 C 9.9242993 5 4.9980469 9.9249413 4.9980469 16 C 4.9980469 22.075426 9.9242993 27 16 27 C 22.075701 27 27.001953 22.075243 27.001953 16 C 27.001953 14.241481 26.587259 12.57775 25.853516 11.103516 C 25.844816 11.088026 25.821863 11.065761 25.814453 11.050781 C 25.815099 11.050464 25.820966 11.046875 25.822266 11.046875 C 26.07672 10.746345 26.208984 10.403965 26.208984 10.070312 C 26.208984 9.829362 26.114731 9.580247 26.03125 9.3925781 C 26.031649 9.3929356 26.039062 9.3984375 26.039062 9.3984375 C 26.039062 9.3984375 26.038572 9.2289203 25.935547 8.9882812 C 25.832412 8.7476423 25.695312 8.5742188 25.695312 8.5742188 C 25.695312 8.5742188 25.368769 8.6257792 25.179688 8.6601562 C 25.001351 8.6925993 24.530275 8.953297 24.474609 8.984375 C 22.119277 6.6778212 19.782622 4.9424278 16 5 z M 16.273438 5.5507812 C 19.237306 5.5552712 22.052654 6.8521213 23.982422 9.1015625 C 22.921187 9.3638186 21.250722 9.9729639 20.666016 10.119141 C 19.985353 10.28929 19.665615 10.443273 18.574219 10.339844 C 17.330183 10.222005 16.774455 10.211214 16.447266 10.220703 C 15.957251 10.177389 15.707031 10.070313 15.707031 10.070312 L 15.75 10.554688 C 15.424222 10.803064 14.769138 11.163146 13.421875 11.529297 C 12.546741 11.626507 11.818426 11.3585 11.380859 11.601562 C 10.943292 11.844648 9.5545938 12.450935 8.8496094 12.621094 C 8.1446341 12.791243 7.624318 13.113468 7.1992188 13.251953 C 6.5276226 13.470727 8.529354 16.679856 9.3984375 17.101562 C 9.3984375 17.101562 9.099058 17.412415 8.8476562 17.673828 C 8.2430198 18.086909 7.765625 18.113281 7.765625 18.113281 L 7.796875 18.445312 C 7.508519 18.598502 7.2386012 18.703136 6.9882812 18.791016 C 6.58479 17.675692 6.3784837 16.498506 6.375 15.3125 C 6.38041 13.42206 6.9035551 11.569237 7.890625 9.9570312 C 9.789222 7.1981464 12.924256 5.5509646 16.273438 5.5507812 z M 25.419922 11.279297 C 26.096157 12.664514 26.448697 14.18513 26.451172 15.726562 C 26.449172 19.14349 24.731022 22.330885 21.878906 24.212891 C 20.993321 24.729831 20.035455 25.111271 19.037109 25.345703 C 19.079129 25.023216 19.122743 24.694844 19.154297 24.367188 C 19.393103 24.016309 19.712891 24.009766 19.712891 24.009766 C 19.712891 24.009766 19.300974 22.840905 19.341797 21.433594 C 19.392947 21.099813 19.477981 20.785474 19.587891 20.486328 L 20.003906 20.486328 C 20.003906 20.486328 19.952889 19.911658 20.1875 19.328125 C 20.960416 18.153487 22.014717 17.371008 22.464844 17.025391 C 22.889457 16.699366 24.846493 16.198756 25.259766 16.101562 C 25.673021 16.004342 26.063578 15.346834 26.087891 15.152344 C 26.112231 14.957882 25.964844 14.59375 25.964844 14.59375 L 25.378906 14.460938 C 25.52445 14.564063 25.440084 14.667777 25.195312 14.710938 C 25.116933 14.724827 25.008501 14.731322 24.886719 14.732422 C 24.886719 14.732422 24.759496 14.232045 24.621094 14.189453 C 24.502695 14.153013 24.192096 14.545493 24.197266 14.679688 C 24.064841 14.657277 23.939366 14.626694 23.837891 14.589844 C 23.459702 14.452322 23.046875 14.367188 23.046875 14.367188 C 23.046875 14.367188 23.460528 13.438323 24.044922 12.527344 C 24.417473 11.946626 25.018292 11.523979 25.419922 11.279297 z M 17.876953 11.494141 C 18.545194 11.488641 19.042969 11.6875 19.042969 11.6875 C 19.042969 11.6875 19.108316 12.313229 17.230469 13.435547 C 16.654765 13.779605 15.140625 14.007812 15.140625 14.007812 C 15.140625 14.007812 15.108601 13.217285 15.683594 12.53125 C 16.370188 11.711983 17.208731 11.500283 17.876953 11.494141 z M 9.2539062 13.236328 C 9.3159243 13.234928 9.3640226 13.242273 9.3984375 13.251953 C 9.673464 13.337903 10.275253 14.428968 9.9492188 14.898438 L 10.5 15.449219 C 11.600106 14.349205 13.240893 15.117822 13.523438 15.865234 C 13.914983 16.901075 13.83441 16.776865 12.210938 17.013672 C 11.522958 17.114047 10.120493 16.863259 9.5664062 16.4375 C 9.0123197 16.01174 7.5866614 13.75895 7.7070312 13.638672 C 7.8123664 13.533346 8.8196394 13.248035 9.2539062 13.236328 z M 25.078125 14.060547 C 24.985305 14.093687 24.900391 14.486328 24.900391 14.486328 C 24.900391 14.486328 24.972372 14.523829 25.34375 14.474609 C 25.44372 14.449719 25.170974 14.027443 25.078125 14.060547 z " />
  </g>
</svg>
