<?xml version="1.0" encoding="UTF-8" standalone="no"?>
<svg
   id="svg14"
   viewBox="0 0 22 22"
   version="1.1"
   height="22"
   width="22"
   sodipodi:docname="distribute.svg"
   inkscape:version="1.1 (c4e8f9ed74, 2021-05-24)"
   xmlns:inkscape="http://www.inkscape.org/namespaces/inkscape"
   xmlns:sodipodi="http://sodipodi.sourceforge.net/DTD/sodipodi-0.dtd"
   xmlns="http://www.w3.org/2000/svg"
   xmlns:svg="http://www.w3.org/2000/svg"
   xmlns:rdf="http://www.w3.org/1999/02/22-rdf-syntax-ns#"
   xmlns:cc="http://creativecommons.org/ns#"
   xmlns:dc="http://purl.org/dc/elements/1.1/">
  <sodipodi:namedview
     id="namedview10"
     pagecolor="#323232"
     bordercolor="#999999"
     borderopacity="1"
     inkscape:pageshadow="0"
     inkscape:pageopacity="0"
     inkscape:pagecheckerboard="0"
     showgrid="false"
     inkscape:zoom="12.42258"
     inkscape:cx="-0.44274215"
     inkscape:cy="4.8701637"
     inkscape:window-width="1920"
     inkscape:window-height="958"
     inkscape:window-x="0"
     inkscape:window-y="40"
     inkscape:window-maximized="1"
     inkscape:current-layer="svg14" />
  <metadata
     id="metadata16">
    <rdf:RDF>
      <cc:Work
         rdf:about="">
        <dc:format>image/svg+xml</dc:format>
        <dc:type
           rdf:resource="http://purl.org/dc/dcmitype/StillImage" />
      </cc:Work>
    </rdf:RDF>
  </metadata>
  <defs
     id="defs5">
    <style
       type="text/css"
       id="current-color-scheme"> .ColorScheme-Text { color:#363636; } </style>
  </defs>
  <g
     id="distribute-horizontal-x">
    <rect
       style="clip-rule:evenodd;fill:#ffffff;fill-opacity:0;fill-rule:evenodd;stroke-width:0.546348;stroke-linejoin:round;stroke-miterlimit:1.41421"
       id="rect817-1"
       width="22"
       height="22"
       x="2.9589844e-06"
       y="1.7578122e-07" />
    <rect
       style="opacity:0.8;fill:#ffffff;fill-opacity:1;stroke-width:0.47132;stroke-linecap:round"
       id="rect990"
       width="21.994965"
       height="21.994965"
       x="0.0024976172"
       y="-21.997465"
       ry="6"
       transform="rotate(90)" />
    <path
       style="color:#000000;fill:#242424;fill-opacity:1;stroke-width:0.855273;-inkscape-stroke:none"
       d="m 14.933843,8.7438832 c 0.167027,-0.1670093 0.167027,-0.437772 0,-0.6047727 l -1.088601,-1.08861 c -0.167026,-0.1670009 -0.437729,-0.1670009 -0.604765,0 -0.167034,0.1670008 -0.167034,0.437772 0,0.6047728 l 1.088593,1.0886099 c 0.167035,0.1670009 0.437824,0.1670009 0.604773,0 z M 9.127969,13.944982 c 0.1670009,0.167036 0.1670009,0.437817 0,0.604766 -0.1670094,0.167035 -0.437772,0.167035 -0.6047727,0 L 7.4345862,13.461154 c -0.1670008,-0.166947 -0.1670008,-0.437729 0,-0.604763 0.1670008,-0.16695 0.4377721,-0.16695 0.6047728,0 z m 8.00487,-9.077791 c -0.489645,-0.4896101 -1.283433,-0.4896101 -1.773078,0 L 14.829149,5.3978202 14.61995,5.1886287 c -0.617329,-0.617354 -1.618264,-0.617354 -2.235602,0 -0.07449,0.074409 -0.140009,0.1546079 -0.196627,0.2391431 -0.624008,-0.1352274 -1.302129,0.039257 -1.787797,0.5249672 -0.7590642,0.7590558 -0.7590642,1.9897439 0,2.7488081 L 10.962677,9.2642919 9.279096,10.947881 8.7163427,10.385129 c -0.7590643,-0.7590648 -1.9897438,-0.7590648 -2.7488081,-8e-6 -0.4856331,0.485632 -0.6601689,1.163726 -0.5249843,1.787649 -0.084587,0.05661 -0.1647601,0.122219 -0.2392031,0.196629 -0.6173539,0.617422 -0.6173539,1.618349 0,2.235686 l 0.2092771,0.209284 -0.5454169,0.545409 c -0.4896101,0.489559 -0.4896101,1.283425 0,1.773069 0.4896103,0.489559 1.2834243,0.489559 1.7730345,0 l 0.5454253,-0.545493 0.2090717,0.209113 c 0.617354,0.617337 1.6182812,0.617337 2.2356352,0 0.074409,-0.0744 0.1399827,-0.154633 0.1965848,-0.239135 0.6239991,0.13522 1.3021031,-0.03935 1.7878141,-0.524967 0.759055,-0.759056 0.759055,-1.989794 0,-2.74885 l -0.5626,-0.5626 1.683522,-1.683606 0.562684,0.562685 c 0.759056,0.759056 1.98971,0.759056 2.748766,0 0.485625,-0.485625 0.660185,-1.163745 0.524967,-1.7877109 0.08459,-0.056618 0.164812,-0.1221844 0.239221,-0.1966275 0.617336,-0.617354 0.617336,-1.6182812 0,-2.2356352 L 16.602218,7.1708632 17.13283,6.6402341 c 0.489559,-0.4896103 0.489559,-1.2834328 9e-6,-1.7730431 z m -1.135377,1.6988993 -0.563548,-0.5634972 0.53062,-0.5306292 c 0.15566,-0.1556086 0.407881,-0.1556086 0.563539,0 0.155576,0.1556086 0.155576,0.4078887 0,0.5634974 z m -3.866523,3.8664717 -1.683573,1.683589 -0.5634972,-0.56354 1.6836162,-1.6835462 z m -5.5500446,5.550026 -0.5454253,0.545409 c -0.1556001,0.15566 -0.4078802,0.15566 -0.5634888,0 -0.1556,-0.155575 -0.1556,-0.407882 0,-0.563455 L 6.0174057,15.419134 Z M 12.989121,5.7933929 c 0.283353,-0.2833436 0.742721,-0.2833436 1.026072,0 l 2.191383,2.1914004 c 0.283353,0.2833438 0.283353,0.7427371 0,1.0260894 -0.08415,0.08416 -0.182771,0.1427196 -0.287372,0.1767937 -0.115975,0.037717 -0.210226,0.1231852 -0.259233,0.2348326 -0.04901,0.1116475 -0.04798,0.2388866 0.0026,0.3497473 0.18414,0.4022957 0.109902,0.8927427 -0.220318,1.2229737 -0.42508,0.424985 -1.114252,0.424985 -1.539237,0 L 11.004544,8.0967743 c -0.425072,-0.4250627 -0.425072,-1.1142083 0,-1.5392709 0.33022,-0.3302128 0.82072,-0.4044762 1.222955,-0.2203272 0.11093,0.050717 0.238109,0.051743 0.349808,0.00257 0.111613,-0.049007 0.197047,-0.1432669 0.234858,-0.2591907 0.03404,-0.1046262 0.09262,-0.2032474 0.176785,-0.2873893 z M 6.5723075,10.989927 c 0.4250626,-0.425088 1.1142082,-0.425088 1.539271,0 l 2.8984295,2.898353 c 0.425072,0.42507 0.425072,1.114251 0,1.539321 -0.330238,0.330222 -0.820721,0.40446 -1.2230246,0.22032 -0.1108521,-0.05072 -0.2380998,-0.05175 -0.3497473,-0.0026 -0.1116474,0.04901 -0.1970893,0.143258 -0.2348496,0.259234 -0.034126,0.104596 -0.092636,0.203213 -0.1767852,0.287372 -0.2833523,0.283352 -0.7427457,0.283352 -1.0260893,0 L 5.80812,14.000577 c -0.2833522,-0.283352 -0.2833522,-0.742807 0,-1.026157 0.08416,-0.08408 0.1827722,-0.142661 0.287415,-0.176786 0.1159152,-0.03772 0.2102178,-0.12316 0.2591822,-0.234774 0.049007,-0.111698 0.047981,-0.238877 -0.00257,-0.349806 C 6.1680368,11.810819 6.242309,11.320318 6.5725131,10.990183 Z"
       id="path924" />
  </g>
</svg>
