<?xml version="1.0" encoding="UTF-8" standalone="no"?>
<svg
   width="32"
   height="32"
   version="1.1"
   id="svg16"
   sodipodi:docname="dropbox.svg"
   inkscape:version="1.1.1 (3bf5ae0d25, 2021-09-20)"
   xmlns:inkscape="http://www.inkscape.org/namespaces/inkscape"
   xmlns:sodipodi="http://sodipodi.sourceforge.net/DTD/sodipodi-0.dtd"
   xmlns="http://www.w3.org/2000/svg"
   xmlns:svg="http://www.w3.org/2000/svg"
   xmlns:rdf="http://www.w3.org/1999/02/22-rdf-syntax-ns#"
   xmlns:cc="http://creativecommons.org/ns#"
   xmlns:dc="http://purl.org/dc/elements/1.1/">
  <metadata
     id="metadata22">
    <rdf:RDF>
      <cc:Work
         rdf:about="">
        <dc:format>image/svg+xml</dc:format>
        <dc:type
           rdf:resource="http://purl.org/dc/dcmitype/StillImage" />
      </cc:Work>
    </rdf:RDF>
  </metadata>
  <defs
     id="defs20">
    <linearGradient
       id="oomox"
       x1="131.53468"
       x2="131.53468"
       y1="146.39674"
       y2="160.8511"
       gradientTransform="scale(1.0377491,0.96362406)"
       gradientUnits="userSpaceOnUse">
      <stop
         offset="0%"
         style="stop-color:#303b3d; stop-opacity:1"
         id="stop18" />
      <stop
         offset="100%"
         style="stop-color:#bc985d; stop-opacity:1"
         id="stop20" />
    </linearGradient>
  </defs>
  <sodipodi:namedview
     pagecolor="#c8c8c8"
     bordercolor="#666666"
     borderopacity="1"
     objecttolerance="10"
     gridtolerance="10"
     guidetolerance="10"
     inkscape:pageopacity="0"
     inkscape:pageshadow="2"
     inkscape:window-width="1920"
     inkscape:window-height="963"
     id="namedview18"
     showgrid="true"
     inkscape:zoom="16"
     inkscape:cx="22.28125"
     inkscape:cy="14.5"
     inkscape:window-x="0"
     inkscape:window-y="40"
     inkscape:window-maximized="1"
     inkscape:current-layer="svg16"
     inkscape:document-rotation="0"
     inkscape:pagecheckerboard="0"
     inkscape:snap-bbox="true"
     inkscape:bbox-nodes="true"
     inkscape:snap-bbox-edge-midpoints="true"
     inkscape:snap-nodes="false">
    <inkscape:grid
       type="xygrid"
       id="grid876"
       originx="0"
       originy="0" />
  </sodipodi:namedview>
  <g
     id="dropbox">
    <rect
       style="opacity:0.00100002;fill:#242424;fill-opacity:1;stroke-width:0.685714;stroke-linecap:round"
       id="rect873"
       width="32"
       height="32"
       x="2.6171874e-06"
       y="-32"
       ry="9"
       transform="rotate(90)" />
    <rect
       style="opacity:0.8;fill:#ffffff;fill-opacity:1;stroke-width:0.664285;stroke-linecap:round"
       id="rect890"
       width="31"
       height="31"
       x="0.50000262"
       y="-31.5"
       ry="8.71875"
       transform="rotate(90)" />
    <path
       id="path854"
       style="fill:#242424;fill-opacity:1;stroke-width:1.40643"
       d="M 11.714518,7 6.0000001,10.461293 10.285482,13.230646 16,9.7693536 Z M 16,9.7693536 21.714518,13.230646 26,10.461293 20.285482,7 Z M 21.714518,13.230646 16,16.691939 20.285482,19.461293 26,16 Z M 16,16.691939 10.285482,13.230646 6.0000001,16 11.714518,19.461293 Z m 0,1.661932 -4.285482,2.754972 -1.429036,-0.8853 v 1.452593 L 16,25 21.714518,21.676136 v -1.452593 l -1.429036,0.8853 z" />
  </g>
  <g
     id="22-22-dropbox"
     transform="translate(0,32)">
    <rect
       style="clip-rule:evenodd;fill:#ffffff;fill-opacity:0;fill-rule:evenodd;stroke-width:0.546348;stroke-linejoin:round;stroke-miterlimit:1.41421"
       id="rect817-1"
       width="22"
       height="22"
       x="32.000004"
       y="-22" />
    <rect
       style="opacity:0.8;fill:#ffffff;fill-opacity:1;stroke-width:0.47132;stroke-linecap:round"
       id="rect990"
       width="21.994965"
       height="21.994965"
       x="-21.997482"
       y="-53.997486"
       ry="6"
       transform="rotate(90)" />
    <path
       id="path2946"
       style="fill:#242424;fill-opacity:1;stroke-width:0.960771"
       d="M 40.000229,-17 36,-14.692871 38.999771,-12.845704 43,-15.154296 Z M 43,-15.154296 47.000229,-12.845704 50,-14.692871 45.999771,-17 Z m 4.000229,2.308592 L 43,-10.538574 45.999771,-8.692871 50,-11 Z M 43,-10.538574 38.999771,-12.845704 36,-11 l 4.000229,2.307129 z m 0,1.1074218 -2.999771,1.8369142 -1.000458,-0.5903325 v 0.9697267 L 43,-5 47.000229,-7.2148438 v -0.9697267 l -1.000458,0.5903325 z" />
  </g>
</svg>
