<?xml version="1.0" encoding="UTF-8" standalone="no"?>
<svg
   xmlns:dc="http://purl.org/dc/elements/1.1/"
   xmlns:cc="http://creativecommons.org/ns#"
   xmlns:rdf="http://www.w3.org/1999/02/22-rdf-syntax-ns#"
   xmlns:svg="http://www.w3.org/2000/svg"
   xmlns="http://www.w3.org/2000/svg"
   xmlns:sodipodi="http://sodipodi.sourceforge.net/DTD/sodipodi-0.dtd"
   xmlns:inkscape="http://www.inkscape.org/namespaces/inkscape"
   id="svg19"
   viewBox="0 0 32 32"
   version="1.1"
   sodipodi:docname="kate.svg"
   inkscape:version="1.0.1 (3bc2e813f5, 2020-09-07, custom)">
  <sodipodi:namedview
     pagecolor="#c8c8c8"
     bordercolor="#666666"
     borderopacity="1"
     objecttolerance="10"
     gridtolerance="10"
     guidetolerance="10"
     inkscape:pageopacity="0"
     inkscape:pageshadow="2"
     inkscape:window-width="1920"
     inkscape:window-height="942"
     id="namedview13"
     showgrid="true"
     inkscape:snap-smooth-nodes="true"
     inkscape:zoom="8.5626212"
     inkscape:cx="17.298455"
     inkscape:cy="20.650427"
     inkscape:window-x="0"
     inkscape:window-y="38"
     inkscape:window-maximized="1"
     inkscape:current-layer="svg19"
     inkscape:document-rotation="0">
    <inkscape:grid
       type="xygrid"
       id="grid838" />
  </sodipodi:namedview>
  <metadata
     id="metadata21">
    <rdf:RDF>
      <cc:Work
         rdf:about="">
        <dc:format>image/svg+xml</dc:format>
        <dc:type
           rdf:resource="http://purl.org/dc/dcmitype/StillImage" />
        <dc:title />
      </cc:Work>
    </rdf:RDF>
  </metadata>
  <defs
     id="defs5">
    <style
       type="text/css"
       id="current-color-scheme"> .ColorScheme-Text { color:#363636; } </style>
  </defs>
  <g
     id="22-22-kate">
    <rect
       style="opacity:0.8;fill:#ffffff;fill-opacity:1;stroke-width:0.47132;stroke-linecap:round"
       id="rect990"
       width="21.994965"
       height="21.994965"
       x="4.9786425"
       y="-70.994965"
       ry="6"
       transform="rotate(90)" />
    <path
       id="path7"
       fill="none"
       d="M 49,5 H 71 V 27 H 49 Z"
       style="color:#363636" />
    <path
       id="path9"
       d="m 59.197875,8.0000178 c -1.167983,0.038667 -2.486077,0.4012085 -3.76691,1.3290321 -1.329743,0.9632701 -1.913468,1.2264091 -2.558465,1.5466391 0.574681,0.04385 4.013153,-0.446891 4.621511,1.572874 0.02833,-0.0087 0.148723,-0.04316 0.188741,-0.05506 -2.47336,0.688376 -3.853082,2.271227 -2.807464,4.469443 1.049353,2.20622 2.862511,2.258955 5.101189,3.756417 1.747707,1.16905 2.175273,1.763802 3.302972,3.384163 -0.234513,-2.238946 -1.318005,-5.124755 -1.824451,-6.396162 1.955264,1.169495 2.946547,1.431478 5.672642,1.717026 -3.537565,-2.51818 -4.208795,-3.010842 -6.23369,-4.73685 -1.358468,0.06848 -1.209513,0.05628 -2.010578,0.102232 1.054599,1.488214 1.472028,3.675136 -0.456122,4.076291 -1.804798,0.375473 -3.546101,-1.183456 -3.051305,-2.852105 0.537269,-1.811913 2.856997,-1.462958 5.289984,-1.77732 2.432898,-0.314307 4.655481,-2.700749 5.992516,-4.4668636 C 64.749335,10.32116 62.300163,11.06444 59.601725,11.83767 59.05519,10.770532 58.355841,8.7542624 62.063169,8.6134001 61.384095,8.244935 60.365974,7.9613251 59.197991,8 Z"
       style="color:#363636;fill:#242424;fill-opacity:1;stroke-width:0.889282" />
  </g>
  <g
     id="kate">
    <rect
       style="opacity:0.00100002;fill:#242424;fill-opacity:1;stroke-width:0.685714;stroke-linecap:round"
       id="rect873"
       width="32"
       height="32"
       x="2.6171874e-06"
       y="-32"
       ry="9"
       transform="rotate(90)" />
    <rect
       style="opacity:0.8;fill:#ffffff;fill-opacity:1;stroke-width:0.664285;stroke-linecap:round"
       id="rect890"
       width="31"
       height="31"
       x="0.50000262"
       y="-31.5"
       ry="8.71875"
       transform="rotate(90)" />
    <rect
       id="rect12"
       fill="none"
       height="32"
       width="32"
       y="-1e-06"
       x="-2.8954e-08"
       style="color:#363636" />
    <path
       id="path14"
       d="m 15.546,7.6845 c -1.3134,0.04348 -2.7956,0.45116 -4.2359,1.4945 -1.4953,1.0832 -2.1517,1.3791 -2.877,1.7392 0.64623,0.04931 4.5128,-0.50253 5.1969,1.7687 0.03186,-0.0098 0.16724,-0.04853 0.21224,-0.06191 -2.7813,0.77408 -4.3328,2.554 -3.157,5.0259 1.18,2.4809 3.2189,2.5402 5.7363,4.2241 1.9653,1.3146 2.4461,1.9834 3.7142,3.8055 -0.26371,-2.5177 -1.4821,-5.7628 -2.0516,-7.1925 2.1987,1.3151 3.3134,1.6097 6.3789,1.9308 -3.978,-2.8317 -4.7328,-3.3857 -7.0098,-5.3266 -1.5276,0.07701 -1.3601,0.06329 -2.2609,0.11496 1.1859,1.6735 1.6553,4.1327 -0.51291,4.5838 -2.0295,0.42222 -3.9876,-1.3308 -3.4312,-3.2072 0.60416,-2.0375 3.2127,-1.6451 5.9486,-1.9986 2.7358,-0.35344 5.2351,-3.037 6.7386,-5.023 -2.1468,0.73248 -4.9009,1.5683 -7.9353,2.4378 -0.61458,-1.2 -1.401,-3.4673 2.7679,-3.6257 -0.76362,-0.41434 -1.9085,-0.73326 -3.2219,-0.68977 z"
       style="color:#363636;fill:#242424;fill-opacity:1" />
  </g>
</svg>
