<?xml version="1.0" encoding="UTF-8" standalone="no"?>
<!-- Created with Inkscape (http://www.inkscape.org/) -->

<svg
   id="svg4153"
   version="1.1"
   inkscape:version="1.1 (c4e8f9ed74, 2021-05-24)"
   width="22"
   height="22"
   sodipodi:docname="kpackagekit.svg"
   viewBox="0 0 22 22"
   xmlns:inkscape="http://www.inkscape.org/namespaces/inkscape"
   xmlns:sodipodi="http://sodipodi.sourceforge.net/DTD/sodipodi-0.dtd"
   xmlns="http://www.w3.org/2000/svg"
   xmlns:svg="http://www.w3.org/2000/svg"
   xmlns:rdf="http://www.w3.org/1999/02/22-rdf-syntax-ns#"
   xmlns:cc="http://creativecommons.org/ns#"
   xmlns:dc="http://purl.org/dc/elements/1.1/">
  <metadata
     id="metadata4159">
    <rdf:RDF>
      <cc:Work
         rdf:about="">
        <dc:format>image/svg+xml</dc:format>
        <dc:type
           rdf:resource="http://purl.org/dc/dcmitype/StillImage" />
        <dc:title />
      </cc:Work>
    </rdf:RDF>
  </metadata>
  <defs
     id="defs4157">
    <style
       type="text/css"
       id="current-color-scheme">
      .ColorScheme-Text {
        color:#31363b;
      }
      .ColorScheme-Background {
        color:#eff0f1;
      }
      .ColorScheme-Highlight {
        color:#3daee9;
      }
      .ColorScheme-ViewText {
        color:#31363b;
      }
      .ColorScheme-ViewBackground {
        color:#fcfcfc;
      }
      .ColorScheme-ViewHover {
        color:#93cee9;
      }
      .ColorScheme-ViewFocus{
        color:#3daee9;
      }
      .ColorScheme-ButtonText {
        color:#31363b;
      }
      .ColorScheme-ButtonBackground {
        color:#eff0f1;
      }
      .ColorScheme-ButtonHover {
        color:#93cee9;
      }
      .ColorScheme-ButtonFocus{
        color:#3daee9;
      }
      </style>
  </defs>
  <sodipodi:namedview
     pagecolor="#363636"
     bordercolor="#666666"
     borderopacity="1"
     objecttolerance="10"
     gridtolerance="10000"
     guidetolerance="10"
     inkscape:pageopacity="0"
     inkscape:pageshadow="2"
     inkscape:window-width="1920"
     inkscape:window-height="962"
     id="namedview4155"
     inkscape:document-units="px"
     showgrid="true"
     inkscape:showpageshadow="false"
     borderlayer="true"
     inkscape:zoom="8.3409091"
     inkscape:cx="15.286104"
     inkscape:cy="7.73297"
     inkscape:window-x="0"
     inkscape:window-y="40"
     inkscape:window-maximized="1"
     inkscape:current-layer="svg4153"
     inkscape:pagecheckerboard="0">
    <inkscape:grid
       type="xygrid"
       id="grid4140" />
    <sodipodi:guide
       position="0,22"
       orientation="22,0"
       id="guide4146" />
    <sodipodi:guide
       position="0,0"
       orientation="0,22"
       id="guide4148" />
    <sodipodi:guide
       position="22,0"
       orientation="-22,0"
       id="guide4150" />
    <sodipodi:guide
       position="3,19"
       orientation="16,0"
       id="guide4154" />
    <sodipodi:guide
       position="18,3"
       orientation="0,16"
       id="guide4156" />
    <sodipodi:guide
       position="19,3"
       orientation="-16,0"
       id="guide4158" />
    <sodipodi:guide
       position="19,19"
       orientation="0,-16"
       id="guide4160" />
  </sodipodi:namedview>
  <inkscape:clipboard
     style="opacity:0.01000001;fill:#00000f;fill-opacity:0;stroke-width:1;stroke-linecap:butt;stroke-linejoin:miter;stroke-miterlimit:4;stroke-dasharray:none;stroke-dashoffset:0;stroke-opacity:1;stroke:none"
     min="0,0"
     max="22,22" />
  <g
     id="kpackagekit-inactive">
    <rect
       transform="rotate(90)"
       ry="6.4166665"
       y="0"
       x="0"
       height="22"
       width="22"
       id="rect882"
       style="opacity:0.8;fill:#ffffff;fill-opacity:1;stroke-width:0.471428;stroke-linecap:round" />
    <rect
       y="-2.6645353e-15"
       x="-22"
       height="22"
       width="22"
       id="rect4214-3"
       style="fill:none;fill-opacity:0.599057;stroke:none" />
    <g
       transform="translate(22,-1)"
       id="g928"
       style="fill:#fffff3;fill-opacity:1">
      <path
         inkscape:connector-curvature="0"
         style="opacity:1;fill:#242424;fill-opacity:1;stroke:none;stroke-width:0.991031;stroke-miterlimit:4;stroke-dasharray:none;stroke-opacity:1"
         d="m -35,8 v 1 h 8 v 9 h -3 v 1 h 3 c 0.554,0 1,-0.446 1,-1 V 9 c 0,-0.554 -0.446,-1 -1,-1 z m -6,2 v 8 c 0,0.554 0.446,1 1,1 h 3 v -1 h -3 v -8 z m 4,8 v 1 h 7 v -1 z"
         id="path854"
         sodipodi:nodetypes="ccccccssssccsscccccccccc" />
      <path
         style="opacity:1;fill:#242424;fill-opacity:1;stroke:none;stroke-width:0.991031;stroke-miterlimit:4;stroke-dasharray:none;stroke-opacity:1"
         d="m -35,8 h -1 v 1 h -5 v 1 h 5 c 0.554,0 1,-0.446 1,-1 z"
         id="rect843"
         inkscape:connector-curvature="0" />
      <path
         inkscape:connector-curvature="0"
         style="opacity:1;fill:#242424;fill-opacity:1;stroke:none;stroke-width:0.991031;stroke-miterlimit:4;stroke-dasharray:none;stroke-opacity:1"
         d="m -40,7 v 1 h 4 v 1 h 1 V 8 c 0,-0.554 -0.446,-1 -1,-1 z"
         id="path856" />
      <path
         inkscape:connector-curvature="0"
         style="opacity:1;fill:#242424;fill-opacity:1;stroke:none;stroke-width:2;stroke-miterlimit:4;stroke-dasharray:none;stroke-opacity:1"
         d="m -41,8 v 2 h 1 V 7 c -0.554,0 -1,0.446 -1,1 z"
         id="rect858" />
    </g>
  </g>
  <g
     id="kpackagekit-updates">
    <rect
       transform="rotate(90)"
       ry="6.4166665"
       y="-22"
       x="0"
       height="22"
       width="22"
       id="rect1148"
       style="opacity:0.8;fill:#ffffff;fill-opacity:1;stroke-width:0.471428;stroke-linecap:round" />
    <rect
       style="fill:none;fill-opacity:0.599057;stroke:none"
       id="rect4212-6"
       width="22"
       height="22"
       x="0"
       y="-2.6645353e-15" />
    <g
       id="g954"
       transform="translate(45,-1)">
      <path
         id="path930"
         d="m -35,8 v 1 h 8 v 9 h -3 v 1 h 3 c 0.554,0 1,-0.446 1,-1 V 9 c 0,-0.554 -0.446,-1 -1,-1 z m -6,2 v 8 c 0,0.554 0.446,1 1,1 h 3 v -1 h -3 v -8 z m 4,8 v 1 h 7 v -1 z"
         style="opacity:1;fill:#242424;fill-opacity:1;stroke:none;stroke-width:0.991031;stroke-miterlimit:4;stroke-dasharray:none;stroke-opacity:1"
         inkscape:connector-curvature="0"
         sodipodi:nodetypes="ccccccssssccsscccccccccc" />
      <path
         inkscape:connector-curvature="0"
         id="path932"
         d="m -35,8 h -1 v 1 h -5 v 1 h 5 c 0.554,0 1,-0.446 1,-1 z"
         style="opacity:1;fill:#242424;fill-opacity:1;stroke:none;stroke-width:0.991031;stroke-miterlimit:4;stroke-dasharray:none;stroke-opacity:1" />
      <path
         id="path934"
         d="m -40,7 v 1 h 4 v 1 h 1 V 8 c 0,-0.554 -0.446,-1 -1,-1 z"
         style="opacity:1;fill:#242424;fill-opacity:1;stroke:none;stroke-width:0.991031;stroke-miterlimit:4;stroke-dasharray:none;stroke-opacity:1"
         inkscape:connector-curvature="0" />
      <path
         id="path936"
         d="m -41,8 v 2 h 1 V 7 c -0.554,0 -1,0.446 -1,1 z"
         style="opacity:1;fill:#242424;fill-opacity:1;stroke:none;stroke-width:2;stroke-miterlimit:4;stroke-dasharray:none;stroke-opacity:1"
         inkscape:connector-curvature="0" />
    </g>
    <path
       inkscape:connector-curvature="0"
       id="path4180-0"
       d="M 16,3 A 3,3 0 0 0 13,6 3,3 0 0 0 16,9 3,3 0 0 0 19,6 3,3 0 0 0 16,3 Z"
       style="fill:#1ec864;fill-opacity:1;stroke:none" />
    <path
       class="ColorScheme-Background"
       inkscape:connector-curvature="0"
       id="path4167-6"
       d="m 16,4 2,2 H 17 V 8 H 15 V 6 h -1 l 1,-1 z"
       style="color:#eff0f1;fill:#242424;fill-opacity:1;stroke:none" />
  </g>
  <g
     id="kpackagekit-security">
    <rect
       transform="rotate(90)"
       ry="6.4166665"
       y="-44"
       x="0"
       height="22"
       width="22"
       id="rect2005"
       style="opacity:0.8;fill:#ffffff;fill-opacity:1;stroke-width:0.471428;stroke-linecap:round" />
    <rect
       style="fill:none;fill-opacity:0.599057;stroke:none"
       id="rect4208-2"
       width="22"
       height="22"
       x="22"
       y="-2.6645353e-15" />
    <g
       transform="translate(66,-1)"
       id="g980">
      <path
         inkscape:connector-curvature="0"
         style="opacity:1;fill:#242424;fill-opacity:1;stroke:none;stroke-width:0.991031;stroke-miterlimit:4;stroke-dasharray:none;stroke-opacity:1"
         d="m -35,8 v 1 h 8 v 9 h -3 v 1 h 3 c 0.554,0 1,-0.446 1,-1 V 9 c 0,-0.554 -0.446,-1 -1,-1 z m -6,2 v 8 c 0,0.554 0.446,1 1,1 h 3 v -1 h -3 v -8 z m 4,8 v 1 h 7 v -1 z"
         id="path956"
         sodipodi:nodetypes="ccccccssssccsscccccccccc" />
      <path
         style="opacity:1;fill:#242424;fill-opacity:1;stroke:none;stroke-width:0.991031;stroke-miterlimit:4;stroke-dasharray:none;stroke-opacity:1"
         d="m -35,8 h -1 v 1 h -5 v 1 h 5 c 0.554,0 1,-0.446 1,-1 z"
         id="path958"
         inkscape:connector-curvature="0" />
      <path
         inkscape:connector-curvature="0"
         style="opacity:1;fill:#242424;fill-opacity:1;stroke:none;stroke-width:0.991031;stroke-miterlimit:4;stroke-dasharray:none;stroke-opacity:1"
         d="m -40,7 v 1 h 4 v 1 h 1 V 8 c 0,-0.554 -0.446,-1 -1,-1 z"
         id="path960" />
      <path
         inkscape:connector-curvature="0"
         style="opacity:1;fill:#242424;fill-opacity:1;stroke:none;stroke-width:2;stroke-miterlimit:4;stroke-dasharray:none;stroke-opacity:1"
         d="m -41,8 v 2 h 1 V 7 c -0.554,0 -1,0.446 -1,1 z"
         id="path962" />
    </g>
    <path
       id="path4191-6"
       d="m 38,3 c 0,1 -2,1 -2,1 v 3 c 0,1 1,1 2,2 1,-1 2,-1 2,-2 V 4 c 0,0 -2,0 -2,-1 z"
       style="fill:#ffc850;fill-opacity:1;fill-rule:evenodd;stroke:none;stroke-width:1px;stroke-linecap:butt;stroke-linejoin:miter;stroke-opacity:1"
       inkscape:connector-curvature="0" />
  </g>
  <g
     id="kpackagekit-important">
    <rect
       transform="rotate(90)"
       ry="6.4166665"
       y="-66"
       x="0"
       height="22"
       width="22"
       id="rect2913"
       style="opacity:0.8;fill:#ffffff;fill-opacity:1;stroke-width:0.471428;stroke-linecap:round" />
    <rect
       y="-2.6645353e-15"
       x="44"
       height="22"
       width="22"
       id="rect4206-1"
       style="fill:none;fill-opacity:0.599057;stroke:none" />
    <g
       id="g1006"
       transform="translate(89,-1)">
      <path
         id="path982"
         d="m -35,8 v 1 h 8 v 9 h -3 v 1 h 3 c 0.554,0 1,-0.446 1,-1 V 9 c 0,-0.554 -0.446,-1 -1,-1 z m -6,2 v 8 c 0,0.554 0.446,1 1,1 h 3 v -1 h -3 v -8 z m 4,8 v 1 h 7 v -1 z"
         style="opacity:1;fill:#242424;fill-opacity:1;stroke:none;stroke-width:0.991031;stroke-miterlimit:4;stroke-dasharray:none;stroke-opacity:1"
         inkscape:connector-curvature="0"
         sodipodi:nodetypes="ccccccssssccsscccccccccc" />
      <path
         inkscape:connector-curvature="0"
         id="path984"
         d="m -35,8 h -1 v 1 h -5 v 1 h 5 c 0.554,0 1,-0.446 1,-1 z"
         style="opacity:1;fill:#242424;fill-opacity:1;stroke:none;stroke-width:0.991031;stroke-miterlimit:4;stroke-dasharray:none;stroke-opacity:1" />
      <path
         id="path986"
         d="m -40,7 v 1 h 4 v 1 h 1 V 8 c 0,-0.554 -0.446,-1 -1,-1 z"
         style="opacity:1;fill:#242424;fill-opacity:1;stroke:none;stroke-width:0.991031;stroke-miterlimit:4;stroke-dasharray:none;stroke-opacity:1"
         inkscape:connector-curvature="0" />
      <path
         id="path988"
         d="m -41,8 v 2 h 1 V 7 c -0.554,0 -1,0.446 -1,1 z"
         style="opacity:1;fill:#242424;fill-opacity:1;stroke:none;stroke-width:2;stroke-miterlimit:4;stroke-dasharray:none;stroke-opacity:1"
         inkscape:connector-curvature="0" />
    </g>
    <path
       inkscape:connector-curvature="0"
       id="path4202-8"
       d="m 60,3 3,5 h -6 z"
       style="fill:#ffc850;fill-opacity:1;fill-rule:evenodd;stroke:none;stroke-width:1px;stroke-linecap:butt;stroke-linejoin:miter;stroke-opacity:1" />
  </g>
</svg>
