<?xml version="1.0" encoding="UTF-8" standalone="no"?>
<svg
   id="svg4153"
   version="1.1"
   width="22"
   height="22"
   viewBox="0 0 22 22"
   sodipodi:docname="mail.svg"
   inkscape:version="1.1.1 (3bf5ae0d25, 2021-09-20)"
   xmlns:inkscape="http://www.inkscape.org/namespaces/inkscape"
   xmlns:sodipodi="http://sodipodi.sourceforge.net/DTD/sodipodi-0.dtd"
   xmlns="http://www.w3.org/2000/svg"
   xmlns:svg="http://www.w3.org/2000/svg"
   xmlns:rdf="http://www.w3.org/1999/02/22-rdf-syntax-ns#"
   xmlns:cc="http://creativecommons.org/ns#"
   xmlns:dc="http://purl.org/dc/elements/1.1/">
  <sodipodi:namedview
     id="namedview12"
     pagecolor="#c8c8c8"
     bordercolor="#999999"
     borderopacity="1"
     inkscape:pageshadow="0"
     inkscape:pageopacity="0"
     inkscape:pagecheckerboard="0"
     showgrid="true"
     inkscape:snap-bbox="true"
     inkscape:snap-bbox-edge-midpoints="true"
     inkscape:bbox-nodes="true"
     inkscape:zoom="18.568182"
     inkscape:cx="25.716034"
     inkscape:cy="3.7968176"
     inkscape:window-width="1920"
     inkscape:window-height="1002"
     inkscape:window-x="0"
     inkscape:window-y="0"
     inkscape:window-maximized="1"
     inkscape:current-layer="svg4153">
    <inkscape:grid
       type="xygrid"
       id="grid846" />
  </sodipodi:namedview>
  <metadata
     id="metadata4159">
    <rdf:RDF>
      <cc:Work
         rdf:about="">
        <dc:format>image/svg+xml</dc:format>
        <dc:type
           rdf:resource="http://purl.org/dc/dcmitype/StillImage" />
      </cc:Work>
    </rdf:RDF>
  </metadata>
  <defs
     id="defs4157">
    <style
       type="text/css"
       id="current-color-scheme">
      .ColorScheme-Text {
        color:#31363b;
      }
      .ColorScheme-Background {
        color:#eff0f1;
      }
      .ColorScheme-Highlight {
        color:#3daee9;
      }
      .ColorScheme-ViewText {
        color:#31363b;
      }
      .ColorScheme-ViewBackground {
        color:#fcfcfc;
      }
      .ColorScheme-ViewHover {
        color:#93cee9;
      }
      .ColorScheme-ViewFocus{
        color:#3daee9;
      }
      .ColorScheme-ButtonText {
        color:#31363b;
      }
      .ColorScheme-ButtonBackground {
        color:#eff0f1;
      }
      .ColorScheme-ButtonHover {
        color:#93cee9;
      }
      .ColorScheme-ButtonFocus{
        color:#3daee9;
      }
      </style>
  </defs>
  <g
     id="mail-unread">
    <rect
       transform="rotate(90)"
       ry="6.4166665"
       y="-22"
       x="0"
       height="22"
       width="22"
       id="rect882"
       style="opacity:0.8;fill:#ffffff;fill-opacity:1;stroke-width:0.471428;stroke-linecap:round" />
    <rect
       y="0"
       x="0"
       height="22"
       width="22"
       id="rect4193-3"
       style="fill:none;fill-opacity:1;stroke:none;stroke-width:0.1;stroke-linecap:square;stroke-linejoin:miter;stroke-miterlimit:4;stroke-dasharray:none;stroke-dashoffset:0;stroke-opacity:1" />
    <path
       style="color:#000000;fill:#242424;fill-opacity:1;-inkscape-stroke:none"
       d="M 16.5,4 C 17.8807,4 19,5.11929 19,6.5 v 9 C 19,16.8807 17.8807,18 16.5,18 H 5.5 C 4.11929,18 3,16.8807 3,15.5 v -9 C 3,5.11929 4.11929,4 5.5,4 Z m 1.5,3.961 -6.7465,3.97 c -0.1304,0.0767 -0.28689,0.0895 -0.42599,0.0383 L 10.74649,11.931 4,7.963 V 15.5 C 4,16.3284 4.67157,17 5.5,17 h 11 C 17.3284,17 18,16.3284 18,15.5 Z M 16.5,5 H 5.5 C 4.67157,5 4,5.67157 4,6.5 v 0.302 l 7,4.1179 7,-4.1189 V 6.5 C 18,5.67157 17.3284,5 16.5,5 Z"
       id="path839" />
  </g>
  <g
     id="mail-unread-new">
    <rect
       transform="rotate(90)"
       ry="6.4166665"
       y="-51"
       x="0"
       height="22"
       width="22"
       id="rect945"
       style="opacity:0.8;fill:#ffffff;fill-opacity:1;stroke-width:0.471428;stroke-linecap:round" />
    <rect
       y="0"
       x="29"
       height="22"
       width="22"
       id="rect947"
       style="fill:none;fill-opacity:1;stroke:none;stroke-width:0.1;stroke-linecap:square;stroke-linejoin:miter;stroke-miterlimit:4;stroke-dasharray:none;stroke-dashoffset:0;stroke-opacity:1" />
    <path
       style="color:#000000;fill:#242424;fill-opacity:1;-inkscape-stroke:none"
       d="M 45.5,4 C 46.8807,4 48,5.11929 48,6.5 v 9 c 0,1.3807 -1.1193,2.5 -2.5,2.5 h -11 C 33.11929,18 32,16.8807 32,15.5 v -9 C 32,5.11929 33.11929,4 34.5,4 Z m 1.5,3.961 -6.7465,3.97 c -0.1304,0.0767 -0.28689,0.0895 -0.42599,0.0383 L 39.74649,11.931 33,7.963 V 15.5 c 0,0.8284 0.67157,1.5 1.5,1.5 h 11 C 46.3284,17 47,16.3284 47,15.5 Z M 45.5,5 h -11 C 33.67157,5 33,5.67157 33,6.5 v 0.302 l 7,4.1179 7,-4.1189 V 6.5 C 47,5.67157 46.3284,5 45.5,5 Z"
       id="path949" />
    <circle
       r="2"
       cy="17"
       cx="47"
       id="path882"
       style="fill:#3278ff;fill-opacity:1;stroke:none;stroke-width:1;stroke-miterlimit:4;stroke-dasharray:none;stroke-opacity:1" />
  </g>
</svg>
