<?xml version="1.0" encoding="UTF-8" standalone="no"?>
<svg
   xmlns:dc="http://purl.org/dc/elements/1.1/"
   xmlns:cc="http://creativecommons.org/ns#"
   xmlns:rdf="http://www.w3.org/1999/02/22-rdf-syntax-ns#"
   xmlns:svg="http://www.w3.org/2000/svg"
   xmlns="http://www.w3.org/2000/svg"
   xmlns:sodipodi="http://sodipodi.sourceforge.net/DTD/sodipodi-0.dtd"
   xmlns:inkscape="http://www.inkscape.org/namespaces/inkscape"
   inkscape:version="1.0 (4035a4fb49, 2020-05-01)"
   sodipodi:docname="media.svg"
   id="svg53"
   viewBox="0 0 20.108389 8.4667"
   version="1.1"
   height="32"
   width="76">
  <sodipodi:namedview
     inkscape:current-layer="svg53"
     inkscape:window-maximized="1"
     inkscape:window-y="0"
     inkscape:window-x="0"
     inkscape:cy="10.000844"
     inkscape:cx="10.566294"
     inkscape:zoom="5.354473"
     inkscape:guide-bbox="true"
     showguides="true"
     inkscape:snap-bbox-edge-midpoints="true"
     inkscape:bbox-nodes="true"
     inkscape:snap-bbox="true"
     showgrid="true"
     id="namedview36"
     inkscape:window-height="985"
     inkscape:window-width="1920"
     inkscape:pageshadow="2"
     inkscape:pageopacity="0"
     guidetolerance="10"
     gridtolerance="10"
     objecttolerance="10"
     borderopacity="1"
     bordercolor="#666666"
     pagecolor="#08c035"
     inkscape:document-rotation="0">
    <inkscape:grid
       id="grid861"
       type="xygrid" />
  </sodipodi:namedview>
  <metadata
     id="metadata57">
    <rdf:RDF>
      <cc:Work
         rdf:about="">
        <dc:format>image/svg+xml</dc:format>
        <dc:type
           rdf:resource="http://purl.org/dc/dcmitype/StillImage" />
        <dc:title />
      </cc:Work>
    </rdf:RDF>
  </metadata>
  <defs
     id="defs3">
    <style
       id="current-color-scheme"
       type="text/css">.ColorScheme-Text { color:#363636; } </style>
  </defs>
  <g
     transform="matrix(0.26458,0,0,0.26458,0.86025506,10.054524)"
     id="media-record">
    <rect
       id="rect20"
       fill-opacity="0"
       height="22"
       width="22"
       y="4.3869e-05"
       x="73" />
    <path
       id="path22"
       fill="currentColor"
       d="m 83.99,2 a 9,9 0 0 0 -8.9902,9 9,9 0 0 0 9,9 9,9 0 0 0 9,-9 9,9 0 0 0 -9,-9 9,9 0 0 0 -0.0098,0 z m -0.08594,2 a 7,7 0 0 1 0.002,0 7,7 0 0 1 0.09371,0 7,7 0 0 1 7,7 7,7 0 0 1 -7,7 7,7 0 0 1 -7,-7 7,7 0 0 1 6.9043,-7 z m 0.03516,3 a 4,4 0 0 0 -3.9395,4 4,4 0 0 0 4,4 4,4 0 0 0 4,-4 4,4 0 0 0 -4,-4 4,4 0 0 0 -0.06055,0 z"
       class="ColorScheme-Text" />
  </g>
  <g
     transform="matrix(0.26458,0,0,0.26458,33.271468,16.139876)"
     id="media-seek-forward">
    <rect
       id="rect25"
       fill-opacity="0"
       height="22"
       width="22"
       y="-23"
       x="0.00021085" />
    <path
       id="path27"
       fill="currentColor"
       d="m 133.99,2 a 9,9 0 0 0 -8.9902,9 9,9 0 0 0 9,9 9,9 0 0 0 9,-9 9,9 0 0 0 -9,-9 9,9 0 0 0 -0.01,0 z m -0.0859,2 a 7,7 0 0 1 0.002,0 7,7 0 0 1 0.0937,0 7,7 0 0 1 7,7 7,7 0 0 1 -7,7 7,7 0 0 1 -7,-7 7,7 0 0 1 6.9043,-7 z m -3.3418,3.8027 c -0.16096,0.01995 -0.29457,0.089885 -0.40234,0.21094 -0.10776,0.12106 -0.16211,0.26348 -0.16211,0.42578 v 5.1211 c 0,0.1623 0.0544,0.30472 0.16211,0.42578 0.10776,0.12106 0.24138,0.19098 0.40234,0.21094 0.16097,0.01996 0.30705,-0.01563 0.44141,-0.10742 l 2.9941,-2.0645 v 1.5352 c 0,0.1623 0.0543,0.30472 0.16211,0.42578 0.10776,0.12106 0.24138,0.19098 0.40234,0.21094 0.16097,0.01996 0.30705,-0.01563 0.44141,-0.10742 l 3.7148,-2.5605 c 0.1184,-0.08115 0.20088,-0.19181 0.2461,-0.32617 0.0452,-0.13569 0.0452,-0.26992 0,-0.4043 -0.0452,-0.13436 -0.12707,-0.2437 -0.24414,-0.32617 l -3.7168,-2.5625 c -0.13392,-0.093122 -0.28088,-0.12782 -0.44141,-0.10742 -0.16096,0.01995 -0.29457,0.089885 -0.40234,0.21094 -0.10775,0.12106 -0.16211,0.26348 -0.16211,0.42578 v 1.5352 l -2.9941,-2.0645 c -0.13392,-0.093122 -0.28088,-0.12782 -0.44141,-0.10742 z"
       transform="translate(-123,-23)"
       class="ColorScheme-Text" />
  </g>
  <g
     transform="matrix(-0.26458,0,0,0.26458,32.543874,16.139876)"
     id="media-seek-backward">
    <rect
       id="rect30"
       fill-opacity="0"
       height="22"
       width="22"
       y="-23"
       x="0.00021085" />
    <path
       id="path32"
       fill="currentColor"
       d="m 109,2 a 9,9 0 0 0 -9,9 9,9 0 0 0 9,9 9,9 0 0 0 9,-9 9,9 0 0 0 -8.9902,-9 9,9 0 0 0 -0.01,0 z m 0,2 a 7,7 0 0 1 0.0937,0 7,7 0 0 1 6.9062,7 7,7 0 0 1 -7,7 7,7 0 0 1 -7,-7 7,7 0 0 1 7,-7 z m -0.5625,3.8027 c -0.16052,-0.020399 -0.30748,0.0143 -0.4414,0.10742 l -3.7168,2.5625 c -0.11708,0.08247 -0.1989,0.19181 -0.24414,0.32617 -0.0452,0.13438 -0.0452,0.2686 0,0.4043 0.0452,0.13436 0.12769,0.24502 0.24609,0.32617 l 3.7148,2.5605 c 0.13435,0.0918 0.28044,0.12738 0.4414,0.10742 0.16097,-0.01996 0.29459,-0.08988 0.40235,-0.21094 0.10775,-0.12106 0.16211,-0.26348 0.16211,-0.42578 v -1.5352 l 2.9941,2.0645 c 0.13435,0.0918 0.28044,0.12738 0.4414,0.10742 0.16097,-0.01996 0.29459,-0.08988 0.40235,-0.21094 0.10775,-0.12106 0.16211,-0.26348 0.16211,-0.42578 v -5.1211 c 0,-0.1623 -0.0544,-0.30472 -0.16211,-0.42578 -0.10777,-0.12105 -0.24138,-0.19099 -0.40235,-0.21094 -0.16052,-0.020399 -0.30748,0.0143 -0.4414,0.10742 l -2.9941,2.0645 v -1.5352 c 0,-0.1623 -0.0544,-0.30472 -0.16211,-0.42578 -0.10777,-0.12105 -0.24138,-0.19099 -0.40235,-0.21094 z"
       transform="matrix(-1,0,0,1,120,-23)"
       class="ColorScheme-Text" />
  </g>
  <g
     transform="matrix(0.26458,0,0,0.26458,1.3898478,10.054528)"
     id="media-skip-forward">
    <rect
       id="rect35"
       fill-opacity="0"
       height="22"
       width="22"
       y="3.0518e-05"
       x="170" />
    <path
       id="path37"
       fill="currentColor"
       d="m 180.99,2 a 9,9 0 0 0 -8.9902,9 9,9 0 0 0 9,9 9,9 0 0 0 9,-9 9,9 0 0 0 -9,-9 9,9 0 0 0 -0.01,0 z m -0.0859,2 a 7,7 0 0 1 0.002,0 7,7 0 0 1 0.0937,0 7,7 0 0 1 7,7 7,7 0 0 1 -7,7 7,7 0 0 1 -7,-7 7,7 0 0 1 6.9043,-7 z m -3.3418,3.8027 c -0.16097,0.01995 -0.29457,0.089885 -0.40234,0.21094 -0.1078,0.12106 -0.16215,0.26348 -0.16215,0.42578 v 5.1211 c 0,0.1623 0.0543,0.30472 0.16211,0.42578 0.10775,0.12106 0.24137,0.19098 0.40234,0.21094 0.16097,0.01996 0.30705,-0.01563 0.44141,-0.10742 l 3.7148,-2.5605 c 0.1184,-0.08115 0.20088,-0.19181 0.2461,-0.32617 0.0452,-0.13569 0.0452,-0.26992 0,-0.4043 -0.0452,-0.13436 -0.12706,-0.2437 -0.24414,-0.32617 l -3.7168,-2.5625 c -0.13392,-0.093122 -0.28089,-0.12782 -0.44141,-0.10742 z m 6.4355,0.19727 c -0.554,0 -1,0.446 -1,1 v 4 c 0,0.554 0.446,1 1,1 0.554,0 1,-0.446 1,-1 v -4 c 0,-0.554 -0.446,-1 -1,-1 z"
       class="ColorScheme-Text" />
  </g>
  <g
     transform="matrix(-0.26458,0,0,0.26458,90.619345,10.054528)"
     id="media-skip-backward">
    <rect
       id="rect40"
       fill-opacity="0"
       height="22"
       width="22"
       y="3.0518e-05"
       x="170" />
    <path
       id="path42"
       fill="currentColor"
       d="m 158,2 a 9,9 0 0 0 -9,9 9,9 0 0 0 9,9 9,9 0 0 0 9,-9 9,9 0 0 0 -8.9902,-9 9,9 0 0 0 -0.01,0 z m 0,2 a 7,7 0 0 1 0.0937,0 7,7 0 0 1 6.9062,7 7,7 0 0 1 -7,7 7,7 0 0 1 -7,-7 7,7 0 0 1 7,-7 z m 3.4375,3.8027 c -0.16052,-0.020399 -0.30748,0.0143 -0.4414,0.10742 l -3.7168,2.5625 c -0.11708,0.08247 -0.19894,0.19181 -0.24414,0.32617 -0.0452,0.13438 -0.0452,0.2686 0,0.4043 0.0452,0.13436 0.12769,0.24502 0.24609,0.32617 l 3.7148,2.5605 c 0.13436,0.0918 0.28043,0.12738 0.4414,0.10742 0.16097,-0.01996 0.2946,-0.08988 0.40235,-0.21094 0.1078,-0.12106 0.16211,-0.26348 0.16211,-0.42578 v -5.1211 c 0,-0.1623 -0.0543,-0.30472 -0.16211,-0.42578 -0.10777,-0.12105 -0.24138,-0.19099 -0.40235,-0.21094 z m -6.4355,0.19727 c -0.554,0 -1,0.446 -1,1 v 4 c 0,0.554 0.446,1 1,1 0.554,0 1,-0.446 1,-1 v -4 c 0,-0.554 -0.446,-1 -1,-1 z"
       transform="matrix(-1,0,0,1,339,0)"
       class="ColorScheme-Text" />
  </g>
  <g
     transform="matrix(0,-0.26458,0.26458,0,52.916903,60.853896)"
     id="media-eject">
    <rect
       id="rect45"
       fill-opacity="0"
       height="22"
       width="22"
       y="3.0518e-05"
       x="170" />
    <path
       id="path47"
       fill="currentColor"
       d="m 208,2 a 9,9 0 0 0 -9,9 9,9 0 0 0 0,0.0098 9,9 0 0 0 9,8.9902 9,9 0 0 0 9,-9 9,9 0 0 0 -9,-9 z m -0.0937,2 A 7,7 0 0 1 208,4 a 7,7 0 0 1 7,7 7,7 0 0 1 -7,7 7,7 0 0 1 -7,-6.9062 7,7 0 0 1 0,-0.09375 7,7 0 0 1 6.9062,-7 z M 208,5.7559 c -0.0845,0 -0.16806,0.014769 -0.25195,0.042969 -0.16777,0.0564 -0.30328,0.15849 -0.40625,0.30469 l -3.1992,4.6406 c -0.11628,0.16722 -0.16024,0.35035 -0.13477,0.55078 0.0249,0.201 0.11252,0.36738 0.26367,0.50195 0.15116,0.13456 0.3286,0.20312 0.53125,0.20312 h 6.3945 c 0.20265,0 0.38008,-0.06846 0.53125,-0.20312 0.15116,-0.13454 0.2407,-0.30095 0.26562,-0.50195 0.0249,-0.20099 -0.0221,-0.38301 -0.13672,-0.55078 l -3.1973,-4.6387 c -0.10133,-0.14784 -0.23848,-0.25018 -0.40625,-0.30664 -0.0847,-0.0282 -0.1694,-0.042969 -0.25391,-0.042969 z M 205,13 c -0.55398,0 -1,0.446 -1,1 0,0.554 0.44602,1 1,1 h 6 c 0.55398,0 1,-0.446 1,-1 0,-0.554 -0.44602,-1 -1,-1 z"
       transform="rotate(90,194.5,-2.4991)"
       class="ColorScheme-Text" />
  </g>
  <g
     id="media-playback-pause"
     transform="matrix(0.26458,0,0,0.26458,0.79373371,10.054528)">
    <rect
       x="0.00021085"
       y="3.0110999e-05"
       width="22"
       height="22"
       fill-opacity="0"
       id="rect1029" />
    <path
       class="ColorScheme-Text"
       d="m 10.99,2 a 9,9 0 0 0 -8.9902,9 9,9 0 0 0 9,9 9,9 0 0 0 9,-9 9,9 0 0 0 -9,-9 9,9 0 0 0 -0.0098,0 z m -0.08398,2 a 7,7 0 0 1 0.09375,0 7,7 0 0 1 7,7 7,7 0 0 1 -7,7 7,7 0 0 1 -7,-7 7,7 0 0 1 6.9062,-7 z m -1.9062,4 c -0.554,0 -1,0.446 -1,1 v 4 c 0,0.554 0.446,1 1,1 0.554,0 1,-0.446 1,-1 V 9 c 0,-0.554 -0.446,-1 -1,-1 z m 4,0 c -0.554,0 -1,0.446 -1,1 v 4 c 0,0.554 0.446,1 1,1 0.554,0 1,-0.446 1,-1 V 9 c 0,-0.554 -0.446,-1 -1,-1 z"
       fill="currentColor"
       id="path1031" />
  </g>
  <g
     id="media-playback-start"
     transform="matrix(0.26458,0,0,0.26458,7.1436258,16.139876)">
    <rect
       x="0.00021085"
       y="-23"
       width="22"
       height="22"
       fill-opacity="0"
       id="rect1035" />
    <path
       class="ColorScheme-Text"
       transform="translate(-25.002,-23)"
       d="m 35.992,2 a 9,9 0 0 0 -8.9902,9 9,9 0 0 0 9,9 9,9 0 0 0 9,-9 9,9 0 0 0 -9,-9 9,9 0 0 0 -0.0098,0 z m -0.08594,2 a 7,7 0 0 1 0.002,0 7,7 0 0 1 0.09375,0 7,7 0 0 1 7,7 7,7 0 0 1 -7,7 7,7 0 0 1 -7,-7 7,7 0 0 1 6.9043,-7 z m -1.3477,3.8027 C 34.39739,7.82265 34.26379,7.892585 34.15602,8.01364 34.04826,8.1347 33.99391,8.27712 33.99391,8.43942 v 5.1211 c 0,0.1623 0.05436,0.30472 0.16211,0.42578 0.10776,0.12106 0.24138,0.19098 0.40234,0.21094 0.16097,0.01996 0.30705,-0.01563 0.44141,-0.10742 l 3.7148,-2.5605 c 0.1184,-0.08115 0.20087,-0.19181 0.24609,-0.32617 0.04524,-0.13569 0.04524,-0.26992 0,-0.4043 -0.04524,-0.13436 -0.12706,-0.2437 -0.24414,-0.32617 l -3.7168,-2.5625 C 34.8658,7.817058 34.71884,7.78236 34.55831,7.80276 Z"
       fill="currentColor"
       id="path1037" />
  </g>
  <g
     id="media-playback-stop"
     transform="matrix(0.26458,0,0,0.26458,0.7937337,16.933616)">
    <rect
       x="48"
       y="-26"
       width="22"
       height="22"
       fill-opacity="0"
       id="rect1041" />
    <path
       class="ColorScheme-Text"
       transform="translate(0,-26)"
       d="m 58.99,2 a 9,9 0 0 0 -8.9902,9 9,9 0 0 0 9,9 9,9 0 0 0 9,-9 9,9 0 0 0 -9,-9 9,9 0 0 0 -0.0098,0 z m -0.08594,2 a 7,7 0 0 1 0.002,0 7,7 0 0 1 0.09371,0 7,7 0 0 1 7,7 7,7 0 0 1 -7,7 7,7 0 0 1 -7,-7 7,7 0 0 1 6.9043,-7 z m -1.9043,4 c -0.554,0 -1,0.446 -1,1 v 4 c 0,0.554 0.446,1 1,1 h 4 c 0.554,0 1,-0.446 1,-1 V 9 c 0,-0.554 -0.446,-1 -1,-1 z"
       fill="currentColor"
       id="path1043" />
  </g>
  <g
     transform="translate(-0.26458448,-15.610478)"
     id="media-playback-paused">
    <rect
       style="opacity:0.8;fill:#ffffff;fill-opacity:1;stroke-width:0.124732;stroke-linecap:round"
       id="rect882"
       width="5.8208561"
       height="5.8208561"
       x="16.933399"
       y="-6.6145978"
       ry="1.6977496"
       transform="rotate(90)" />
    <g
       id="g914"
       transform="translate(0,-5.8342917)">
      <path
         transform="matrix(0.26458437,0,0,0.26458437,-1.175e-5,0)"
         d="M 13.859375,90 A 7.025577,7.025577 0 0 0 6.9492188,97.025391 7.025577,7.025577 0 0 0 13.974609,104.05078 7.025577,7.025577 0 0 0 21,97.025391 7.025577,7.025577 0 0 0 13.974609,90 7.025577,7.025577 0 0 0 13.859375,90 Z m 0.115234,1.050781 a 5.9744231,5.9744231 0 0 1 5.97461,5.97461 A 5.9744231,5.9744231 0 0 1 13.974609,103 5.9744231,5.9744231 0 0 1 8,97.025391 a 5.9744231,5.9744231 0 0 1 5.974609,-5.97461 z"
         style="fill:#242424;fill-opacity:1;stroke-width:2.55476;stroke-linecap:round"
         id="path900" />
      <rect
         ry="0.13229218"
         y="25.135515"
         x="3.1750007"
         height="1.3229222"
         width="0.26458436"
         id="rect907"
         style="fill:#242424;fill-opacity:1;stroke-width:0.61776;stroke-linecap:round" />
      <rect
         style="fill:#242424;fill-opacity:1;stroke-width:0.61776;stroke-linecap:round"
         id="rect909"
         width="0.26458436"
         height="1.3229222"
         x="3.9687538"
         y="25.135515"
         ry="0.13229218" />
    </g>
  </g>
  <g
     transform="translate(-1.5942243,-20.63758)"
     id="media-playback-stopped">
    <rect
       style="opacity:0.8;fill:#ffffff;fill-opacity:1;stroke-width:0.124732;stroke-linecap:round"
       id="rect934"
       width="5.8208561"
       height="5.8208561"
       x="21.960503"
       y="-21.173456"
       ry="1.6977496"
       transform="rotate(90)" />
    <path
       id="path936"
       style="fill:#242424;fill-opacity:1;stroke-width:0.67595;stroke-linecap:round"
       d="m 18.225821,23.005405 a 1.8588579,1.8588579 0 0 0 -1.828319,1.858809 1.8588579,1.8588579 0 0 0 1.858808,1.858808 1.8588579,1.8588579 0 0 0 1.858809,-1.858808 1.8588579,1.8588579 0 0 0 -1.858809,-1.858809 1.8588579,1.8588579 0 0 0 -0.03049,0 z m 0.03049,0.27802 a 1.580739,1.580739 0 0 1 1.580789,1.580789 1.580739,1.580739 0 0 1 -1.580789,1.580788 1.580739,1.580739 0 0 1 -1.580788,-1.580788 1.580739,1.580739 0 0 1 1.580788,-1.580789 z" />
    <rect
       style="fill:#242424;fill-opacity:1;stroke-width:1.08821;stroke-linecap:round"
       id="rect938"
       width="1.0395318"
       height="1.0448385"
       x="17.736544"
       y="24.355261"
       ry="0.25108466" />
  </g>
  <g
     id="media-playback-playing"
     transform="translate(0,7.1437779)">
    <rect
       transform="rotate(90)"
       ry="1.6977496"
       y="-12.964622"
       x="-5.8222404"
       height="5.8208561"
       width="5.8208561"
       id="rect924"
       style="opacity:0.8;fill:#ffffff;fill-opacity:1;stroke-width:0.124732;stroke-linecap:round" />
    <path
       d="m 10.016987,-4.777338 a 1.8588579,1.8588579 0 0 0 -1.8283192,1.858809 1.8588579,1.8588579 0 0 0 1.8588082,1.858808 1.8588579,1.8588579 0 0 0 1.858809,-1.858808 1.8588579,1.8588579 0 0 0 -1.858809,-1.858809 1.8588579,1.8588579 0 0 0 -0.03049,0 z m 0.03049,0.27802 a 1.580739,1.580739 0 0 1 1.580789,1.580789 1.580739,1.580739 0 0 1 -1.580789,1.580788 1.580739,1.580739 0 0 1 -1.5807879,-1.580788 1.580739,1.580739 0 0 1 1.5807879,-1.580789 z"
       style="fill:#242424;fill-opacity:1;stroke-width:0.67595;stroke-linecap:round"
       id="path926" />
    <path
       id="rect1058"
       style="fill:#242424;fill-opacity:1;stroke-width:0.529169;stroke-linecap:round"
       d="m 9.6650693,-3.7028027 c -0.03989,0.005 -0.073036,0.022183 -0.099736,0.052194 -0.02671,0.03 -0.040308,0.065197 -0.040308,0.1054202 v 1.2691782 c 0,0.04022 0.013608,0.075934 0.040308,0.1059372 0.0267,0.03 0.059846,0.047243 0.099736,0.052193 0.03989,0.005 0.075741,-0.00405 0.1090376,-0.026872 l 0.9208781,-0.6345892 c 0.02935,-0.02011 0.04978,-0.047315 0.06098,-0.080615 0.01121,-0.03363 0.01121,-0.066955 0,-0.1002526 -0.01121,-0.0333 -0.03145,-0.060693 -0.06046,-0.081133 L 9.7741069,-3.675931 c -0.03319,-0.02308 -0.069261,-0.031932 -0.1090376,-0.026872 z" />
  </g>
</svg>
