<?xml version="1.0" encoding="UTF-8" standalone="no"?>
<svg
   xmlns:dc="http://purl.org/dc/elements/1.1/"
   xmlns:cc="http://creativecommons.org/ns#"
   xmlns:rdf="http://www.w3.org/1999/02/22-rdf-syntax-ns#"
   xmlns:svg="http://www.w3.org/2000/svg"
   xmlns="http://www.w3.org/2000/svg"
   xmlns:sodipodi="http://sodipodi.sourceforge.net/DTD/sodipodi-0.dtd"
   xmlns:inkscape="http://www.inkscape.org/namespaces/inkscape"
   id="svg15"
   viewBox="0 0 22 22"
   version="1.1"
   sodipodi:docname="nepomuk.svg"
   width="22"
   height="22"
   inkscape:version="1.0 (4035a4fb49, 2020-05-01)">
  <sodipodi:namedview
     inkscape:document-rotation="0"
     pagecolor="#00c02f"
     bordercolor="#666666"
     borderopacity="1"
     objecttolerance="10"
     gridtolerance="10"
     guidetolerance="10"
     inkscape:pageopacity="0"
     inkscape:pageshadow="2"
     inkscape:window-width="1920"
     inkscape:window-height="985"
     id="namedview12"
     showgrid="true"
     inkscape:snap-bbox="true"
     inkscape:bbox-nodes="true"
     inkscape:zoom="8.0000004"
     inkscape:cx="-11.070017"
     inkscape:cy="19.576905"
     inkscape:window-x="0"
     inkscape:window-y="0"
     inkscape:window-maximized="1"
     inkscape:current-layer="svg15">
    <inkscape:grid
       type="xygrid"
       id="grid837" />
  </sodipodi:namedview>
  <metadata
     id="metadata19">
    <rdf:RDF>
      <cc:Work
         rdf:about="">
        <dc:format>image/svg+xml</dc:format>
        <dc:type
           rdf:resource="http://purl.org/dc/dcmitype/StillImage" />
        <dc:title />
      </cc:Work>
    </rdf:RDF>
  </metadata>
  <defs
     id="defs3">
    <style
       type="text/css"
       id="current-color-scheme">.ColorScheme-Text { color:#363636; }</style>
    <style
       type="text/css"
       id="current-color-scheme-6">.ColorScheme-Text { color:#363636; }
  </style>
  </defs>
  <g
     id="nepomuk">
    <path
       id="path10"
       fill="none"
       d="M 22,0 V 32 H 54 V 0 Z" />
    <path
       id="path12"
       fill="currentColor"
       d="m 29.125,7.1247 a 9,9 0 0 0 0,12.728 9,9 0 0 0 11.167,1.2347 c 0.04787,0.06034 0.09056,0.12371 0.14639,0.17954 l 5.6569,5.6569 c 0.78347,0.78347 2.045,0.78347 2.8284,0 0.7834,-0.78347 0.78347,-2.045 0,-2.8284 l -5.6569,-5.6569 c -0.05536,-0.05536 -0.11836,-0.09748 -0.17816,-0.14501 a 9,9 0 0 0 -1.2361,-11.169 9,9 0 0 0 -12.728,0 z m 1.4142,1.4142 a 7,7 0 0 1 9.8995,0 7,7 0 0 1 0,9.8995 7,7 0 0 1 -9.8995,0 7,7 0 0 1 0,-9.8995 z"
       class="ColorScheme-Text" />
  </g>
  <g
     id="22-22-nepomuk">
    <path
       id="path5"
       fill="none"
       d="m 0,-0.019 v 22 h 22 v -22 z" />
    <rect
       transform="rotate(90)"
       ry="6.4166665"
       y="-22"
       x="9.5367432e-07"
       height="22"
       width="22"
       id="rect882"
       style="opacity:0.8;fill:#ffffff;fill-opacity:1;stroke-width:0.471428;stroke-linecap:round" />
    <path
       d="m 9.4948239,3.9948249 c -3.0260004,0 -5.4999998,2.474 -5.4999998,5.5 0,3.0260001 2.4739994,5.5000001 5.4999998,5.5000001 a 5.46,5.46 0 0 0 3.1113281,-0.974609 l 3.681641,3.68164 a 1,1 0 1 0 1.414062,-1.414062 l -3.68164,-3.681641 a 5.46,5.46 0 0 0 0.974609,-3.1113281 c 0,-3.026 -2.474,-5.5 -5.5000001,-5.5 z m -0.08984,1.25 a 4.25,4.25 0 0 1 0.08984,0 4.25,4.25 0 0 1 4.2500001,4.25 4.25,4.25 0 0 1 -4.2500001,4.2500001 4.25,4.25 0 0 1 -4.2499998,-4.2500001 4.25,4.25 0 0 1 4.1601568,-4.25 z"
       style="fill:#242424;stroke-width:2;stroke-linecap:round;fill-opacity:1"
       id="rect856" />
  </g>
</svg>
