<?xml version="1.0" encoding="UTF-8" standalone="no"?>
<svg
   xmlns:dc="http://purl.org/dc/elements/1.1/"
   xmlns:cc="http://creativecommons.org/ns#"
   xmlns:rdf="http://www.w3.org/1999/02/22-rdf-syntax-ns#"
   xmlns:svg="http://www.w3.org/2000/svg"
   xmlns="http://www.w3.org/2000/svg"
   xmlns:sodipodi="http://sodipodi.sourceforge.net/DTD/sodipodi-0.dtd"
   xmlns:inkscape="http://www.inkscape.org/namespaces/inkscape"
   viewBox="0 0 22 22"
   version="1.1"
   sodipodi:docname="preferences.svg"
   inkscape:version="1.0 (4035a4fb49, 2020-05-01)"
   id="svg">
  <metadata
     id="metadata27">
    <rdf:RDF>
      <cc:Work
         rdf:about="">
        <dc:format>image/svg+xml</dc:format>
        <dc:type
           rdf:resource="http://purl.org/dc/dcmitype/StillImage" />
        <dc:title />
      </cc:Work>
    </rdf:RDF>
  </metadata>
  <sodipodi:namedview
     inkscape:document-rotation="0"
     showgrid="true"
     pagecolor="#00b83a"
     objecttolerance="10"
     inkscape:zoom="3.7926637"
     inkscape:window-y="0"
     inkscape:window-x="0"
     inkscape:window-width="1920"
     inkscape:window-maximized="1"
     inkscape:window-height="985"
     inkscape:snap-smooth-nodes="true"
     inkscape:snap-nodes="true"
     inkscape:snap-intersection-paths="true"
     inkscape:snap-bbox-edge-midpoints="false"
     inkscape:snap-bbox="true"
     inkscape:pageshadow="2"
     inkscape:pageopacity="0"
     inkscape:object-paths="true"
     inkscape:cy="45.030839"
     inkscape:cx="-41.223491"
     inkscape:current-layer="svg"
     inkscape:bbox-nodes="true"
     guidetolerance="10"
     gridtolerance="10"
     borderopacity="1"
     bordercolor="#666666"
     id="namedview21">
    <inkscape:grid
       type="xygrid"
       id="grid855" />
  </sodipodi:namedview>
  <defs
     id="defs7386">
    <style
       type="text/css"
       id="current-color-scheme">.ColorScheme-Text { color:#dedede; } .ColorScheme-Highlight { color:#5294e2; } .ColorScheme-ButtonBackground { color:#dedede; }</style>
    <filter
       id="c"
       x="-.07966"
       y="-.048123"
       width="1.1593"
       height="1.0962"
       color-interpolation-filters="sRGB">
      <feGaussianBlur
         stdDeviation="0.79660366"
         id="feGaussianBlur845" />
    </filter>
    <linearGradient
       id="linearGradient1448"
       x1="3.9687"
       x2="3.9687"
       y1="16.404"
       y2="2.6458"
       gradientTransform="matrix(3.4646,0,0,3.4646,66.680927,11.651707)"
       gradientUnits="userSpaceOnUse">
      <stop
         stop-color="#1964f0"
         offset="0"
         id="stop848" />
      <stop
         stop-color="#14c3fa"
         offset="1"
         id="stop850" />
    </linearGradient>
    <filter
       id="filter861"
       x="-.027"
       y="-.027"
       width="1.054"
       height="1.054"
       color-interpolation-filters="sRGB">
      <feGaussianBlur
         stdDeviation="0.16371"
         id="feGaussianBlur853" />
    </filter>
    <linearGradient
       id="linearGradient917"
       x1="29.565"
       x2="29.728"
       y1="11.048"
       y2="53.559"
       gradientTransform="translate(-57.000498,10.864133)"
       gradientUnits="userSpaceOnUse">
      <stop
         stop-color="#fff"
         offset="0"
         id="stop856" />
      <stop
         stop-color="#dbf6f8"
         offset="1"
         id="stop858" />
    </linearGradient>
  </defs>
  <g
     transform="translate(-35.62936,0.57400504)"
     inkscape:label="#g1039"
     id="16-16-preferences-system-bluetooth-inactive">
    <rect
       style="opacity:0;fill:#000000;fill-opacity:1;stroke:none;stroke-width:1.43544865;stroke-linecap:round;stroke-linejoin:round;stroke-miterlimit:4;stroke-dasharray:none;stroke-opacity:1;paint-order:stroke fill markers"
       id="rect1023"
       width="16"
       height="16"
       x="63.62936"
       y="79.425995"
       ry="0.28211999" />
    <path
       d="m 72.532976,92.634307 v -3.318576 l 2.058746,1.659288 z m 0,-10.415737 2.058746,1.659288 -2.058746,1.659288 v -3.319479 z m 0.535925,5.20832 3.530053,-2.845009 a 0.90555902,0.90555902 0 0 0 0,-1.408045 l -4.403077,-3.548129 a 0.90375151,0.90375151 0 0 0 -1.470404,0.703119 v 5.207416 l -2.93177,-2.362406 a 0.90402264,0.90402264 0 0 0 -1.134208,1.408045 l 3.52915,2.844106 -3.52915,2.844106 a 0.90375151,0.90375151 0 0 0 1.134208,1.407141 l 2.93177,-2.362407 v 5.207417 a 0.90465527,0.90465527 0 0 0 0.903751,0.903751 0.90194401,0.90194401 0 0 0 0.566653,-0.199729 l 4.403077,-3.548129 a 0.90555902,0.90555902 0 0 0 0,-1.407141 l -3.530053,-2.845009 z"
       p-id="5683"
       id="path1029"
       inkscape:connector-curvature="0"
       style="color:#dedede;fill:#242424;fill-opacity:1;stroke-width:0.01765117;opacity:0.5" />
  </g>
  <g
     id="16-16-preferences-system-bluetooth"
     inkscape:label="#g1039"
     transform="translate(-35.62936,-48.425995)">
    <rect
       ry="0.28211999"
       y="79.425995"
       x="63.62936"
       height="16"
       width="16"
       id="rect1041"
       style="opacity:0;fill:#000000;fill-opacity:1;stroke:none;stroke-width:1.43545;stroke-linecap:round;stroke-linejoin:round;stroke-miterlimit:4;stroke-dasharray:none;stroke-opacity:1;paint-order:stroke fill markers" />
    <path
       style="color:#dedede;fill:#242424;fill-opacity:1;stroke-width:0.0176512"
       inkscape:connector-curvature="0"
       id="path1043"
       p-id="5683"
       d="m 72.532976,92.634307 v -3.318576 l 2.058746,1.659288 z m 0,-10.415737 2.058746,1.659288 -2.058746,1.659288 v -3.319479 z m 0.535925,5.20832 3.530053,-2.845009 a 0.90555902,0.90555902 0 0 0 0,-1.408045 l -4.403077,-3.548129 a 0.90375151,0.90375151 0 0 0 -1.470404,0.703119 v 5.207416 l -2.93177,-2.362406 a 0.90402264,0.90402264 0 0 0 -1.134208,1.408045 l 3.52915,2.844106 -3.52915,2.844106 a 0.90375151,0.90375151 0 0 0 1.134208,1.407141 l 2.93177,-2.362407 v 5.207417 a 0.90465527,0.90465527 0 0 0 0.903751,0.903751 0.90194401,0.90194401 0 0 0 0.566653,-0.199729 l 4.403077,-3.548129 a 0.90555902,0.90555902 0 0 0 0,-1.407141 l -3.530053,-2.845009 z" />
  </g>
  <g
     transform="translate(-31,2.0000003)"
     inkscape:label="#g1171"
     id="16-16-preferences-system-bluetooth-activated">
    <rect
       style="opacity:0;fill:#000000;fill-opacity:1;stroke:none;stroke-width:1.43545;stroke-linecap:round;stroke-linejoin:round;stroke-miterlimit:4;stroke-dasharray:none;stroke-opacity:1;paint-order:stroke fill markers"
       id="rect1140"
       width="16"
       height="16"
       x="59"
       y="54"
       ry="0.28211999" />
    <path
       d="m 67.903616,67.208312 v -3.318576 l 2.058746,1.659288 z m 0,-10.415737 2.058746,1.659288 -2.058746,1.659288 v -3.319479 z m 0.535925,5.20832 3.530053,-2.845009 a 0.90555902,0.90555902 0 0 0 0,-1.408045 l -4.403077,-3.548129 a 0.90375151,0.90375151 0 0 0 -1.470404,0.703119 v 5.207416 l -2.93177,-2.362406 a 0.90402264,0.90402264 0 0 0 -1.134208,1.408045 l 3.52915,2.844106 -3.52915,2.844106 a 0.90375151,0.90375151 0 0 0 1.134208,1.407141 l 2.93177,-2.362407 v 5.207417 A 0.90465527,0.90465527 0 0 0 66.999864,70 0.90194401,0.90194401 0 0 0 67.566517,69.800271 l 4.403077,-3.548129 a 0.90555902,0.90555902 0 0 0 0,-1.407141 l -3.530053,-2.845009 z"
       p-id="5683"
       id="path1142"
       inkscape:connector-curvature="0"
       style="color:#dedede;fill:#242424;fill-opacity:1;stroke-width:0.0176512" />
    <circle
       r="0.9999997"
       cy="62"
       cx="74"
       id="circle1159"
       style="fill:#5294e2;stroke-width:0.5" />
    <circle
       r="0.99625015"
       cy="62"
       cx="60.00375"
       id="circle1161"
       style="fill:#5294e2;stroke-width:0.498125" />
  </g>
  <g
     id="preferences-desktop-display-randr"
     transform="translate(25.996767)">
    <rect
       style="clip-rule:evenodd;fill:#ffffff;fill-opacity:0;fill-rule:evenodd;stroke-width:0.546348;stroke-linejoin:round;stroke-miterlimit:1.41421"
       id="rect817-1"
       width="22"
       height="22"
       x="-25.996767"
       y="-0.0024798242" />
    <rect
       style="opacity:0.8;fill:#ffffff;fill-opacity:1;stroke-width:0.47132;stroke-linecap:round"
       id="rect990"
       width="21.994965"
       height="21.994965"
       x="2.2617187e-05"
       y="3.9993"
       ry="6"
       transform="rotate(90)" />
    <g
       transform="translate(26.003218)"
       id="g935">
      <path
         id="rect924"
         style="opacity:1;fill:#242424;fill-opacity:1;stroke:none;stroke-width:2.21108;stroke-linecap:round"
         d="m -47,5 c -1.108,0 -2,0.892 -2,2 v 7 c 0,1.108 0.892,2 2,2 h 12 c 1.108,0 2,-0.892 2,-2 V 7 c 0,-1.108 -0.892,-2 -2,-2 z m 0,1 h 12 c 0.554,0 1,0.446 1,1 v 7 c 0,0.554 -0.446,1 -1,1 h -12 c -0.554,0 -1,-0.446 -1,-1 V 7 c 0,-0.554 0.446,-1 1,-1 z" />
      <rect
         style="opacity:1;fill:#242424;fill-opacity:1;stroke:none;stroke-width:2;stroke-linecap:round"
         id="rect931"
         width="8"
         height="1"
         x="-45"
         y="17"
         ry="0.5" />
    </g>
  </g>
  <g
     id="preferences-system-bluetooth-inactive"
     transform="translate(25.994265,38)"
     style="opacity:0.5">
    <rect
       transform="rotate(90)"
       ry="6"
       y="3.9993"
       x="39"
       height="21.994965"
       width="21.994965"
       id="rect937"
       style="opacity:0.8;fill:#ffffff;fill-opacity:1;stroke-width:0.47132;stroke-linecap:round" />
    <path
       d="m -14.206328,54.553115 v -2.90271 l 1.800755,1.451356 z m 0,-9.110491 1.800755,1.451354 -1.800755,1.451356 v -2.9035 z m 0.468766,4.555641 3.087686,-2.488488 a 0.79207906,0.79207906 0 0 0 0,-1.231596 l -3.851307,-3.103496 a 0.79049807,0.79049807 0 0 0 -1.28614,0.615009 v 4.554849 l -2.564376,-2.066362 a 0.79073521,0.79073521 0 0 0 -0.992076,1.231596 l 3.086896,2.487697 -3.086896,2.487698 a 0.79049807,0.79049807 0 0 0 0.992076,1.230806 l 2.564376,-2.066363 v 4.55485 a 0.79128857,0.79128857 0 0 0 0.790497,0.790499 0.78891707,0.78891707 0 0 0 0.495643,-0.174701 l 3.851307,-3.103495 a 0.79207906,0.79207906 0 0 0 0,-1.230806 l -3.087686,-2.488488 z"
       p-id="5683"
       id="path948"
       inkscape:connector-curvature="0"
       style="color:#dedede;fill:#242424;fill-opacity:1;stroke-width:0.0154392" />
  </g>
  <g
     transform="translate(25.994265,-11)"
     id="preferences-system-bluetooth">
    <rect
       style="opacity:0.8;fill:#ffffff;fill-opacity:1;stroke-width:0.47132;stroke-linecap:round"
       id="rect958"
       width="21.994965"
       height="21.994965"
       x="39"
       y="3.9993"
       ry="6"
       transform="rotate(90)" />
    <path
       style="color:#dedede;fill:#242424;fill-opacity:1;stroke-width:0.0154392"
       inkscape:connector-curvature="0"
       id="path960"
       p-id="5683"
       d="m -14.206328,54.553115 v -2.90271 l 1.800755,1.451356 z m 0,-9.110491 1.800755,1.451354 -1.800755,1.451356 v -2.9035 z m 0.468766,4.555641 3.087686,-2.488488 a 0.79207906,0.79207906 0 0 0 0,-1.231596 l -3.851307,-3.103496 a 0.79049807,0.79049807 0 0 0 -1.28614,0.615009 v 4.554849 l -2.564376,-2.066362 a 0.79073521,0.79073521 0 0 0 -0.992076,1.231596 l 3.086896,2.487697 -3.086896,2.487698 a 0.79049807,0.79049807 0 0 0 0.992076,1.230806 l 2.564376,-2.066363 v 4.55485 a 0.79128857,0.79128857 0 0 0 0.790497,0.790499 0.78891707,0.78891707 0 0 0 0.495643,-0.174701 l 3.851307,-3.103495 a 0.79207906,0.79207906 0 0 0 0,-1.230806 l -3.087686,-2.488488 z" />
  </g>
  <g
     id="preferences-system-bluetooth-activated"
     transform="translate(26.994965)">
    <rect
       transform="rotate(90)"
       ry="6"
       y="5"
       x="53"
       height="21.994965"
       width="21.994965"
       id="rect970"
       style="opacity:0.8;fill:#ffffff;fill-opacity:1;stroke-width:0.47132;stroke-linecap:round" />
    <path
       d="m -15.207028,68.553115 v -2.90271 l 1.800755,1.451356 z m 0,-9.110491 1.800755,1.451354 -1.800755,1.451356 v -2.9035 z m 0.468766,4.555641 3.087686,-2.488488 a 0.79207906,0.79207906 0 0 0 0,-1.231596 l -3.851307,-3.103496 a 0.79049807,0.79049807 0 0 0 -1.28614,0.615009 v 4.554849 l -2.564376,-2.066362 a 0.79073521,0.79073521 0 0 0 -0.992076,1.231596 l 3.086896,2.487697 -3.086896,2.487698 a 0.79049807,0.79049807 0 0 0 0.992076,1.230806 l 2.564376,-2.066363 v 4.55485 a 0.79128857,0.79128857 0 0 0 0.790497,0.790499 0.78891707,0.78891707 0 0 0 0.495643,-0.174701 l 3.851307,-3.103495 a 0.79207906,0.79207906 0 0 0 0,-1.230806 l -3.087686,-2.488488 z"
       p-id="5683"
       id="path972"
       inkscape:connector-curvature="0"
       style="color:#dedede;fill:#242424;fill-opacity:1;stroke-width:0.0154392" />
    <circle
       style="fill:#242424;fill-opacity:1;stroke-width:0.5"
       id="circle980"
       cx="-11"
       cy="64"
       r="1" />
    <circle
       r="1"
       cy="64"
       cx="-8"
       id="circle982"
       style="fill:#242424;fill-opacity:1;stroke-width:0.5" />
    <circle
       r="1"
       cy="64"
       cx="-24"
       id="circle984"
       style="fill:#242424;fill-opacity:1;stroke-width:0.5" />
    <circle
       style="fill:#242424;fill-opacity:1;stroke-width:0.5"
       id="circle986"
       cx="-21"
       cy="64"
       r="1" />
  </g>
  <rect
     style="clip-rule:evenodd;fill:#ffffff;fill-opacity:0;fill-rule:evenodd;stroke-width:0.546348;stroke-linejoin:round;stroke-miterlimit:1.41421"
     id="rect1006"
     width="22"
     height="22"
     x="50"
     y="-0.0024798242" />
  <g
     id="preferences-desktop-notification"
     transform="translate(-24.999985)">
    <rect
       transform="rotate(90)"
       ry="6"
       y="-71.997467"
       x="2.2617187e-05"
       height="21.994965"
       width="21.994965"
       id="rect1008"
       style="opacity:0.8;fill:#ffffff;fill-opacity:1;stroke-width:0.47132;stroke-linecap:round" />
    <g
       transform="translate(-44.000015,-1.0024951)"
       id="g1061">
      <path
         id="path1044"
         style="opacity:1;fill:#242424;fill-opacity:1;stroke:none;stroke-width:2.46154;stroke-linecap:round"
         d="m 105,4 a 8,8 0 0 0 -8,8 8,8 0 0 0 8,8 8,8 0 0 0 8,-8 8,8 0 0 0 -8,-8 z m 0,2 a 6,6 0 0 1 6,6 6,6 0 0 1 -6,6 6,6 0 0 1 -6,-6 6,6 0 0 1 6,-6 z" />
      <rect
         id="rect1054"
         style="color:#dedede;fill:#242424;fill-opacity:1;stroke-width:0.845154;paint-order:stroke fill markers"
         ry="1"
         rx="1"
         height="5"
         width="2"
         y="8"
         x="104" />
      <circle
         id="circle1056"
         style="color:#dedede;fill:#242424;fill-opacity:1;paint-order:stroke fill markers"
         r="1"
         cy="15"
         cx="105" />
    </g>
  </g>
</svg>
