<?xml version="1.0" encoding="UTF-8" standalone="no"?>
<svg
   xmlns:dc="http://purl.org/dc/elements/1.1/"
   xmlns:cc="http://creativecommons.org/ns#"
   xmlns:rdf="http://www.w3.org/1999/02/22-rdf-syntax-ns#"
   xmlns:svg="http://www.w3.org/2000/svg"
   xmlns="http://www.w3.org/2000/svg"
   xmlns:xlink="http://www.w3.org/1999/xlink"
   xmlns:sodipodi="http://sodipodi.sourceforge.net/DTD/sodipodi-0.dtd"
   xmlns:inkscape="http://www.inkscape.org/namespaces/inkscape"
   id="svg4153"
   width="22"
   height="22"
   version="1.1"
   viewBox="0 0 22 22"
   sodipodi:docname="software.svg"
   inkscape:version="1.0.1 (3bc2e813f5, 2020-09-07)">
  <metadata
     id="metadata35">
    <rdf:RDF>
      <cc:Work
         rdf:about="">
        <dc:format>image/svg+xml</dc:format>
        <dc:type
           rdf:resource="http://purl.org/dc/dcmitype/StillImage" />
        <dc:title />
      </cc:Work>
    </rdf:RDF>
  </metadata>
  <sodipodi:namedview
     pagecolor="#c8c8c8"
     bordercolor="#666666"
     borderopacity="1"
     objecttolerance="10"
     gridtolerance="10"
     guidetolerance="10"
     inkscape:pageopacity="0"
     inkscape:pageshadow="2"
     inkscape:window-width="1920"
     inkscape:window-height="942"
     id="namedview33"
     showgrid="false"
     inkscape:zoom="5.2693538"
     inkscape:cx="-1.4110073"
     inkscape:cy="34.418621"
     inkscape:window-x="0"
     inkscape:window-y="38"
     inkscape:window-maximized="1"
     inkscape:current-layer="svg4153"
     inkscape:document-rotation="0" />
  <defs
     id="defs4157">
    <style
       id="current-color-scheme"
       type="text/css">
   .ColorScheme-Text { color:#333333; } .ColorScheme-Highlight { color:#5294e2; } .ColorScheme-ButtonBackground { color:#333333; }
  </style>
  </defs>
  <use
     x="0"
     y="0"
     xlink:href="#g878"
     id="use880"
     transform="translate(-27.32783)"
     width="100%"
     height="100%" />
  <use
     x="0"
     y="0"
     xlink:href="#use880"
     id="use882"
     transform="translate(-24.481181,0.18977659)"
     width="100%"
     height="100%" />
  <use
     x="0"
     y="0"
     xlink:href="#use884"
     id="use886"
     transform="translate(-27.897159,0.75910638)"
     width="100%"
     height="100%" />
  <g
     id="software-updates-updates"
     transform="translate(36.829567)">
    <rect
       y="0"
       x="-36.829567"
       height="22"
       width="22"
       id="rect817-1-0"
       style="clip-rule:evenodd;fill:#ffffff;fill-opacity:0;fill-rule:evenodd;stroke-width:0.546348;stroke-linejoin:round;stroke-miterlimit:1.41421" />
    <rect
       transform="rotate(90)"
       ry="6"
       y="14.832084"
       x="0.0025177002"
       height="21.994965"
       width="21.994965"
       id="rect990"
       style="opacity:0.8;fill:#ffffff;fill-opacity:0.80000001;stroke-width:0.47132;stroke-linecap:round" />
    <g
       transform="translate(-778.82979,233.97226)"
       inkscape:label="emblem-synchronizing"
       id="g897"
       style="display:inline;enable-background:new">
      <path
         sodipodi:nodetypes="ccccsccccccccccccccccccccccccccccsccccc"
         style="fill:#1464dc;fill-opacity:1;stroke:none"
         d="m 761.0002,-223 h -2 c 0,-2.76241 -1.86537,-5.08363 -4.40625,-5.78125 -0.0316,-0.009 -0.0621,-0.023 -0.0937,-0.0312 -0.25518,-0.0655 -0.51414,-0.0934 -0.78125,-0.125 -0.23328,-0.0276 -0.47806,-0.0625 -0.71875,-0.0625 -0.6163,6.4e-4 -1.22888,0.0951 -1.8125,0.28125 v 0.0312 c -0.84159,0.26706 -1.61362,0.69432 -2.25,1.28125 l 1.1875,1.59375 c 0.502,-0.51324 1.1581,-0.84637 1.875,-1.03125 v -0.0312 c 0.38012,-0.0893 0.78962,-0.12172 1.1875,-0.0937 0.1818,0.0128 0.34929,0.0286 0.53125,0.0625 1.86707,0.33781 3.28125,1.94181 3.28125,3.90625 h -2 l 1.24484,1.65979 1.75516,2.34021 3,-4 z m -3.9375,4.40625 -1.1875,-1.59375 c -0.502,0.51324 -1.1581,0.84637 -1.875,1.03125 v 0.0312 c -0.38012,0.0893 -0.78962,0.12172 -1.1875,0.0937 -0.1818,-0.0128 -0.34929,-0.0286 -0.53125,-0.0625 -1.86707,-0.33781 -3.28125,-1.94181 -3.28125,-3.90625 h 2 l -3,-4 -3,4 h 2 c 0,2.76241 1.86537,5.08363 4.40625,5.78125 0.0322,0.009 0.0613,0.0229 0.0937,0.0312 0.25518,0.0655 0.51414,0.0934 0.78125,0.125 0.23328,0.0276 0.47806,0.0625 0.71875,0.0625 0.6163,-6.4e-4 1.22888,-0.0951 1.8125,-0.28125 v -0.0312 c 0.84159,-0.26706 1.61362,-0.69432 2.25,-1.28125 z"
         id="path893"
         inkscape:connector-curvature="0" />
      <rect
         y="214.97226"
         x="-761.00024"
         height="16"
         width="16"
         id="rect895"
         style="color:#bebebe;display:inline;overflow:visible;visibility:visible;fill:none;stroke:none;stroke-width:1;marker:none"
         transform="scale(-1)" />
    </g>
  </g>
  <g
     id="software-updates-inactive"
     transform="translate(-16.823131)">
    <rect
       y="0"
       x="55.42683"
       height="22"
       width="22"
       id="rect905"
       style="clip-rule:evenodd;fill:#ffffff;fill-opacity:0;fill-rule:evenodd;stroke-width:0.546348;stroke-linejoin:round;stroke-miterlimit:1.41421" />
    <rect
       transform="rotate(90)"
       ry="6"
       y="-77.424316"
       x="0.0025177002"
       height="21.994965"
       width="21.994965"
       id="rect907"
       style="opacity:0.8;fill:#ffffff;fill-opacity:0.80000001;stroke-width:0.47132;stroke-linecap:round" />
    <g
       transform="translate(-686.57339,233.97226)"
       inkscape:label="emblem-synchronizing"
       id="g921"
       style="display:inline;enable-background:new">
      <path
         sodipodi:nodetypes="ccccsccccccccccccccccccccccccccccsccccc"
         style="fill:#242424;fill-opacity:1;stroke:none"
         d="m 761.0002,-223 h -2 c 0,-2.76241 -1.86537,-5.08363 -4.40625,-5.78125 -0.0316,-0.009 -0.0621,-0.023 -0.0937,-0.0312 -0.25518,-0.0655 -0.51414,-0.0934 -0.78125,-0.125 -0.23328,-0.0276 -0.47806,-0.0625 -0.71875,-0.0625 -0.6163,6.4e-4 -1.22888,0.0951 -1.8125,0.28125 v 0.0312 c -0.84159,0.26706 -1.61362,0.69432 -2.25,1.28125 l 1.1875,1.59375 c 0.502,-0.51324 1.1581,-0.84637 1.875,-1.03125 v -0.0312 c 0.38012,-0.0893 0.78962,-0.12172 1.1875,-0.0937 0.1818,0.0128 0.34929,0.0286 0.53125,0.0625 1.86707,0.33781 3.28125,1.94181 3.28125,3.90625 h -2 l 1.24484,1.65979 1.75516,2.34021 3,-4 z m -3.9375,4.40625 -1.1875,-1.59375 c -0.502,0.51324 -1.1581,0.84637 -1.875,1.03125 v 0.0312 c -0.38012,0.0893 -0.78962,0.12172 -1.1875,0.0937 -0.1818,-0.0128 -0.34929,-0.0286 -0.53125,-0.0625 -1.86707,-0.33781 -3.28125,-1.94181 -3.28125,-3.90625 h 2 l -3,-4 -3,4 h 2 c 0,2.76241 1.86537,5.08363 4.40625,5.78125 0.0322,0.009 0.0613,0.0229 0.0937,0.0312 0.25518,0.0655 0.51414,0.0934 0.78125,0.125 0.23328,0.0276 0.47806,0.0625 0.71875,0.0625 0.6163,-6.4e-4 1.22888,-0.0951 1.8125,-0.28125 v -0.0312 c 0.84159,-0.26706 1.61362,-0.69432 2.25,-1.28125 z"
         id="path917"
         inkscape:connector-curvature="0" />
      <rect
         y="214.97226"
         x="-761.00024"
         height="16"
         width="16"
         id="rect919"
         style="color:#bebebe;display:inline;overflow:visible;visibility:visible;fill:none;stroke:none;stroke-width:1;marker:none"
         transform="scale(-1)" />
    </g>
  </g>
  <g
     id="software-updates-security"
     transform="translate(-16.823131,-0.849967)">
    <rect
       y="26.425505"
       x="55.42683"
       height="22"
       width="22"
       id="rect929"
       style="clip-rule:evenodd;fill:#ffffff;fill-opacity:0;fill-rule:evenodd;stroke-width:0.546348;stroke-linejoin:round;stroke-miterlimit:1.41421" />
    <rect
       transform="rotate(90)"
       ry="6"
       y="-77.424316"
       x="26.428022"
       height="21.994965"
       width="21.994965"
       id="rect931"
       style="opacity:0.8;fill:#ffffff;fill-opacity:0.80000001;stroke-width:0.47132;stroke-linecap:round" />
    <g
       transform="translate(-686.57339,260.39776)"
       inkscape:label="emblem-synchronizing"
       id="g937"
       style="display:inline;enable-background:new">
      <path
         sodipodi:nodetypes="ccccsccccccccccccccccccccccccccccsccccc"
         style="fill:#72d78f;fill-opacity:1;stroke:none"
         d="m 761.0002,-223 h -2 c 0,-2.76241 -1.86537,-5.08363 -4.40625,-5.78125 -0.0316,-0.009 -0.0621,-0.023 -0.0937,-0.0312 -0.25518,-0.0655 -0.51414,-0.0934 -0.78125,-0.125 -0.23328,-0.0276 -0.47806,-0.0625 -0.71875,-0.0625 -0.6163,6.4e-4 -1.22888,0.0951 -1.8125,0.28125 v 0.0312 c -0.84159,0.26706 -1.61362,0.69432 -2.25,1.28125 l 1.1875,1.59375 c 0.502,-0.51324 1.1581,-0.84637 1.875,-1.03125 v -0.0312 c 0.38012,-0.0893 0.78962,-0.12172 1.1875,-0.0937 0.1818,0.0128 0.34929,0.0286 0.53125,0.0625 1.86707,0.33781 3.28125,1.94181 3.28125,3.90625 h -2 l 1.24484,1.65979 1.75516,2.34021 3,-4 z m -3.9375,4.40625 -1.1875,-1.59375 c -0.502,0.51324 -1.1581,0.84637 -1.875,1.03125 v 0.0312 c -0.38012,0.0893 -0.78962,0.12172 -1.1875,0.0937 -0.1818,-0.0128 -0.34929,-0.0286 -0.53125,-0.0625 -1.86707,-0.33781 -3.28125,-1.94181 -3.28125,-3.90625 h 2 l -3,-4 -3,4 h 2 c 0,2.76241 1.86537,5.08363 4.40625,5.78125 0.0322,0.009 0.0613,0.0229 0.0937,0.0312 0.25518,0.0655 0.51414,0.0934 0.78125,0.125 0.23328,0.0276 0.47806,0.0625 0.71875,0.0625 0.6163,-6.4e-4 1.22888,-0.0951 1.8125,-0.28125 v -0.0312 c 0.84159,-0.26706 1.61362,-0.69432 2.25,-1.28125 z"
         id="path933"
         inkscape:connector-curvature="0" />
      <rect
         y="214.97226"
         x="-761.00024"
         height="16"
         width="16"
         id="rect935"
         style="color:#bebebe;display:inline;overflow:visible;visibility:visible;fill:none;stroke:none;stroke-width:1;marker:none"
         transform="scale(-1)" />
    </g>
  </g>
  <g
     id="software-updates-important"
     transform="translate(-16.823131,-3.5900195)">
    <rect
       y="54.743202"
       x="55.42683"
       height="22"
       width="22"
       id="rect939"
       style="clip-rule:evenodd;fill:#ffffff;fill-opacity:0;fill-rule:evenodd;stroke-width:0.546348;stroke-linejoin:round;stroke-miterlimit:1.41421" />
    <rect
       transform="rotate(90)"
       ry="6"
       y="-77.424316"
       x="54.74572"
       height="21.994965"
       width="21.994965"
       id="rect941"
       style="opacity:0.8;fill:#ffffff;fill-opacity:0.80000001;stroke-width:0.47132;stroke-linecap:round" />
    <g
       transform="translate(-686.57339,288.71546)"
       inkscape:label="emblem-synchronizing"
       id="g947"
       style="display:inline;enable-background:new">
      <path
         sodipodi:nodetypes="ccccsccccccccccccccccccccccccccccsccccc"
         style="fill:#f6e849;fill-opacity:1;stroke:none"
         d="m 761.0002,-223 h -2 c 0,-2.76241 -1.86537,-5.08363 -4.40625,-5.78125 -0.0316,-0.009 -0.0621,-0.023 -0.0937,-0.0312 -0.25518,-0.0655 -0.51414,-0.0934 -0.78125,-0.125 -0.23328,-0.0276 -0.47806,-0.0625 -0.71875,-0.0625 -0.6163,6.4e-4 -1.22888,0.0951 -1.8125,0.28125 v 0.0312 c -0.84159,0.26706 -1.61362,0.69432 -2.25,1.28125 l 1.1875,1.59375 c 0.502,-0.51324 1.1581,-0.84637 1.875,-1.03125 v -0.0312 c 0.38012,-0.0893 0.78962,-0.12172 1.1875,-0.0937 0.1818,0.0128 0.34929,0.0286 0.53125,0.0625 1.86707,0.33781 3.28125,1.94181 3.28125,3.90625 h -2 l 1.24484,1.65979 1.75516,2.34021 3,-4 z m -3.9375,4.40625 -1.1875,-1.59375 c -0.502,0.51324 -1.1581,0.84637 -1.875,1.03125 v 0.0312 c -0.38012,0.0893 -0.78962,0.12172 -1.1875,0.0937 -0.1818,-0.0128 -0.34929,-0.0286 -0.53125,-0.0625 -1.86707,-0.33781 -3.28125,-1.94181 -3.28125,-3.90625 h 2 l -3,-4 -3,4 h 2 c 0,2.76241 1.86537,5.08363 4.40625,5.78125 0.0322,0.009 0.0613,0.0229 0.0937,0.0312 0.25518,0.0655 0.51414,0.0934 0.78125,0.125 0.23328,0.0276 0.47806,0.0625 0.71875,0.0625 0.6163,-6.4e-4 1.22888,-0.0951 1.8125,-0.28125 v -0.0312 c 0.84159,-0.26706 1.61362,-0.69432 2.25,-1.28125 z"
         id="path943"
         inkscape:connector-curvature="0" />
      <rect
         y="214.97226"
         x="-761.00024"
         height="16"
         width="16"
         id="rect945"
         style="color:#bebebe;display:inline;overflow:visible;visibility:visible;fill:none;stroke:none;stroke-width:1;marker:none"
         transform="scale(-1)" />
    </g>
  </g>
  <g
     id="software-updates-release"
     transform="translate(36.829567,25.575333)">
    <rect
       y="0"
       x="-36.829567"
       height="22"
       width="22"
       id="rect997"
       style="clip-rule:evenodd;fill:#ffffff;fill-opacity:0;fill-rule:evenodd;stroke-width:0.546348;stroke-linejoin:round;stroke-miterlimit:1.41421" />
    <rect
       transform="rotate(90)"
       ry="6"
       y="14.832084"
       x="0.0025177002"
       height="21.994965"
       width="21.994965"
       id="rect999"
       style="opacity:0.8;fill:#ffffff;fill-opacity:0.80000001;stroke-width:0.47132;stroke-linecap:round" />
    <g
       transform="translate(-778.82979,233.97226)"
       inkscape:label="emblem-synchronizing"
       id="g1005"
       style="display:inline;enable-background:new">
      <path
         sodipodi:nodetypes="ccccsccccccccccccccccccccccccccccsccccc"
         style="fill:#1464dc;fill-opacity:1;stroke:none"
         d="m 761.0002,-223 h -2 c 0,-2.76241 -1.86537,-5.08363 -4.40625,-5.78125 -0.0316,-0.009 -0.0621,-0.023 -0.0937,-0.0312 -0.25518,-0.0655 -0.51414,-0.0934 -0.78125,-0.125 -0.23328,-0.0276 -0.47806,-0.0625 -0.71875,-0.0625 -0.6163,6.4e-4 -1.22888,0.0951 -1.8125,0.28125 v 0.0312 c -0.84159,0.26706 -1.61362,0.69432 -2.25,1.28125 l 1.1875,1.59375 c 0.502,-0.51324 1.1581,-0.84637 1.875,-1.03125 v -0.0312 c 0.38012,-0.0893 0.78962,-0.12172 1.1875,-0.0937 0.1818,0.0128 0.34929,0.0286 0.53125,0.0625 1.86707,0.33781 3.28125,1.94181 3.28125,3.90625 h -2 l 1.24484,1.65979 1.75516,2.34021 3,-4 z m -3.9375,4.40625 -1.1875,-1.59375 c -0.502,0.51324 -1.1581,0.84637 -1.875,1.03125 v 0.0312 c -0.38012,0.0893 -0.78962,0.12172 -1.1875,0.0937 -0.1818,-0.0128 -0.34929,-0.0286 -0.53125,-0.0625 -1.86707,-0.33781 -3.28125,-1.94181 -3.28125,-3.90625 h 2 l -3,-4 -3,4 h 2 c 0,2.76241 1.86537,5.08363 4.40625,5.78125 0.0322,0.009 0.0613,0.0229 0.0937,0.0312 0.25518,0.0655 0.51414,0.0934 0.78125,0.125 0.23328,0.0276 0.47806,0.0625 0.71875,0.0625 0.6163,-6.4e-4 1.22888,-0.0951 1.8125,-0.28125 v -0.0312 c 0.84159,-0.26706 1.61362,-0.69432 2.25,-1.28125 z"
         id="path1001"
         inkscape:connector-curvature="0" />
      <rect
         y="214.97226"
         x="-761.00024"
         height="16"
         width="16"
         id="rect1003"
         style="color:#bebebe;display:inline;overflow:visible;visibility:visible;fill:none;stroke:none;stroke-width:1;marker:none"
         transform="scale(-1)" />
    </g>
  </g>
  <g
     id="software-updates-additional"
     transform="translate(36.829567,51.150665)">
    <rect
       y="0"
       x="-36.829567"
       height="22"
       width="22"
       id="rect1009"
       style="clip-rule:evenodd;fill:#ffffff;fill-opacity:0;fill-rule:evenodd;stroke-width:0.546348;stroke-linejoin:round;stroke-miterlimit:1.41421" />
    <rect
       transform="rotate(90)"
       ry="6"
       y="14.832084"
       x="0.0025177002"
       height="21.994965"
       width="21.994965"
       id="rect1011"
       style="opacity:0.8;fill:#ffffff;fill-opacity:0.80000001;stroke-width:0.47132;stroke-linecap:round" />
    <g
       transform="translate(-778.82979,233.97226)"
       inkscape:label="emblem-synchronizing"
       id="g1017"
       style="display:inline;enable-background:new">
      <path
         sodipodi:nodetypes="ccccsccccccccccccccccccccccccccccsccccc"
         style="fill:#1464dc;fill-opacity:1;stroke:none"
         d="m 761.0002,-223 h -2 c 0,-2.76241 -1.86537,-5.08363 -4.40625,-5.78125 -0.0316,-0.009 -0.0621,-0.023 -0.0937,-0.0312 -0.25518,-0.0655 -0.51414,-0.0934 -0.78125,-0.125 -0.23328,-0.0276 -0.47806,-0.0625 -0.71875,-0.0625 -0.6163,6.4e-4 -1.22888,0.0951 -1.8125,0.28125 v 0.0312 c -0.84159,0.26706 -1.61362,0.69432 -2.25,1.28125 l 1.1875,1.59375 c 0.502,-0.51324 1.1581,-0.84637 1.875,-1.03125 v -0.0312 c 0.38012,-0.0893 0.78962,-0.12172 1.1875,-0.0937 0.1818,0.0128 0.34929,0.0286 0.53125,0.0625 1.86707,0.33781 3.28125,1.94181 3.28125,3.90625 h -2 l 1.24484,1.65979 1.75516,2.34021 3,-4 z m -3.9375,4.40625 -1.1875,-1.59375 c -0.502,0.51324 -1.1581,0.84637 -1.875,1.03125 v 0.0312 c -0.38012,0.0893 -0.78962,0.12172 -1.1875,0.0937 -0.1818,-0.0128 -0.34929,-0.0286 -0.53125,-0.0625 -1.86707,-0.33781 -3.28125,-1.94181 -3.28125,-3.90625 h 2 l -3,-4 -3,4 h 2 c 0,2.76241 1.86537,5.08363 4.40625,5.78125 0.0322,0.009 0.0613,0.0229 0.0937,0.0312 0.25518,0.0655 0.51414,0.0934 0.78125,0.125 0.23328,0.0276 0.47806,0.0625 0.71875,0.0625 0.6163,-6.4e-4 1.22888,-0.0951 1.8125,-0.28125 v -0.0312 c 0.84159,-0.26706 1.61362,-0.69432 2.25,-1.28125 z"
         id="path1013"
         inkscape:connector-curvature="0" />
      <rect
         y="214.97226"
         x="-761.00024"
         height="16"
         width="16"
         id="rect1015"
         style="color:#bebebe;display:inline;overflow:visible;visibility:visible;fill:none;stroke:none;stroke-width:1;marker:none"
         transform="scale(-1)" />
    </g>
  </g>
</svg>
