<?xml version="1.0" encoding="UTF-8" standalone="no"?>
<svg
   xmlns:dc="http://purl.org/dc/elements/1.1/"
   xmlns:cc="http://creativecommons.org/ns#"
   xmlns:rdf="http://www.w3.org/1999/02/22-rdf-syntax-ns#"
   xmlns:svg="http://www.w3.org/2000/svg"
   xmlns="http://www.w3.org/2000/svg"
   xmlns:sodipodi="http://sodipodi.sourceforge.net/DTD/sodipodi-0.dtd"
   xmlns:inkscape="http://www.inkscape.org/namespaces/inkscape"
   inkscape:version="1.0 (4035a4fb49, 2020-05-01)"
   sodipodi:docname="configuration-icons.svg"
   id="svg133"
   viewBox="0 0 32.808 13.758"
   version="1.1"
   height="52"
   width="124">
  <metadata
     id="metadata137">
    <rdf:RDF>
      <cc:Work
         rdf:about="">
        <dc:format>image/svg+xml</dc:format>
        <dc:type
           rdf:resource="http://purl.org/dc/dcmitype/StillImage" />
      </cc:Work>
    </rdf:RDF>
  </metadata>
  <sodipodi:namedview
     inkscape:current-layer="svg133"
     inkscape:window-maximized="1"
     inkscape:window-y="36"
     inkscape:window-x="0"
     inkscape:cy="4.8032793"
     inkscape:cx="40.702357"
     inkscape:zoom="9.2822581"
     showgrid="false"
     id="namedview135"
     inkscape:window-height="932"
     inkscape:window-width="1920"
     inkscape:pageshadow="2"
     inkscape:pageopacity="0"
     guidetolerance="10"
     gridtolerance="10"
     objecttolerance="10"
     borderopacity="1"
     bordercolor="#666666"
     pagecolor="#ffffff" />
  <defs
     id="defs3">
    <style
       type="text/css"
       id="current-color-scheme">.ColorScheme-Text {
        color:#31363b;
        stop-color:#31363b;
      }
      .ColorScheme-Background {
        color:#eff0f1;
        stop-color:#eff0f1;
      }
      .ColorScheme-Highlight {
        color:#3daee9;
        stop-color:#3daee9;
      }
      .ColorScheme-ViewText {
        color:#31363b;
        stop-color:#31363b;
      }
      .ColorScheme-ViewBackground {
        color:#fcfcfc;
        stop-color:#fcfcfc;
      }
      .ColorScheme-ViewHover {
        color:#93cee9;
        stop-color:#93cee9;
      }
      .ColorScheme-ViewFocus{
        color:#3daee9;
        stop-color:#3daee9;
      }
      .ColorScheme-ButtonText {
        color:#31363b;
        stop-color:#31363b;
      }
      .ColorScheme-ButtonBackground {
        color:#eff0f1;
        stop-color:#eff0f1;
      }
      .ColorScheme-ButtonHover {
        color:#93cee9;
        stop-color:#93cee9;
      }
      .ColorScheme-ButtonFocus{
        color:#3daee9;
        stop-color:#3daee9;
      }</style>
  </defs>
  <g
     transform="translate(0.52917,-249.37)"
     id="menu">
    <rect
       x="-0.52916998"
       y="249.37"
       width="4.2333002"
       height="4.2333002"
       fill="none"
       id="rect5" />
    <rect
       x="-1.0174e-06"
       y="249.89999"
       width="3.175"
       height="3.175"
       fill="none"
       id="rect7" />
    <path
       class="ColorScheme-Text"
       d="m 4.5328e-8,250.17 v 0.52917 H 3.175 V 250.17 Z m 0,1.0583 v 0.52917 H 3.175 v -0.52917 z m 0,1.0583 v 0.52916 H 3.175 v -0.52916 z"
       fill="#333333"
       id="path9" />
  </g>
  <g
     transform="translate(0.52917,-249.37)"
     id="collapse">
    <rect
       x="23.283001"
       y="254.14"
       width="4.2333002"
       height="4.2333002"
       fill="none"
       id="rect12" />
    <rect
       x="23.813"
       y="254.67"
       width="3.175"
       height="3.175"
       fill="none"
       id="rect14" />
    <path
       class="ColorScheme-Text"
       d="m 24.606,254.67 0.79375,0.79375 0.79375,-0.79375 z m -1.0583,1.3229 v 0.52917 h 3.7042 v -0.52917 z m 1.8521,1.0583 -0.79375,0.79375 h 1.5875 z"
       color="#31363b"
       fill="#333333"
       id="path16" />
  </g>
  <g
     id="return-to-source"
     transform="translate(0.52917007,-249.63454)">
    <rect
       x="18.521"
       y="254.14"
       width="4.2333002"
       height="4.2333002"
       fill="none"
       id="rect19" />
    <path
       transform="matrix(0.26458,0,0,0.26458,-0.52917,249.37)"
       d="m 74,19 c -0.554,0 -1,0.44599 -1,1 v 12 c 0,0.55401 0.446,1 1,1 h 12 c 0.554,0 1,-0.44599 1,-1 V 20 c 0,-0.55401 -0.446,-1 -1,-1 z m 4,2 h 4 l -2,2 z m -3,4 h 10 v 2 H 75 Z m 5,4 2,2 h -4 z"
       color="#31363b"
       fill="#333333"
       id="path21" />
  </g>
  <g
     transform="translate(0.52917,-249.37)"
     id="restore">
    <rect
       x="28.046"
       y="254.14"
       width="4.2333002"
       height="4.2333002"
       fill="none"
       id="rect24" />
    <rect
       x="28.575001"
       y="254.67"
       width="3.175"
       height="3.175"
       fill="none"
       id="rect26" />
    <path
       class="ColorScheme-Text"
       d="m 29.369,255.46 0.79376,-0.79375 0.79374,0.79375 z m -1.0583,0.52917 v 0.52917 h 3.7042 v -0.52917 z m 1.8521,1.8521 -0.79376,-0.79375 h 1.5875 z"
       color="#31363b"
       fill="#333333"
       id="path28" />
  </g>
  <g
     id="configure">
    <path
       id="rect1037"
       style="fill:#242424;fill-opacity:1;stroke-width:0.529161;stroke-linecap:round"
       d="M 6.1482199,0.27307345 6.1073959,0.76089402 A 1.45519,1.45519 0 0 0 5.6821031,1.0068712 L 5.2387239,0.79810068 4.7757078,1.6001108 5.1782633,1.8796776 A 1.45519,1.45519 0 0 0 5.1560423,2.125138 1.45519,1.45519 0 0 0 5.1772293,2.3716321 L 4.7757078,2.6501653 5.2387239,3.4521754 5.6810697,3.2439214 a 1.45519,1.45519 0 0 0 0.4263262,0.2444271 l 0.040824,0.4888541 H 7.0742522 L 7.1150762,3.489382 A 1.45519,1.45519 0 0 0 7.5403689,3.2434047 L 7.9837482,3.4521754 8.4467643,2.6501653 8.0442091,2.3705986 A 1.45519,1.45519 0 0 0 8.0664296,2.125138 1.45519,1.45519 0 0 0 8.0452425,1.8786438 L 8.4467643,1.6001108 7.9837482,0.79810068 7.5414024,1.0063545 A 1.45519,1.45519 0 0 0 7.1150762,0.76192747 L 7.0742522,0.27307345 Z M 6.5978004,1.5959767 a 0.52916,0.52916 0 0 1 0.013436,0 A 0.52916,0.52916 0 0 1 7.1403973,2.125138 0.52916,0.52916 0 0 1 6.611236,2.6542993 0.52916,0.52916 0 0 1 6.0820747,2.125138 0.52916,0.52916 0 0 1 6.5978004,1.5959767 Z" />
    <rect
       x="4.494596"
       y="0.0084979227"
       width="4.2332802"
       height="4.2332802"
       color="#bebebe"
       enable-background="accumulate"
       fill="none"
       id="rect33"
       style="stroke-width:0.26458" />
  </g>
  <g
     id="rotate"
     transform="matrix(0.26458,0,0,0.26458,-102.39083,10.33)"
     enable-background="new">
    <path
       transform="translate(241,-473)"
       d="m 192,435 c -3.866,0 -7,3.134 -7,7 0,3.866 3.134,7 7,7 3.1748,0 5.8615,-2.1032 6.7188,-5 h -2.1562 c -0.77427,1.7595 -2.5168,3 -4.5625,3 -2.7614,0 -5,-2.2386 -5,-5 0,-2.7614 2.2386,-5 5,-5 2.0457,0 3.7882,1.2405 4.5625,3 h 2.1562 c -0.85721,-2.8968 -3.5439,-5 -6.7188,-5 z"
       fill="#333333"
       id="path36" />
    <rect
       transform="scale(-1)"
       x="-441"
       y="23.016001"
       width="16"
       height="16"
       color="#bebebe"
       fill="none"
       id="rect38" />
    <path
       transform="translate(241,-473)"
       d="m 193,441 6,-6 v 6 z"
       fill="#333333"
       id="path40" />
  </g>
  <g
     id="move"
     transform="matrix(0.26458,0,0,0.26458,-49.47783,5.3)"
     enable-background="new">
    <path
       d="M 253,-4.5 250,-8 h 2 v -2 h 2 v 2 h 2 z"
       fill="#333333"
       id="path43" />
    <rect
       transform="matrix(0,1,1,0,0,0)"
       x="-20.018999"
       y="245"
       width="16"
       height="16"
       color="#bebebe"
       enable-background="new"
       fill="none"
       id="rect45" />
    <g
       fill="#333333"
       id="g53">
      <path
         d="m 253,-19.5 -3,3.5 h 2 v 2 h 2 v -2 h 2 z"
         id="path47" />
      <path
         d="m 260.5,-12 -3.5,-3 v 2 h -2 v 2 h 2 l -4e-5,2 z"
         id="path49" />
      <path
         d="m 245.5,-12 3.5,-3 v 2 h 2 v 2 h -2 l -4e-5,2 z"
         id="path51" />
    </g>
  </g>
  <g
     id="size-vertical"
     transform="matrix(0.26458,0,0,0.26458,-49.21283,-208.488)"
     enable-background="new">
    <path
       transform="translate(17,313)"
       d="m 252,474 -3,5 h 2 v 6 h -2 l 3,5 3,-5 h -2 v -6 h 2 z"
       fill="#333333"
       id="path56" />
    <rect
       transform="scale(-1)"
       x="-277"
       y="-803"
       width="16"
       height="16"
       color="#bebebe"
       fill="none"
       id="rect58" />
  </g>
  <g
     id="size-horizontal"
     transform="matrix(0.26458,0,0,0.26458,-39.15783,-209.017)"
     enable-background="new">
    <path
       transform="translate(17,313)"
       d="m 229,479 -5,3 5,3 v -2 h 6 v 2 l 5,-3 -5,-3 v 2 h -6 z"
       fill="#333333"
       id="path61" />
    <rect
       transform="scale(-1)"
       x="-257"
       y="-803"
       width="16"
       height="16"
       color="#bebebe"
       fill="none"
       id="rect63" />
  </g>
  <g
     id="size-diagonal-tr2bl"
     transform="matrix(0.26458,0,0,0.26458,-77.25783,-7.67)"
     enable-background="new">
    <path
       d="m 403,31.003 c -1,0 -1,1 -1,1 v 4 h 2 v -3 h 3 v -2 z m 8,0 v 2 h 3 v 3 h 2 v -4 c 0,-1 -1,-1 -1,-1 z m -9,7 v 4 c 0,1 1,1 1,1 h 4 v -2 h -3 v -3 z m 12,0 v 3 h -3 v 2 h 4 c 0,0 1,0 1,-1 v -4 z"
       color="#bebebe"
       fill="#333333"
       id="path66" />
    <rect
       x="401"
       y="29"
       width="15.982"
       height="16"
       rx="0"
       ry="0"
       fill="none"
       id="rect68" />
  </g>
  <g
     id="size-diagonal-tl2br"
     transform="matrix(0.26458,0,0,0.26458,-105.83083,-3.17)"
     enable-background="new">
    <path
       d="m 403,31.003 c -1,0 -1,1 -1,1 v 4 h 2 v -3 h 3 v -2 z m 8,0 v 2 h 3 v 3 h 2 v -4 c 0,-1 -1,-1 -1,-1 z m -9,7 v 4 c 0,1 1,1 1,1 h 4 v -2 h -3 v -3 z m 12,0 v 3 h -3 v 2 h 4 c 0,0 1,0 1,-1 v -4 z"
       color="#bebebe"
       fill="#333333"
       id="path71" />
    <rect
       x="401"
       y="29"
       width="15.982"
       height="16"
       rx="0"
       ry="0"
       fill="none"
       id="rect73" />
  </g>
  <g
     id="maximize"
     transform="matrix(0.26458,0,0,0.26458,-101.07083,-2.91)"
     enable-background="new">
    <path
       d="m 403,31.003 c -1,0 -1,1 -1,1 v 4 h 2 v -3 h 3 v -2 z m 8,0 v 2 h 3 v 3 h 2 v -4 c 0,-1 -1,-1 -1,-1 z m -9,7 v 4 c 0,1 1,1 1,1 h 4 v -2 h -3 v -3 z m 12,0 v 3 h -3 v 2 h 4 c 0,0 1,0 1,-1 v -4 z"
       color="#bebebe"
       fill="#333333"
       id="path76" />
    <rect
       x="401"
       y="29"
       width="15.982"
       height="16"
       rx="0"
       ry="0"
       fill="none"
       id="rect78" />
  </g>
  <g
     id="unmaximize"
     transform="matrix(0.26458,0,0,0.26458,-96.04183,-3.43)"
     enable-background="new">
    <path
       d="m 412,38.003 c 0,0 -1,0 -1,1 v 4 h 2 v -3 h 3 v -2 z m -10,0 v 2 h 3 v 3 h 2 v -4 c 0,0 0,-1 -1,-1 z m 9,-7 v 4 c 0,0 0,1 1,1 h 4 v -2 h -3 v -3 z m -6,0 v 3 h -3 v 2 h 4 c 1,0 1,-1 1,-1 v -4 z"
       color="#bebebe"
       fill="#333333"
       id="path81" />
    <rect
       x="401"
       y="29"
       width="15.982"
       height="16"
       rx="0"
       ry="0"
       fill="none"
       id="rect83" />
  </g>
  <g
     id="status"
     transform="matrix(-0.26458,0,0,0.26458,88.90017,35.72)"
     enable-background="new">
    <rect
       transform="scale(1,-1)"
       x="265"
       y="103.03"
       width="16"
       height="16"
       color="#bebebe"
       enable-background="accumulate"
       opacity="0"
       stroke-width="3"
       id="rect86" />
    <path
       transform="matrix(-1,0,0,1,425,-717)"
       d="m 146,600 c -0.554,0 -1,0.446 -1,1 v 10 c 0,0.554 0.446,1 1,1 h 12 c 0.554,0 1,-0.446 1,-1 v -10 c 0,-0.554 -0.446,-1 -1,-1 z m 1,8 h 10 v 2 h -10 z"
       fill="#333333"
       id="path88" />
  </g>
  <g
     id="delete"
     transform="matrix(0.26458,0,0,0.26458,-112.18083,-57.68)"
     enable-background="new">
    <rect
       x="441"
       y="255.00999"
       width="16"
       height="16"
       color="#000000"
       enable-background="new"
       fill="none"
       id="rect91" />
    <path
       transform="translate(14,174)"
       d="m 429,86 v 9 c 5e-5,0.52358 0.47642,0.99995 1,1 h 9 c 0.52358,-5e-5 0.99995,-0.47642 1,-1 v -9 z"
       color="#000000"
       enable-background="accumulate"
       fill="#333333"
       style="text-indent:0;text-decoration:none;text-decoration-line:none;text-transform:none"
       id="path93" />
    <path
       d="m 442,258 v 1 l 13,-0.003 -2e-4,-0.99664 c 0,-1 -0.9998,-1.0034 -0.9998,-1.0034 h -3 c 0,0 0,-1 -1,-1 h -3 c -1,0 -1,1 -1,1 h -3 c 0,0 -1.0002,0.003 -1.0002,1.0034 z"
       color="#000000"
       enable-background="accumulate"
       fill="#333333"
       style="text-indent:0;text-decoration:none;text-decoration-line:none;text-transform:none"
       id="path95" />
  </g>
  <g
     id="add"
     transform="matrix(0.26458,0,0,0.26458,-6.35013,-214.308)"
     enable-background="new">
    <rect
       x="61"
       y="847"
       width="16"
       height="16"
       color="#bebebe"
       fill="none"
       id="rect98" />
    <path
       d="m 68,850 v 4 h -4 v 2 h 4 v 4 h 2 v -4 h 4 v -2 h -4 v -4 z"
       color="#bebebe"
       fill="#333333"
       id="path100" />
  </g>
  <g
     id="remove"
     transform="matrix(0.26458,0,0,0.26458,9.26047,-63.76)"
     enable-background="new">
    <rect
       x="20"
       y="276"
       width="16"
       height="16"
       color="#bebebe"
       fill="none"
       id="rect103" />
    <rect
       x="23"
       y="283"
       width="9.9996004"
       height="2.0002"
       color="#bebebe"
       fill="#333333"
       id="rect105" />
  </g>
  <g
     id="filter"
     transform="translate(-0.26465,-248.84082)">
    <rect
       x="18.52"
       y="258.89999"
       width="4.2329998"
       height="4.2329998"
       fill="none"
       id="rect108" />
    <rect
       x="19.049999"
       y="259.42999"
       width="3.175"
       height="3.175"
       fill="none"
       id="rect110" />
    <path
       transform="matrix(0.26458,0,0,0.26458,-0.60971,244.14)"
       d="m 76.305,57.787 -1,1 v 1 l 3,5.2598 v 2.7422 l 3,1.9961 v 0.002 h 1 v -4.7402 l 3,-5.2598 v -1 l -1,-1 h -8 z m 1,2 h 3 l -1,1 v 1 z"
       fill="#333333"
       id="path112" />
  </g>
  <g
     id="help"
     transform="translate(-0.26466,-248.84082)">
    <rect
       x="-0.52999997"
       y="258.89999"
       width="4.2329998"
       height="4.2329998"
       opacity="0"
       id="rect115" />
    <g
       transform="matrix(0.26458,0,0,0.26458,-118,149.89)"
       id="g119">
      <path
         d="m 453,427 h -2 v -2 h 2 z m 2.07,-7.75 -0.9,0.92 C 453.45,420.9 453,421.5 453,423 h -2 v -0.5 c 0,-1.1 0.45,-2.1 1.17,-2.83 l 1.24,-1.26 c 0.37,-0.36 0.59,-0.86 0.59,-1.41 0,-1.1 -0.9,-2 -2,-2 -1.1,0 -2,0.9 -2,2 h -2 c 0,-2.21 1.79,-4 4,-4 2.21,0 4,1.79 4,4 0,0.88 -0.36,1.68 -0.93,2.25 z"
         fill="#333333"
         id="path117" />
    </g>
  </g>
  <g
     id="close"
     transform="matrix(0.26458,0,0,0.26458,-11.37683,-4.76)">
    <rect
       x="130"
       y="55.990002"
       width="16"
       height="16"
       opacity="0.00100002"
       id="rect122" />
    <g
       transform="matrix(1.4994,0,0,1.5,36.042,-724.98)"
       enable-background="new"
       id="g128">
      <g
         transform="translate(19,-242)"
         id="g126">
        <path
           d="m 45,764 h 1 c 0.01037,-1.2e-4 0.02079,-4.6e-4 0.03125,0 0.25495,0.0112 0.50987,0.12858 0.6875,0.3125 l 2.2812,2.2812 2.3125,-2.2812 c 0.26562,-0.2305 0.44667,-0.3055 0.6875,-0.3125 h 1 v 1 c 0,0.28647 -0.03434,0.55065 -0.25,0.75 l -2.2812,2.2812 2.25,2.25 c 0.18819,0.18817 0.28124,0.45345 0.28125,0.71875 v 1 h -1 c -0.2653,-10e-6 -0.53059,-0.0931 -0.71875,-0.28125 l -2.2812,-2.2812 -2.2812,2.2812 c -0.18816,0.18819 -0.45346,0.28125 -0.71875,0.28125 h -1 v -1 c -3e-6,-0.26529 0.09306,-0.53058 0.28125,-0.71875 l 2.2812,-2.25 -2.2812,-2.2812 C 45.07061,765.55537 44.97819,765.28075 45.0001,765 Z"
           fill="#333333"
           id="path124" />
      </g>
    </g>
  </g>
</svg>
