<?xml version="1.0" encoding="UTF-8" standalone="no"?>
<svg
   xmlns:dc="http://purl.org/dc/elements/1.1/"
   xmlns:cc="http://creativecommons.org/ns#"
   xmlns:rdf="http://www.w3.org/1999/02/22-rdf-syntax-ns#"
   xmlns:svg="http://www.w3.org/2000/svg"
   xmlns="http://www.w3.org/2000/svg"
   xmlns:sodipodi="http://sodipodi.sourceforge.net/DTD/sodipodi-0.dtd"
   xmlns:inkscape="http://www.inkscape.org/namespaces/inkscape"
   id="svg4379"
   width="200"
   height="200"
   inkscape:version="1.0.1 (3bc2e813f5, 2020-09-07)"
   sodipodi:docname="kde.svg"
   version="1.1"
   viewBox="0 0 200 200">
  <metadata
     id="metadata10">
    <rdf:RDF>
      <cc:Work
         rdf:about="">
        <dc:format>image/svg+xml</dc:format>
        <dc:type
           rdf:resource="http://purl.org/dc/dcmitype/StillImage" />
      </cc:Work>
    </rdf:RDF>
  </metadata>
  <defs
     id="defs8">
    <style
       id="current-color-scheme"
       type="text/css">
      .ColorScheme-Text {
        color:#31363b;
      }
      </style>
    <style
       type="text/css"
       id="style832" />
  </defs>
  <sodipodi:namedview
     id="namedview39"
     bordercolor="#666666"
     borderopacity="1"
     gridtolerance="10"
     guidetolerance="10"
     inkscape:current-layer="svg4379"
     inkscape:cx="112.92717"
     inkscape:cy="127.13804"
     inkscape:pageopacity="0"
     inkscape:pageshadow="2"
     inkscape:window-height="942"
     inkscape:window-maximized="1"
     inkscape:window-width="1920"
     inkscape:window-x="0"
     inkscape:window-y="38"
     inkscape:zoom="1.4124458"
     objecttolerance="10"
     pagecolor="#dfe2e4"
     showgrid="true"
     inkscape:snap-bbox="true"
     inkscape:bbox-nodes="true"
     inkscape:snap-bbox-edge-midpoints="true"
     inkscape:document-rotation="0">
    <inkscape:grid
       id="grid839"
       type="xygrid" />
  </sodipodi:namedview>
  <path
     d="M 100.80551,5 C 98.998563,4.98652 97.199751,5.0672 95.413011,5.234388 87.128546,5.887521 83.08728,8.450183 83.32791,7.987679 69.780873,12.822109 58.327706,23.225238 53.027651,37.809781 43.586917,63.78508 56.961968,92.510392 82.893508,101.96988 108.8438,111.42936 137.52224,98.032452 146.96922,72.057152 156.4162,46.084975 143.04117,17.359657 117.09711,7.903299 l 0.003,-0.0031 C 111.7119,5.9314 106.22638,5.040429 100.80551,5 Z m 9.92248,6.416009 c 1.55939,0.38438 3.12526,0.625065 4.6659,1.184447 a 44.813017,44.813017 0 0 1 14.81027,9.00054 c -6.83759,2.496905 -17.8792,7.770778 -17.8792,7.770778 -17.50332,7.375085 -18.687055,18.526112 -18.687055,18.526112 -1.812517,11.490759 7.309815,6.625398 7.309815,6.625398 9.38448,-4.571928 13.99615,-18.816754 13.99615,-18.816754 -2.92816,-0.559382 -5.23782,0.334395 -5.23782,0.334395 -3.74692,9.250107 -11.386616,13.050783 -11.386616,13.050783 -3.009413,1.590644 -3.709599,-1.221948 -3.709599,-1.221948 -0.509382,-2.1094 2.175131,-2.465773 2.175131,-2.465773 4.165674,-1.621894 6.827004,-5.997322 7.433254,-7.784843 0.60002,-1.790645 1.71573,-1.934491 1.71573,-1.934491 a 51.76935,51.76935 0 0 1 10.68502,-2.209507 l 0.22813,-0.01875 c 7.08445,-0.871886 17.9292,2.509526 17.9292,2.509526 2.4344,0.978136 4.76445,1.709505 6.83635,2.297012 3.97504,9.93449 4.60321,21.240863 0.66566,32.084735 -8.49696,23.375253 -34.31568,35.434531 -57.672195,26.925043 h -0.0032 a 44.469263,44.469263 0 0 1 -7.972351,-3.87835 l 0.193756,0.10938 c 12.084509,0.92814 27.85999,-1.85216 38.49762,-11.80852 0,0 20.27551,-16.200694 5.60346,-42.788502 0,0 2.36562,10.715134 -0.65004,19.527735 0,0 -2.87423,11.988391 -15.6525,15.466552 -18.82209,5.128188 -40.266905,-8.041419 -49.235763,-14.42899 -0.675008,-6.55945 -0.07488,-13.333934 2.334516,-19.949635 3.562542,-9.800113 10.261952,-17.449733 18.446419,-22.584168 -2.04065,14.31579 -0.424913,27.500356 1.900114,33.022294 3.121908,7.403209 8.541649,16.040081 19.126148,17.146339 10.584486,1.112515 16.415046,-8.791149 16.415046,-8.791149 5.43443,-8.250094 6.28474,-20.096533 6.20037,-20.384036 -0.0844,-0.290629 -1.44697,-1.07194 -1.44696,-1.07194 -3.65318,14.787671 -9.67871,19.724622 -9.67871,19.724622 -9.500106,9.171982 -16.227526,2.812668 -16.227526,2.812668 -7.234458,-7.771965 -2.165762,-20.396536 -2.165762,-20.396536 2.83441,-8.6001 11.083928,-21.184394 20.437168,-27.584468 z"
     style="fill:#ffffff;fill-opacity:1;stroke-width:1.55689;stroke-linecap:round"
     id="rect846" />
</svg>
